if (_typeface_js && _typeface_js.loadFace) _typeface_js.loadFace({"glyphs":{"0":{"ha":833,"x_min":0,"x_max":0,"o":"m 417 43 b 672 486 576 43 672 185 b 417 929 672 788 576 929 b 161 486 257 929 161 788 b 417 43 161 185 257 43 m 417 -21 b 83 486 228 -21 83 133 b 417 993 83 842 228 993 b 749 486 606 993 749 842 b 417 -21 749 132 606 -21 "},"1":{"ha":833,"x_min":0,"x_max":0,"o":"m 436 0 l 436 892 l 211 764 l 211 843 l 438 972 l 511 972 l 511 0 "},"2":{"ha":833,"x_min":0,"x_max":0,"o":"m 97 738 b 417 993 122 894 247 993 b 711 728 582 993 711 892 b 508 372 711 600 651 517 l 208 69 l 710 69 l 710 0 l 108 0 l 108 69 l 469 436 b 636 726 579 547 636 622 b 414 928 636 849 550 928 b 178 738 285 928 193 851 "},"3":{"ha":833,"x_min":0,"x_max":0,"o":"m 731 267 b 403 -21 731 90 597 -21 b 71 221 225 -21 99 69 l 150 221 b 403 44 174 107 269 44 b 654 265 553 44 654 129 b 426 481 654 408 556 481 l 326 481 l 326 547 l 421 547 b 626 738 543 547 626 622 b 401 929 626 860 531 929 b 160 754 271 929 182 865 l 82 754 b 406 993 108 903 231 993 b 701 744 571 993 701 903 b 519 517 701 628 636 547 b 731 267 636 500 731 411 "},"4":{"ha":833,"x_min":0,"x_max":0,"o":"m 613 972 l 613 249 l 763 249 l 763 183 l 613 183 l 613 0 l 538 0 l 538 183 l 92 183 l 92 258 l 532 972 m 538 249 l 538 853 l 169 249 "},"5":{"ha":833,"x_min":0,"x_max":0,"o":"m 401 -21 b 78 226 235 -21 106 78 l 157 226 b 404 43 182 107 281 43 b 661 311 547 43 661 146 b 413 567 661 474 560 567 b 174 453 293 567 213 506 l 111 453 l 131 972 l 688 972 l 688 907 l 201 907 l 186 538 b 425 629 236 585 315 629 b 739 308 603 629 739 514 b 401 -21 739 115 597 -21 "},"6":{"ha":833,"x_min":0,"x_max":0,"o":"m 429 632 b 736 308 607 632 736 508 b 422 -21 736 99 590 -21 b 92 443 179 -21 92 179 b 440 993 92 882 264 993 b 710 801 568 993 679 919 l 629 801 b 439 929 604 882 535 929 b 165 471 299 929 172 833 b 429 632 211 565 311 632 m 178 322 b 424 44 178 203 242 44 b 660 303 549 44 660 139 b 419 568 660 472 563 568 b 178 322 286 568 178 474 "},"7":{"ha":833,"x_min":0,"x_max":0,"o":"m 278 0 l 194 0 l 635 904 l 99 904 l 99 972 l 714 972 l 714 904 "},"8":{"ha":833,"x_min":0,"x_max":0,"o":"m 725 751 b 521 517 725 615 618 550 b 760 253 632 482 760 407 b 417 -21 760 96 628 -21 b 74 246 207 -21 74 97 b 300 513 74 410 192 479 b 108 744 210 543 108 611 b 417 993 108 913 257 993 b 725 751 578 993 725 919 m 682 251 b 401 488 682 411 529 464 b 151 251 278 457 151 401 b 417 43 151 126 261 43 b 682 251 569 43 682 124 m 182 749 b 421 540 182 601 317 558 b 650 749 536 569 650 619 b 417 932 650 875 538 932 b 182 749 301 932 182 878 "},"9":{"ha":833,"x_min":0,"x_max":0,"o":"m 399 340 b 92 664 231 340 92 453 b 401 993 92 863 231 993 b 736 529 646 993 736 796 b 388 -21 736 113 583 -21 b 113 172 257 -21 142 54 l 192 172 b 389 43 215 89 294 43 b 663 501 546 43 656 157 b 399 340 617 406 517 340 m 650 650 b 404 928 650 768 586 928 b 168 669 272 928 168 825 b 408 404 168 492 275 404 b 650 650 542 404 650 499 "},"\u0000":{"ha":0,"x_min":0,"x_max":0,"o":""},"\r":{"ha":417,"x_min":0,"x_max":0,"o":""}," ":{"ha":417,"x_min":0,"x_max":0,"o":""},"!":{"ha":361,"x_min":0,"x_max":0,"o":"m 131 0 l 131 111 l 231 111 l 231 0 m 143 314 l 135 1000 l 221 1000 l 213 314 "},"\"":{"ha":833,"x_min":0,"x_max":0,"o":"m 214 681 l 161 681 l 146 893 l 146 1021 l 226 1021 l 226 893 m 407 681 l 354 681 l 339 893 l 339 1021 l 419 1021 l 419 893 "},"#":{"ha":833,"x_min":0,"x_max":0,"o":"m 89 701 l 215 701 l 239 972 l 310 972 l 285 701 l 585 701 l 608 972 l 678 972 l 654 701 l 771 701 l 771 639 l 649 639 l 622 333 l 743 333 l 743 271 l 617 271 l 593 0 l 524 0 l 546 271 l 247 271 l 225 0 l 154 0 l 178 271 l 61 271 l 61 333 l 183 333 l 210 639 l 89 639 m 253 333 l 553 333 l 578 639 l 279 639 "},"$":{"ha":833,"x_min":0,"x_max":0,"o":"m 386 -14 b 49 257 213 -4 79 89 l 131 257 b 424 51 157 121 272 51 b 704 254 603 51 704 135 b 386 488 704 364 644 426 b 90 746 171 538 90 614 b 386 992 90 876 194 981 l 386 1153 l 457 1153 l 457 992 b 783 746 628 981 754 890 l 703 746 b 422 926 676 858 572 926 b 171 751 253 926 171 849 b 440 550 171 653 217 601 b 783 258 694 490 783 400 b 457 -15 783 115 667 -4 l 457 -187 l 386 -187 "},"%":{"ha":1151,"x_min":0,"x_max":0,"o":"m 526 758 b 299 524 526 601 419 524 b 72 758 178 524 72 601 b 299 993 72 915 178 993 b 526 758 419 993 526 915 m 139 758 b 299 581 139 633 214 581 b 460 758 382 581 460 633 b 299 936 460 883 383 936 b 139 758 214 936 139 883 m 379 0 l 304 0 l 768 972 l 842 972 m 1079 214 b 851 -21 1079 57 972 -21 b 625 214 731 -21 625 57 b 851 449 625 371 732 449 b 1079 214 972 449 1079 371 m 692 214 b 851 36 692 89 767 36 b 1013 214 935 36 1013 89 b 851 392 1013 339 936 392 b 692 214 767 392 692 339 "},"&":{"ha":874,"x_min":0,"x_max":0,"o":"m 808 458 b 704 169 797 361 763 257 l 851 25 l 797 -21 l 661 115 b 364 -21 589 33 490 -21 b 49 224 164 -21 49 78 b 264 510 49 357 132 432 b 97 775 165 610 97 683 b 349 993 97 883 182 993 b 604 779 518 993 604 885 b 371 497 604 669 504 572 l 654 218 b 740 467 700 290 729 379 m 369 43 b 613 161 469 43 551 90 l 310 464 b 126 231 199 399 126 335 b 369 43 126 114 217 43 m 169 775 b 324 542 169 704 218 649 b 533 778 456 618 533 693 b 350 932 533 849 482 932 b 169 775 224 932 169 854 "},"'":{"ha":375,"x_min":0,"x_max":0,"o":"m 215 681 l 161 681 l 147 893 l 147 1021 l 228 1021 l 228 893 "},"(":{"ha":472,"x_min":0,"x_max":0,"o":"m 190 444 b 406 -236 190 151 290 -60 l 340 -236 b 114 444 233 -94 114 143 b 340 1125 114 746 233 983 l 406 1125 b 190 444 290 949 190 738 "},")":{"ha":472,"x_min":0,"x_max":0,"o":"m 282 444 b 65 1125 282 738 181 949 l 132 1125 b 357 444 239 983 357 746 b 132 -236 357 143 239 -94 l 65 -236 b 282 444 181 -60 282 151 "},"*":{"ha":653,"x_min":0,"x_max":0,"o":"m 325 725 l 204 533 l 147 576 l 293 753 l 71 810 l 93 876 l 304 793 l 289 1021 l 361 1021 l 346 792 l 558 876 l 581 810 l 358 753 l 504 576 l 447 533 "},"+":{"ha":833,"x_min":0,"x_max":0,"o":"m 453 729 l 453 481 l 699 481 l 699 413 l 453 413 l 453 165 l 379 165 l 379 413 l 135 413 l 135 481 l 379 481 l 379 729 "},",":{"ha":388,"x_min":0,"x_max":0,"o":"m 247 8 b 103 -193 247 -114 185 -174 l 103 -144 b 182 0 156 -125 182 -85 l 144 0 l 144 110 l 247 110 "},"-":{"ha":750,"x_min":0,"x_max":0,"o":"m 615 413 l 135 413 l 135 481 l 615 481 "},".":{"ha":396,"x_min":0,"x_max":0,"o":"m 147 0 l 147 111 l 249 111 l 249 0 "},"/":{"ha":497,"x_min":0,"x_max":0,"o":"m 131 -125 l 58 -125 l 365 1021 l 438 1021 "},":":{"ha":396,"x_min":0,"x_max":0,"o":"m 147 0 l 147 111 l 249 111 l 249 0 m 147 611 l 147 722 l 249 722 l 249 611 "},";":{"ha":396,"x_min":0,"x_max":0,"o":"m 147 611 l 147 722 l 247 722 l 247 611 m 247 8 b 103 -193 247 -114 185 -174 l 103 -144 b 182 0 156 -125 182 -85 l 147 0 l 147 110 l 247 110 "},"<":{"ha":833,"x_min":0,"x_max":0,"o":"m 215 446 l 699 217 l 699 138 l 135 414 l 135 482 l 699 758 l 699 679 l 215 450 "},"=":{"ha":833,"x_min":0,"x_max":0,"o":"m 699 557 l 135 557 l 135 625 l 699 625 m 699 268 l 135 268 l 135 336 l 699 336 "},">":{"ha":833,"x_min":0,"x_max":0,"o":"m 618 450 l 135 679 l 135 758 l 699 482 l 699 414 l 135 138 l 135 217 l 618 446 "},"?":{"ha":722,"x_min":0,"x_max":0,"o":"m 75 779 b 382 1021 100 921 213 1021 b 667 792 551 1021 667 918 b 511 528 667 713 628 642 l 450 468 b 397 281 404 418 397 368 l 322 281 b 443 568 322 435 340 479 b 588 792 546 657 588 710 b 379 956 588 881 507 956 b 156 779 260 956 175 885 m 310 0 l 310 110 l 411 110 l 411 0 "},"@":{"ha":1282,"x_min":0,"x_max":0,"o":"m 943 142 b 796 286 851 142 799 211 b 575 150 775 236 693 150 b 351 401 464 150 351 233 b 649 772 351 628 476 772 b 818 664 713 772 792 736 l 843 763 l 899 763 l 847 368 b 844 321 846 347 844 335 b 942 201 844 243 882 201 b 1129 549 1044 201 1129 324 b 656 957 1129 789 943 957 b 151 440 438 957 151 824 b 664 -51 151 115 397 -51 b 879 -17 744 -51 822 -36 l 889 -79 b 660 -117 832 -100 747 -117 b 79 440 365 -117 79 71 b 656 1021 79 864 400 1021 b 1201 550 981 1021 1201 822 b 943 142 1201 304 1092 142 m 589 211 b 800 546 715 211 800 325 b 651 713 800 661 733 713 b 424 424 533 713 424 610 b 589 211 424 278 493 211 "},"A":{"ha":918,"x_min":0,"x_max":0,"o":"m 822 0 l 710 283 l 204 283 l 92 0 l 10 0 l 411 1000 l 508 1000 l 908 0 m 231 349 l 685 349 l 460 925 "},"B":{"ha":886,"x_min":0,"x_max":0,"o":"m 457 1000 b 775 753 664 1000 775 904 b 594 531 775 650 706 557 b 815 278 717 513 815 413 b 463 0 815 107 696 0 l 114 0 l 114 1000 m 192 494 l 192 67 l 474 67 b 733 278 642 67 733 143 b 481 494 733 408 639 494 m 192 936 l 192 558 l 476 558 b 697 751 621 558 697 643 b 467 936 697 867 613 936 "},"C":{"ha":999,"x_min":0,"x_max":0,"o":"m 525 47 b 854 332 704 47 833 156 l 932 332 b 524 -21 911 138 757 -21 b 72 492 254 -21 72 178 b 524 1021 72 835 268 1021 b 933 699 740 1021 904 899 l 856 699 b 524 953 824 865 697 953 b 153 492 313 953 153 792 b 525 47 153 214 311 47 "},"D":{"ha":950,"x_min":0,"x_max":0,"o":"m 396 1000 b 878 500 679 1000 878 825 b 392 0 878 182 671 0 l 114 0 l 114 1000 m 192 935 l 192 67 l 401 67 b 799 500 635 67 799 218 b 399 935 799 786 631 935 "},"E":{"ha":785,"x_min":0,"x_max":0,"o":"m 665 475 l 192 475 l 192 68 l 706 68 l 706 0 l 114 0 l 114 1000 l 706 1000 l 706 932 l 192 932 l 192 542 l 665 542 "},"F":{"ha":768,"x_min":0,"x_max":0,"o":"m 696 1000 l 696 932 l 192 932 l 192 514 l 644 514 l 644 447 l 192 447 l 192 0 l 114 0 l 114 1000 "},"G":{"ha":1015,"x_min":0,"x_max":0,"o":"m 913 0 l 856 0 l 844 164 b 518 -21 785 47 664 -21 b 72 499 272 -21 72 158 b 518 1021 72 840 269 1021 b 915 726 729 1021 878 908 l 838 726 b 518 953 800 875 683 953 b 151 499 325 953 151 807 b 524 46 151 200 328 46 b 843 332 699 46 843 167 l 843 458 l 519 458 l 519 524 l 913 524 "},"H":{"ha":951,"x_min":0,"x_max":0,"o":"m 838 1000 l 838 0 l 758 0 l 758 475 l 192 475 l 192 0 l 114 0 l 114 1000 l 192 1000 l 192 544 l 758 544 l 758 1000 "},"I":{"ha":306,"x_min":0,"x_max":0,"o":"m 192 1000 l 192 0 l 114 0 l 114 1000 "},"J":{"ha":728,"x_min":0,"x_max":0,"o":"m 122 265 b 336 47 129 121 213 47 b 542 279 464 47 542 129 l 542 1000 l 621 1000 l 621 279 b 333 -21 621 96 513 -21 b 44 265 158 -21 51 96 "},"K":{"ha":828,"x_min":0,"x_max":0,"o":"m 706 0 l 192 492 l 192 0 l 114 0 l 114 1000 l 192 1000 l 192 535 l 674 1000 l 769 1000 l 271 518 l 811 0 "},"L":{"ha":761,"x_min":0,"x_max":0,"o":"m 193 1000 l 193 72 l 703 72 l 703 0 l 114 0 l 114 1000 "},"M":{"ha":1169,"x_min":0,"x_max":0,"o":"m 554 0 l 190 899 l 190 0 l 114 0 l 114 1000 l 229 1000 l 597 83 l 944 1000 l 1056 1000 l 1056 0 l 981 0 l 981 892 l 638 0 "},"N":{"ha":989,"x_min":0,"x_max":0,"o":"m 875 1000 l 875 0 l 783 0 l 188 900 l 188 0 l 114 0 l 114 1000 l 210 1000 l 804 106 l 804 1000 "},"O":{"ha":1046,"x_min":0,"x_max":0,"o":"m 522 -21 b 72 499 268 -21 72 167 b 524 1021 72 835 274 1021 b 974 499 772 1021 974 838 b 522 -21 974 161 775 -21 m 522 46 b 893 499 725 46 893 192 b 522 954 893 794 735 954 b 153 499 311 954 153 794 b 522 46 153 196 321 46 "},"P":{"ha":869,"x_min":0,"x_max":0,"o":"m 450 1000 b 804 686 675 1000 804 885 b 446 383 804 497 661 383 l 192 383 l 192 0 l 114 0 l 114 1000 m 192 933 l 192 451 l 447 451 b 722 686 622 451 722 539 b 453 933 722 840 624 933 "},"Q":{"ha":1046,"x_min":0,"x_max":0,"o":"m 522 -21 b 72 499 268 -21 72 167 b 524 1021 72 835 274 1021 b 974 499 772 1021 974 838 b 808 81 974 308 910 167 l 964 -112 l 897 -158 l 751 40 b 522 -21 685 -1 607 -21 m 522 46 b 893 499 725 46 893 192 b 522 954 893 794 735 954 b 153 499 311 954 153 794 b 522 46 153 196 321 46 "},"R":{"ha":874,"x_min":0,"x_max":0,"o":"m 756 0 l 488 411 l 192 411 l 192 0 l 114 0 l 114 1000 l 456 1000 b 806 700 681 1000 806 889 b 568 424 806 556 703 460 l 850 0 m 192 933 l 192 478 l 456 478 b 724 700 624 478 724 569 b 458 933 724 849 633 933 "},"S":{"ha":897,"x_min":0,"x_max":0,"o":"m 743 256 b 410 500 743 378 681 440 b 101 775 183 550 101 635 b 446 1021 101 918 221 1021 b 822 771 643 1021 792 928 l 742 771 b 447 954 717 885 608 954 b 181 779 265 954 181 881 b 464 563 181 672 233 614 b 822 258 731 501 822 414 b 449 -21 822 103 690 -21 b 58 256 242 -21 90 79 l 140 256 b 449 47 167 118 288 47 b 743 256 639 47 743 132 "},"T":{"ha":799,"x_min":0,"x_max":0,"o":"m 775 931 l 438 931 l 438 0 l 360 0 l 360 931 l 24 931 l 24 1000 l 775 1000 "},"U":{"ha":975,"x_min":0,"x_max":0,"o":"m 488 -21 b 107 328 246 -21 107 133 l 107 1000 l 183 1000 l 183 324 b 488 46 183 160 310 46 b 792 324 665 46 792 161 l 792 1000 l 868 1000 l 868 328 b 488 -21 868 132 724 -21 "},"V":{"ha":871,"x_min":0,"x_max":0,"o":"m 92 1000 b 435 68 206 689 319 378 b 783 1000 551 378 667 689 l 860 1000 b 488 0 736 667 613 333 l 382 0 l 10 1000 "},"W":{"ha":1325,"x_min":0,"x_max":0,"o":"m 1308 1000 l 1032 0 l 929 0 l 665 925 l 399 0 l 293 0 l 17 1000 l 97 1000 l 349 79 l 614 1000 l 721 1000 l 981 82 l 1233 1000 "},"X":{"ha":851,"x_min":0,"x_max":0,"o":"m 474 518 l 828 0 l 733 0 l 426 457 l 114 0 l 24 0 l 381 518 l 50 1000 l 143 1000 l 431 578 l 728 1000 l 815 1000 "},"Y":{"ha":865,"x_min":0,"x_max":0,"o":"m 94 1000 l 431 464 b 774 1000 546 642 660 821 l 854 1000 l 471 392 l 471 0 l 392 0 l 392 393 l 10 1000 "},"Z":{"ha":888,"x_min":0,"x_max":0,"o":"m 158 68 l 808 68 l 808 0 l 65 0 l 65 69 l 731 931 l 97 931 l 97 1000 l 822 1000 l 822 933 "},"[":{"ha":365,"x_min":0,"x_max":0,"o":"m 313 -236 l 60 -236 l 60 1125 l 313 1125 l 313 1061 l 133 1061 l 133 -172 l 313 -172 "},"\\":{"ha":463,"x_min":0,"x_max":0,"o":"m 349 -125 b 42 1021 246 257 143 639 l 113 1021 l 419 -125 l 349 -125 "},"]":{"ha":365,"x_min":0,"x_max":0,"o":"m 51 -172 l 232 -172 l 232 1061 l 51 1061 l 51 1125 l 304 1125 l 304 -236 l 51 -236 "},"^":{"ha":694,"x_min":0,"x_max":0,"o":"m 144 556 l 65 556 l 308 1000 l 385 1000 l 629 556 l 550 556 l 347 932 "},"_":{"ha":838,"x_min":0,"x_max":0,"o":"m 794 -154 l 42 -154 l 42 -86 l 794 -86 "},"`":{"ha":329,"x_min":0,"x_max":0,"o":"m 288 831 l 218 831 l 42 1021 l 144 1021 "},"a":{"ha":735,"x_min":0,"x_max":0,"o":"m 86 535 b 367 743 97 658 207 743 b 635 506 528 743 635 653 l 635 0 l 574 0 l 563 119 b 307 -21 518 44 436 -21 b 65 183 167 -21 65 56 b 343 415 65 307 140 382 l 560 451 l 560 514 b 363 682 560 618 486 682 b 164 535 247 682 174 622 m 326 43 b 560 257 442 43 560 131 l 560 392 l 365 358 b 143 189 193 329 143 275 b 326 43 143 92 218 43 "},"b":{"ha":806,"x_min":0,"x_max":0,"o":"m 107 0 l 107 1000 l 182 1000 l 182 588 b 436 743 228 678 315 743 b 740 369 615 743 740 618 b 431 -21 740 114 606 -21 b 181 132 311 -21 225 42 l 168 0 m 663 371 b 421 679 663 583 561 679 b 176 361 299 679 176 592 b 419 43 176 150 278 43 b 663 371 558 43 663 149 "},"c":{"ha":750,"x_min":0,"x_max":0,"o":"m 685 213 b 386 -21 663 78 547 -21 b 65 356 207 -21 65 110 b 388 743 65 611 208 743 b 681 522 542 743 657 657 l 599 522 b 390 681 581 618 500 681 b 143 353 251 681 143 575 b 389 43 143 140 256 43 b 606 213 501 43 588 111 "},"d":{"ha":806,"x_min":0,"x_max":0,"o":"m 638 0 l 625 138 b 371 -21 579 44 492 -21 b 65 354 204 -21 65 104 b 375 743 65 615 203 743 b 624 594 492 743 579 682 l 624 1000 l 699 1000 l 699 0 m 143 354 b 386 43 143 143 250 43 b 631 361 511 43 631 136 b 386 679 631 572 526 679 b 143 354 251 679 143 576 "},"e":{"ha":793,"x_min":0,"x_max":0,"o":"m 708 197 b 408 -21 674 65 563 -21 b 65 361 213 -21 65 114 b 394 743 65 608 208 743 b 721 343 579 743 721 618 l 142 343 b 410 43 149 138 265 43 b 629 197 518 43 601 101 m 394 682 b 143 406 263 682 157 586 l 643 406 b 394 682 633 590 529 682 "},"f":{"ha":417,"x_min":0,"x_max":0,"o":"m 424 940 b 317 957 388 950 347 957 b 219 847 256 957 219 919 l 219 722 l 389 722 l 389 658 l 219 658 l 219 0 l 144 0 l 144 658 l 38 658 l 38 722 l 144 722 l 144 844 b 315 1021 144 956 213 1021 b 424 1004 353 1021 389 1015 "},"g":{"ha":806,"x_min":0,"x_max":0,"o":"m 176 -67 b 393 -210 194 -165 281 -210 b 624 7 539 -210 624 -125 l 624 164 b 372 25 578 82 492 25 b 65 379 210 25 65 149 b 375 743 65 613 201 743 b 626 596 492 743 581 685 l 638 722 l 699 722 l 699 4 b 396 -271 699 -153 586 -271 b 97 -67 231 -271 122 -197 m 143 379 b 386 89 143 190 251 89 b 631 381 515 89 631 168 b 386 679 631 583 525 679 b 143 379 251 679 143 585 "},"h":{"ha":768,"x_min":0,"x_max":0,"o":"m 107 0 l 107 1000 l 182 1000 l 182 603 b 418 743 229 693 321 743 b 668 492 571 743 668 649 l 668 0 l 593 0 l 593 489 b 401 679 593 610 522 679 b 182 446 293 679 182 590 l 182 0 "},"i":{"ha":289,"x_min":0,"x_max":0,"o":"m 100 897 l 100 1000 l 190 1000 l 190 897 m 107 0 l 107 722 l 182 722 l 182 0 "},"j":{"ha":289,"x_min":0,"x_max":0,"o":"m -72 -192 b 15 -206 -43 -200 -7 -206 b 107 -93 76 -206 107 -176 l 107 722 l 182 722 l 182 -97 b 26 -271 182 -208 126 -271 b -72 -256 -4 -271 -37 -267 m 99 897 l 99 1000 l 189 1000 l 189 897 "},"k":{"ha":678,"x_min":0,"x_max":0,"o":"m 107 0 l 107 1000 l 182 1000 l 182 428 l 528 722 l 629 722 l 258 407 l 675 0 l 574 0 l 182 382 l 182 0 "},"l":{"ha":289,"x_min":0,"x_max":0,"o":"m 182 0 l 107 0 l 107 1000 l 182 1000 "},"m":{"ha":1185,"x_min":0,"x_max":0,"o":"m 107 0 l 107 722 l 169 722 l 178 610 b 400 743 226 703 315 743 b 615 600 508 743 585 693 b 851 743 664 701 763 743 b 1085 496 996 743 1085 654 l 1085 0 l 1010 0 l 1010 492 b 836 679 1010 621 946 679 b 633 447 717 679 633 576 l 633 0 l 558 0 l 558 492 b 388 679 558 619 497 679 b 182 449 269 679 182 578 l 182 0 "},"n":{"ha":768,"x_min":0,"x_max":0,"o":"m 107 0 l 107 722 l 169 722 l 178 599 b 418 743 228 693 319 743 b 668 492 571 743 668 649 l 668 0 l 593 0 l 593 489 b 401 679 593 610 522 679 b 182 449 293 679 182 590 l 182 0 "},"o":{"ha":796,"x_min":0,"x_max":0,"o":"m 65 361 b 399 743 65 615 211 743 b 731 361 590 743 731 614 b 400 -21 731 110 590 -21 b 65 361 211 -21 65 113 m 143 361 b 399 40 143 149 254 40 b 653 361 547 40 653 149 b 399 682 653 575 546 682 b 143 361 251 682 143 574 "},"p":{"ha":806,"x_min":0,"x_max":0,"o":"m 168 722 l 181 588 b 436 743 225 678 314 743 b 740 369 614 743 740 618 b 428 -21 740 114 604 -21 b 182 129 311 -21 226 40 l 182 -250 l 107 -250 l 107 722 m 663 371 b 421 679 663 583 560 679 b 176 361 299 679 176 592 b 417 43 176 150 278 43 b 663 371 556 43 663 149 "},"q":{"ha":806,"x_min":0,"x_max":0,"o":"m 699 722 l 699 -250 l 624 -250 l 624 135 b 371 -21 578 44 490 -21 b 65 354 204 -21 65 104 b 375 743 65 615 203 743 b 626 593 493 743 581 682 l 638 722 m 143 354 b 386 43 143 143 250 43 b 631 361 511 43 631 136 b 386 679 631 572 526 679 b 143 354 251 679 143 576 "},"r":{"ha":474,"x_min":0,"x_max":0,"o":"m 107 0 l 107 722 l 168 722 l 179 583 b 382 743 218 693 292 743 b 457 732 411 743 440 738 l 457 658 b 378 671 432 665 407 671 b 182 394 272 671 182 568 l 182 0 "},"s":{"ha":690,"x_min":0,"x_max":0,"o":"m 547 190 b 311 350 547 283 475 321 b 76 551 164 375 76 438 b 339 743 76 660 164 743 b 621 543 489 743 600 665 l 543 543 b 336 682 531 624 450 682 b 153 558 210 682 153 625 b 354 411 153 479 200 440 b 625 194 539 376 625 319 b 342 -21 625 79 519 -21 b 51 192 172 -21 68 67 l 129 192 b 343 40 140 100 219 40 b 547 190 476 40 547 113 "},"t":{"ha":419,"x_min":0,"x_max":0,"o":"m 210 657 l 210 144 b 304 43 210 75 246 43 b 392 54 331 43 354 44 l 392 -7 b 300 -21 358 -17 329 -21 b 135 146 196 -21 135 38 l 135 657 l 31 657 l 31 722 l 135 722 l 139 896 l 210 896 l 210 722 l 378 722 l 378 657 "},"u":{"ha":761,"x_min":0,"x_max":0,"o":"m 175 722 l 175 233 b 364 43 175 106 249 43 b 579 279 490 43 579 146 l 579 722 l 654 722 l 654 0 l 593 0 l 583 115 b 347 -21 532 22 438 -21 b 100 233 206 -21 100 63 l 100 722 "},"v":{"ha":690,"x_min":0,"x_max":0,"o":"m 667 722 l 396 0 l 294 0 l 24 722 l 106 722 l 346 64 l 589 722 "},"w":{"ha":1068,"x_min":0,"x_max":0,"o":"m 1038 722 l 829 0 l 739 0 l 536 646 l 344 0 l 251 0 l 31 722 l 107 722 l 300 76 l 492 722 l 586 722 l 785 79 l 964 722 "},"x":{"ha":710,"x_min":0,"x_max":0,"o":"m 394 382 l 686 0 l 594 0 l 349 325 l 113 0 l 24 0 l 304 379 l 38 722 l 131 722 l 351 435 l 557 722 l 644 722 "},"y":{"ha":690,"x_min":0,"x_max":0,"o":"m 413 -6 b 211 -271 343 -203 315 -271 b 136 -257 186 -271 161 -265 l 136 -196 b 207 -208 160 -204 186 -208 b 340 0 269 -208 288 -157 l 311 0 l 24 722 l 104 722 l 363 58 l 592 722 l 667 722 "},"z":{"ha":665,"x_min":0,"x_max":0,"o":"m 138 64 l 614 64 l 614 0 l 51 0 l 51 72 l 531 658 l 72 658 l 72 722 l 614 722 l 614 647 "},"{":{"ha":472,"x_min":0,"x_max":0,"o":"m 71 481 b 201 617 146 481 201 528 l 201 925 b 408 1125 201 1053 257 1125 l 408 1063 b 275 932 299 1063 275 1015 l 275 625 b 150 446 275 525 224 464 b 275 265 224 428 275 367 l 275 -40 b 408 -171 275 -124 299 -171 l 408 -233 b 201 -33 257 -233 201 -161 l 201 275 b 71 410 201 364 146 410 l 71 481 "},"|":{"ha":481,"x_min":0,"x_max":0,"o":"m 275 1090 l 275 -194 l 206 -194 l 206 1090 "},"}":{"ha":472,"x_min":0,"x_max":0,"o":"m 401 410 b 271 275 326 410 271 364 l 271 -33 b 63 -233 271 -161 215 -233 l 63 -171 b 197 -40 172 -171 197 -124 l 197 265 b 322 446 197 367 247 428 b 197 625 247 464 197 525 l 197 932 b 63 1063 197 1015 172 1063 l 63 1125 b 271 925 215 1125 271 1053 l 271 617 b 401 481 271 528 326 481 "},"~":{"ha":833,"x_min":0,"x_max":0,"o":"m 283 460 b 135 393 224 460 179 432 l 135 471 b 286 526 171 500 221 526 b 550 446 400 526 456 446 b 699 513 610 446 653 472 l 699 435 b 546 379 663 406 611 379 b 283 460 432 379 376 460 "}," ":{"ha":417,"x_min":0,"x_max":0,"o":""},"¡":{"ha":361,"x_min":0,"x_max":0,"o":"m 231 750 l 231 639 l 131 639 l 131 750 m 213 436 l 221 -250 l 135 -250 l 143 436 "},"¢":{"ha":833,"x_min":0,"x_max":0,"o":"m 386 -18 b 106 356 225 0 106 128 b 386 740 106 590 226 721 l 386 917 l 457 917 l 457 740 b 719 522 596 732 697 647 l 639 522 b 429 681 621 618 540 681 b 183 353 292 681 183 575 b 429 43 183 140 296 43 b 644 213 542 43 628 111 l 725 213 b 457 -18 703 86 601 -7 l 457 -187 l 386 -187 "},"£":{"ha":833,"x_min":0,"x_max":0,"o":"m 568 454 l 271 454 l 271 296 b 197 68 271 215 268 118 l 728 68 l 728 0 l 97 0 l 97 68 b 197 218 161 92 197 142 l 197 454 l 135 454 l 135 518 l 197 518 l 197 728 b 460 993 197 901 307 993 b 722 790 592 993 694 914 l 647 790 b 458 929 628 872 558 929 b 271 726 339 929 271 856 l 271 518 l 568 518 "},"¤":{"ha":833,"x_min":0,"x_max":0,"o":"m 417 215 b 660 472 549 215 660 319 b 417 729 660 625 549 729 b 171 472 282 729 171 625 b 417 215 171 319 282 215 m 415 150 b 213 221 349 150 272 174 l 124 132 l 72 183 l 163 275 b 99 472 124 324 99 389 b 161 667 99 553 124 617 l 72 756 l 124 807 l 211 719 b 415 794 269 769 347 794 b 621 718 483 794 563 768 l 710 807 l 761 756 l 671 665 b 732 472 707 615 732 551 b 669 275 732 390 707 325 l 761 183 l 710 132 l 618 222 b 415 150 560 174 482 150 "},"¥":{"ha":833,"x_min":0,"x_max":0,"o":"m 664 200 l 456 200 l 456 0 l 378 0 l 378 200 l 174 200 l 174 261 l 378 261 l 378 392 l 174 392 l 174 454 l 343 454 l 17 972 l 103 972 l 417 464 l 739 972 l 818 972 l 493 454 l 664 454 l 664 392 l 456 392 l 456 261 l 664 261 "},"¦":{"ha":481,"x_min":0,"x_max":0,"o":"m 275 1090 l 275 556 l 206 556 l 206 1090 m 275 342 l 275 -193 l 206 -193 l 206 342 "},"§":{"ha":833,"x_min":0,"x_max":0,"o":"m 703 422 b 531 228 703 325 636 258 b 653 65 613 186 653 135 b 408 -125 653 -51 553 -125 b 147 40 276 -125 175 -53 l 231 40 b 410 -65 247 -17 317 -65 b 579 61 517 -65 579 -10 b 400 214 579 139 518 178 b 131 444 194 275 131 343 b 301 638 131 540 194 607 b 182 801 222 678 182 732 b 428 993 182 911 272 993 b 681 828 556 993 654 924 l 600 828 b 426 933 581 889 515 933 b 256 807 315 933 256 875 b 435 654 256 728 315 689 b 703 422 639 593 703 526 m 203 450 b 424 272 203 365 256 326 b 469 257 435 269 460 261 b 631 415 556 281 631 328 b 389 600 631 501 579 543 b 361 610 385 601 365 607 b 203 450 267 583 203 538 "},"¨":{"ha":522,"x_min":0,"x_max":0,"o":"m 71 903 l 71 1000 l 158 1000 l 158 903 m 356 903 l 356 1000 l 443 1000 l 443 903 "},"©":{"ha":1188,"x_min":0,"x_max":0,"o":"m 1104 501 b 593 -21 1104 136 842 -21 b 82 501 344 -21 82 136 b 593 1021 82 864 344 1021 b 1104 501 842 1021 1104 864 m 1039 501 b 593 964 1039 821 817 964 b 149 501 371 964 149 821 b 593 36 149 181 371 36 b 1039 501 817 36 1039 181 m 824 393 b 593 214 806 292 721 214 b 344 500 468 214 344 301 b 594 796 344 704 465 796 b 821 625 713 796 801 731 l 751 625 b 596 740 738 697 678 740 b 411 500 496 740 411 665 b 594 269 411 335 503 269 b 757 393 685 269 743 324 "},"ª":{"ha":636,"x_min":0,"x_max":0,"o":"m 115 869 b 321 1019 128 954 211 1019 b 522 839 440 1019 522 953 l 522 425 l 472 425 l 460 510 b 282 413 431 457 369 413 b 99 582 185 413 99 469 b 456 788 99 749 282 758 l 456 838 b 317 965 456 917 411 965 b 181 869 240 965 192 921 m 456 731 l 326 710 b 168 585 233 694 168 663 b 297 469 168 511 218 469 b 456 624 383 469 456 544 m 546 0 l 89 0 l 89 68 l 546 68 "},"«":{"ha":658,"x_min":0,"x_max":0,"o":"m 88 438 l 256 722 l 313 722 l 176 435 l 299 125 l 242 125 m 346 438 l 514 722 l 571 722 l 435 435 l 557 125 l 500 125 "},"¬":{"ha":833,"x_min":0,"x_max":0,"o":"m 699 481 l 699 165 l 625 165 l 625 413 l 135 413 l 135 481 "},"­":{"ha":750,"x_min":0,"x_max":0,"o":"m 625 413 l 125 413 l 125 481 l 625 481 "},"®":{"ha":865,"x_min":0,"x_max":0,"o":"m 432 353 b 101 685 282 353 101 453 b 432 1015 101 917 282 1015 b 763 685 583 1015 763 917 b 432 353 763 453 583 353 m 432 400 b 710 685 571 400 710 493 b 432 969 710 876 571 969 b 156 685 294 969 156 876 b 432 400 156 493 294 400 m 521 508 l 440 649 l 375 649 l 375 508 l 328 508 l 328 865 l 435 865 b 560 761 504 865 560 833 b 486 658 560 717 539 676 l 575 508 m 375 828 l 375 688 l 438 688 b 511 761 486 688 511 724 b 433 828 511 797 489 828 "},"¯":{"ha":419,"x_min":0,"x_max":0,"o":"m 42 907 l 42 972 l 378 972 l 378 907 "},"°":{"ha":833,"x_min":0,"x_max":0,"o":"m 167 767 b 318 603 167 664 232 603 b 468 767 404 603 468 664 b 318 931 468 869 404 931 b 167 767 232 931 167 869 m 539 767 b 318 544 539 622 432 544 b 97 767 203 544 97 622 b 318 989 97 911 203 989 b 539 767 432 989 539 911 "},"±":{"ha":833,"x_min":0,"x_max":0,"o":"m 453 729 l 453 481 l 699 481 l 699 413 l 453 413 l 453 192 l 379 192 l 379 413 l 135 413 l 135 481 l 379 481 l 379 729 m 699 0 l 135 0 l 135 68 l 699 68 "},"²":{"ha":472,"x_min":0,"x_max":0,"o":"m 64 985 b 240 1125 78 1064 146 1125 b 407 969 339 1125 407 1058 b 301 781 407 894 361 840 l 161 640 l 400 640 l 400 583 l 82 583 l 82 640 l 264 825 b 342 971 300 861 342 906 b 239 1072 342 1014 318 1072 b 129 985 179 1072 142 1036 "},"³":{"ha":472,"x_min":0,"x_max":0,"o":"m 64 1000 b 238 1125 81 1082 154 1125 b 392 983 325 1125 392 1069 b 297 865 392 928 358 883 b 413 729 350 854 413 819 b 235 575 413 642 339 575 b 61 703 146 575 72 633 l 129 703 b 233 628 140 658 189 628 b 346 732 307 628 346 675 b 229 836 346 804 290 836 l 197 836 l 197 886 l 233 886 b 328 982 283 886 328 928 b 235 1072 328 1038 292 1072 b 129 1000 179 1072 142 1046 "},"´":{"ha":329,"x_min":0,"x_max":0,"o":"m 185 1021 l 288 1021 l 111 831 l 42 831 "},"µ":{"ha":768,"x_min":0,"x_max":0,"o":"m 182 722 l 182 233 b 371 42 182 97 265 42 b 586 276 496 42 586 144 l 586 722 l 661 722 l 661 0 l 599 0 l 590 113 b 357 -21 539 19 443 -21 b 182 49 286 -21 222 1 l 182 -250 l 107 -250 l 107 722 "},"¶":{"ha":785,"x_min":0,"x_max":0,"o":"m 308 -250 l 308 540 b 94 769 239 540 94 594 b 308 1000 94 943 239 1000 l 378 1000 l 378 -250 m 646 1000 l 646 -250 l 576 -250 l 576 1000 "},"·":{"ha":396,"x_min":0,"x_max":0,"o":"m 147 389 l 147 500 l 249 500 l 249 389 "},"¸":{"ha":375,"x_min":0,"x_max":0,"o":"m 333 -197 b 176 -335 333 -275 267 -335 b 19 -214 88 -335 31 -293 l 82 -214 b 176 -282 88 -256 121 -282 b 271 -199 233 -282 271 -247 b 121 -112 271 -146 231 -112 l 132 22 l 186 22 l 186 -68 b 333 -197 283 -81 333 -128 "},"¹":{"ha":472,"x_min":0,"x_max":0,"o":"m 100 583 l 100 640 l 226 640 l 226 1047 l 81 963 l 81 1028 l 221 1111 l 290 1111 l 290 640 l 394 640 l 394 583 "},"º":{"ha":582,"x_min":0,"x_max":0,"o":"m 126 717 b 292 469 126 535 204 469 b 454 717 379 469 454 535 b 292 965 454 899 379 965 b 126 717 204 965 126 897 m 57 717 b 292 1021 57 932 160 1021 b 524 717 424 1021 524 935 b 293 414 524 499 421 414 b 57 717 164 414 57 500 m 506 0 l 61 0 l 61 68 l 506 68 "},"»":{"ha":658,"x_min":0,"x_max":0,"o":"m 417 125 l 360 125 l 482 435 l 346 722 l 403 722 l 571 438 m 160 125 l 101 125 l 224 435 l 88 722 l 146 722 l 313 438 "},"¼":{"ha":1222,"x_min":0,"x_max":0,"o":"m 336 -125 l 260 -125 l 919 1097 l 997 1097 m 136 444 l 136 501 l 263 501 l 263 908 l 117 824 l 117 889 l 257 972 l 326 972 l 326 501 l 431 501 l 431 444 m 1018 333 l 1018 172 l 1104 172 l 1104 117 l 1018 117 l 1018 0 l 956 0 l 956 117 l 750 117 l 750 175 l 867 528 l 932 528 l 814 172 l 956 172 l 956 201 l 965 333 "},"½":{"ha":1222,"x_min":0,"x_max":0,"o":"m 326 -125 l 250 -125 l 910 1097 l 988 1097 m 126 444 l 126 501 l 253 501 l 253 908 l 107 824 l 107 889 l 247 972 l 317 972 l 317 501 l 421 501 l 421 444 m 771 401 b 947 542 785 481 853 542 b 1114 386 1046 542 1114 475 b 1008 197 1114 311 1068 257 l 868 57 l 1107 57 l 1107 0 l 789 0 l 789 57 l 971 242 b 1049 388 1007 278 1049 322 b 946 489 1049 431 1025 489 b 836 401 886 489 849 453 "},"¾":{"ha":1222,"x_min":0,"x_max":0,"o":"m 339 -125 l 263 -125 l 922 1097 l 1000 1097 m 1021 333 l 1021 172 l 1107 172 l 1107 117 l 1021 117 l 1021 0 l 958 0 l 958 117 l 753 117 l 753 175 l 869 528 l 935 528 l 817 172 l 958 172 l 958 201 l 968 333 m 117 868 b 290 993 133 950 207 993 b 444 851 378 993 444 938 b 350 733 444 796 411 751 b 465 597 403 722 465 688 b 288 443 465 510 392 443 b 114 571 199 443 125 501 l 182 571 b 286 496 193 526 242 496 b 399 600 360 496 399 543 b 282 704 399 672 343 704 l 250 704 l 250 754 l 286 754 b 381 850 336 754 381 796 b 288 940 381 906 344 940 b 182 868 232 940 194 914 "},"¿":{"ha":722,"x_min":0,"x_max":0,"o":"m 646 -29 b 339 -271 621 -171 510 -271 b 56 -42 169 -271 56 -168 b 210 221 56 40 89 106 l 271 279 b 324 468 318 324 322 369 l 399 468 b 278 181 399 314 379 268 b 133 -42 175 92 133 40 b 342 -206 133 -131 214 -206 b 565 -29 461 -206 546 -135 m 411 750 l 411 639 l 311 639 l 311 750 "},"À":{"ha":918,"x_min":0,"x_max":0,"o":"m 822 0 l 710 283 l 204 283 l 92 0 l 10 0 l 411 1000 l 508 1000 l 908 0 m 231 349 l 685 349 l 460 925 m 535 1067 l 465 1067 l 289 1257 l 392 1257 "},"Á":{"ha":918,"x_min":0,"x_max":0,"o":"m 822 0 l 710 283 l 204 283 l 92 0 l 10 0 l 411 1000 l 508 1000 l 908 0 m 231 349 l 685 349 l 460 925 m 518 1257 l 621 1257 l 444 1067 l 375 1067 "},"Â":{"ha":918,"x_min":0,"x_max":0,"o":"m 822 0 l 710 283 l 204 283 l 92 0 l 10 0 l 411 1000 l 508 1000 l 908 0 m 231 349 l 685 349 l 460 925 m 653 1067 l 579 1067 l 458 1211 l 340 1067 l 265 1067 l 417 1257 l 503 1257 "},"Ã":{"ha":918,"x_min":0,"x_max":0,"o":"m 822 0 l 710 283 l 204 283 l 92 0 l 10 0 l 411 1000 l 508 1000 l 908 0 m 231 349 l 685 349 l 460 925 m 533 1106 b 381 1153 456 1106 443 1153 b 274 1106 346 1153 314 1138 l 274 1175 b 382 1217 313 1203 342 1217 b 536 1169 461 1217 475 1169 b 642 1217 571 1169 601 1185 l 642 1149 b 533 1106 603 1119 575 1106 "},"Ä":{"ha":918,"x_min":0,"x_max":0,"o":"m 822 0 l 710 283 l 204 283 l 92 0 l 10 0 l 411 1000 l 508 1000 l 908 0 m 231 349 l 685 349 l 460 925 m 272 1139 l 272 1236 l 360 1236 l 360 1139 m 557 1139 l 557 1236 l 644 1236 l 644 1139 "},"Å":{"ha":918,"x_min":0,"x_max":0,"o":"m 624 1122 b 519 971 624 1050 583 993 l 908 0 l 822 0 l 710 283 l 204 283 l 92 0 l 10 0 l 399 969 b 290 1122 332 989 290 1047 b 457 1283 290 1215 356 1283 b 624 1122 557 1283 624 1215 m 231 349 l 685 349 l 460 925 m 350 1122 b 457 1010 350 1050 394 1010 b 564 1122 518 1010 564 1050 b 457 1233 564 1193 518 1233 b 350 1122 394 1233 350 1193 "},"Æ":{"ha":1299,"x_min":0,"x_max":0,"o":"m 1179 475 l 733 475 l 733 67 l 1219 67 l 1219 0 l 656 0 l 656 282 l 254 282 l 83 0 l 0 0 l 608 1000 l 1219 1000 l 1219 932 l 733 932 l 733 542 l 1179 542 m 656 349 l 656 939 l 296 349 "},"Ç":{"ha":999,"x_min":0,"x_max":0,"o":"m 700 -197 b 540 -335 700 -275 633 -335 b 376 -214 456 -335 389 -293 l 440 -214 b 542 -282 446 -256 486 -282 b 638 -199 599 -282 638 -247 b 486 -112 638 -146 596 -112 l 494 -19 b 72 492 242 -6 72 188 b 524 1021 72 835 268 1021 b 933 699 740 1021 904 899 l 856 699 b 524 953 824 865 697 953 b 153 492 313 953 153 792 b 525 47 153 214 311 47 b 854 332 704 47 833 156 l 932 332 b 553 -19 911 144 769 -7 l 553 -68 b 700 -197 649 -81 700 -128 "},"È":{"ha":785,"x_min":0,"x_max":0,"o":"m 665 475 l 192 475 l 192 68 l 706 68 l 706 0 l 114 0 l 114 1000 l 706 1000 l 706 932 l 192 932 l 192 542 l 665 542 m 504 1067 l 435 1067 l 258 1257 l 361 1257 "},"É":{"ha":785,"x_min":0,"x_max":0,"o":"m 665 475 l 192 475 l 192 68 l 706 68 l 706 0 l 114 0 l 114 1000 l 706 1000 l 706 932 l 192 932 l 192 542 l 665 542 m 463 1257 l 565 1257 l 389 1067 l 319 1067 "},"Ê":{"ha":785,"x_min":0,"x_max":0,"o":"m 665 475 l 192 475 l 192 68 l 706 68 l 706 0 l 114 0 l 114 1000 l 706 1000 l 706 932 l 192 932 l 192 542 l 665 542 m 604 1067 l 531 1067 l 410 1211 l 292 1067 l 217 1067 l 368 1257 l 454 1257 "},"Ë":{"ha":785,"x_min":0,"x_max":0,"o":"m 665 475 l 192 475 l 192 68 l 706 68 l 706 0 l 114 0 l 114 1000 l 706 1000 l 706 932 l 192 932 l 192 542 l 665 542 m 215 1139 l 215 1236 l 303 1236 l 303 1139 m 500 1139 l 500 1236 l 588 1236 l 588 1139 "},"Ì":{"ha":306,"x_min":0,"x_max":0,"o":"m 192 1000 l 192 0 l 114 0 l 114 1000 m 232 1067 l 163 1067 l -14 1257 l 89 1257 "},"Í":{"ha":306,"x_min":0,"x_max":0,"o":"m 192 1000 l 192 0 l 114 0 l 114 1000 m 217 1257 l 319 1257 l 143 1067 l 74 1067 "},"Î":{"ha":306,"x_min":0,"x_max":0,"o":"m 192 1000 l 192 0 l 114 0 l 114 1000 m 347 1067 l 274 1067 l 153 1211 l 35 1067 l -40 1067 l 111 1257 l 197 1257 "},"Ï":{"ha":306,"x_min":0,"x_max":0,"o":"m 192 1000 l 192 0 l 114 0 l 114 1000 m -33 1139 l -33 1236 l 54 1236 l 54 1139 m 251 1139 l 251 1236 l 339 1236 l 339 1139 "},"Ð":{"ha":950,"x_min":0,"x_max":0,"o":"m 114 490 l 35 490 l 35 558 l 114 558 l 114 1000 l 396 1000 b 878 500 679 1000 878 825 b 392 0 878 182 669 0 l 114 0 m 508 490 l 192 490 l 192 67 l 400 67 b 797 500 633 67 797 218 b 397 933 797 785 631 933 l 192 933 l 192 558 l 508 558 "},"Ñ":{"ha":989,"x_min":0,"x_max":0,"o":"m 875 1000 l 875 0 l 783 0 l 188 900 l 188 0 l 114 0 l 114 1000 l 210 1000 l 804 106 l 804 1000 m 585 1106 b 432 1153 507 1106 494 1153 b 325 1106 397 1153 365 1138 l 325 1175 b 433 1217 364 1203 393 1217 b 588 1169 513 1217 526 1169 b 693 1217 622 1169 653 1185 l 693 1149 b 585 1106 654 1119 626 1106 "},"Ò":{"ha":1046,"x_min":0,"x_max":0,"o":"m 522 -21 b 72 499 268 -21 72 167 b 524 1021 72 835 274 1021 b 974 499 772 1021 974 838 b 522 -21 974 161 775 -21 m 522 46 b 893 499 725 46 893 192 b 522 954 893 794 735 954 b 153 499 311 954 153 794 b 522 46 153 196 321 46 m 589 1067 l 519 1067 l 343 1257 l 446 1257 "},"Ó":{"ha":1046,"x_min":0,"x_max":0,"o":"m 522 -21 b 72 499 268 -21 72 167 b 524 1021 72 835 274 1021 b 974 499 772 1021 974 838 b 522 -21 974 161 775 -21 m 522 46 b 893 499 725 46 893 192 b 522 954 893 794 735 954 b 153 499 311 954 153 794 b 522 46 153 196 321 46 m 590 1257 l 693 1257 l 517 1067 l 447 1067 "},"Ô":{"ha":1046,"x_min":0,"x_max":0,"o":"m 522 -21 b 72 499 268 -21 72 167 b 524 1021 72 835 274 1021 b 974 499 772 1021 974 838 b 522 -21 974 161 775 -21 m 522 46 b 893 499 725 46 893 192 b 522 954 893 794 735 954 b 153 499 311 954 153 794 b 522 46 153 196 321 46 m 713 1067 l 639 1067 l 518 1211 l 400 1067 l 325 1067 l 476 1257 l 563 1257 "},"Õ":{"ha":1046,"x_min":0,"x_max":0,"o":"m 522 -21 b 72 499 268 -21 72 167 b 524 1021 72 835 274 1021 b 974 499 772 1021 974 838 b 522 -21 974 161 775 -21 m 522 46 b 893 499 725 46 893 192 b 522 954 893 794 735 954 b 153 499 311 954 153 794 b 522 46 153 196 321 46 m 597 1106 b 444 1153 519 1106 507 1153 b 338 1106 410 1153 378 1138 l 338 1175 b 446 1217 376 1203 406 1217 b 600 1169 525 1217 539 1169 b 706 1217 635 1169 665 1185 l 706 1149 b 597 1106 667 1119 639 1106 "},"Ö":{"ha":1046,"x_min":0,"x_max":0,"o":"m 522 -21 b 72 499 268 -21 72 167 b 524 1021 72 835 274 1021 b 974 499 772 1021 974 838 b 522 -21 974 161 775 -21 m 522 46 b 893 499 725 46 893 192 b 522 954 893 794 735 954 b 153 499 311 954 153 794 b 522 46 153 196 321 46 m 331 1139 l 331 1236 l 418 1236 l 418 1139 m 615 1139 l 615 1236 l 703 1236 l 703 1139 "},"×":{"ha":833,"x_min":0,"x_max":0,"o":"m 240 669 l 415 494 l 592 669 l 640 622 l 464 447 l 640 272 l 592 224 l 415 399 l 240 224 l 192 272 l 367 447 l 192 621 "},"Ø":{"ha":1046,"x_min":0,"x_max":0,"o":"m 522 -21 b 376 3 472 -21 424 -12 l 321 -153 l 250 -153 l 315 28 b 72 499 172 101 72 257 b 522 1021 72 847 286 1021 b 672 996 574 1021 625 1013 l 725 1139 l 796 1139 l 735 969 b 974 499 874 896 974 738 b 522 -21 974 147 761 -21 m 522 46 b 893 499 725 46 893 192 b 707 904 893 700 821 838 l 399 67 b 522 46 439 53 479 46 m 153 499 b 342 93 153 293 229 158 l 649 932 b 522 954 610 946 568 954 b 153 499 311 954 153 794 "},"Ù":{"ha":975,"x_min":0,"x_max":0,"o":"m 488 -21 b 107 328 246 -21 107 133 l 107 1000 l 183 1000 l 183 324 b 488 46 183 160 310 46 b 792 324 665 46 792 161 l 792 1000 l 868 1000 l 868 328 b 488 -21 868 132 724 -21 m 574 1067 l 504 1067 l 328 1257 l 431 1257 "},"Ú":{"ha":975,"x_min":0,"x_max":0,"o":"m 488 -21 b 107 328 246 -21 107 133 l 107 1000 l 183 1000 l 183 324 b 488 46 183 160 310 46 b 792 324 665 46 792 161 l 792 1000 l 868 1000 l 868 328 b 488 -21 868 132 724 -21 m 544 1257 l 647 1257 l 471 1067 l 401 1067 "},"Û":{"ha":975,"x_min":0,"x_max":0,"o":"m 488 -21 b 107 328 246 -21 107 133 l 107 1000 l 183 1000 l 183 324 b 488 46 183 160 310 46 b 792 324 665 46 792 161 l 792 1000 l 868 1000 l 868 328 b 488 -21 868 132 724 -21 m 681 1067 l 607 1067 l 486 1211 l 368 1067 l 293 1067 l 444 1257 l 531 1257 "},"Ü":{"ha":975,"x_min":0,"x_max":0,"o":"m 488 -21 b 107 328 246 -21 107 133 l 107 1000 l 183 1000 l 183 324 b 488 46 183 160 310 46 b 792 324 665 46 792 161 l 792 1000 l 868 1000 l 868 328 b 488 -21 868 132 724 -21 m 300 1139 l 300 1236 l 388 1236 l 388 1139 m 585 1139 l 585 1236 l 672 1236 l 672 1139 "},"Ý":{"ha":865,"x_min":0,"x_max":0,"o":"m 94 1000 l 431 464 b 774 1000 546 642 660 821 l 854 1000 l 471 392 l 471 0 l 392 0 l 392 393 l 10 1000 m 501 1257 l 604 1257 l 428 1067 l 358 1067 "},"Þ":{"ha":864,"x_min":0,"x_max":0,"o":"m 804 506 b 446 197 804 311 654 197 l 192 197 l 192 0 l 114 0 l 114 1000 l 192 1000 l 192 822 l 447 822 b 804 506 669 822 804 707 m 192 756 l 192 265 l 447 265 b 722 506 619 265 722 356 b 451 756 722 663 625 756 "},"ß":{"ha":781,"x_min":0,"x_max":0,"o":"m 501 -21 b 260 135 371 -21 289 43 l 343 135 b 504 42 365 75 422 42 b 665 200 599 42 665 104 b 526 385 665 281 629 331 b 383 561 414 444 383 483 b 526 814 383 671 526 696 b 358 957 526 906 457 957 b 182 754 261 957 182 901 l 182 0 l 107 0 l 107 751 b 358 1021 107 914 193 1021 b 600 818 488 1021 600 957 b 454 563 600 679 454 643 b 564 440 454 517 478 485 b 743 206 694 374 743 299 b 501 -21 743 86 653 -21 "},"à":{"ha":735,"x_min":0,"x_max":0,"o":"m 86 535 b 367 743 97 658 207 743 b 635 506 528 743 635 653 l 635 0 l 574 0 l 563 119 b 307 -21 518 44 436 -21 b 65 183 167 -21 65 56 b 343 415 65 307 140 382 l 560 451 l 560 514 b 363 682 560 618 486 682 b 164 535 247 682 174 622 m 326 43 b 560 257 442 43 560 131 l 560 392 l 365 358 b 143 189 193 329 143 275 b 326 43 143 92 218 43 m 425 831 l 356 831 l 179 1021 l 282 1021 "},"á":{"ha":735,"x_min":0,"x_max":0,"o":"m 86 535 b 367 743 97 658 207 743 b 635 506 528 743 635 653 l 635 0 l 574 0 l 563 119 b 307 -21 518 44 436 -21 b 65 183 167 -21 65 56 b 343 415 65 307 140 382 l 560 451 l 560 514 b 363 682 560 618 486 682 b 164 535 247 682 174 622 m 326 43 b 560 257 442 43 560 131 l 560 392 l 365 358 b 143 189 193 329 143 275 b 326 43 143 92 218 43 m 456 1021 l 558 1021 l 382 831 l 313 831 "},"â":{"ha":735,"x_min":0,"x_max":0,"o":"m 86 535 b 367 743 97 658 207 743 b 635 506 528 743 635 653 l 635 0 l 574 0 l 563 119 b 307 -21 518 44 436 -21 b 65 183 167 -21 65 56 b 343 415 65 307 140 382 l 560 451 l 560 514 b 363 682 560 618 486 682 b 164 535 247 682 174 622 m 326 43 b 560 257 442 43 560 131 l 560 392 l 365 358 b 143 189 193 329 143 275 b 326 43 143 92 218 43 m 563 831 l 489 831 l 368 975 l 250 831 l 175 831 l 326 1021 l 413 1021 "},"ã":{"ha":735,"x_min":0,"x_max":0,"o":"m 86 535 b 367 743 97 658 207 743 b 635 506 528 743 635 653 l 635 0 l 574 0 l 563 119 b 307 -21 518 44 436 -21 b 65 183 167 -21 65 56 b 343 415 65 307 140 382 l 560 451 l 560 514 b 363 682 560 618 486 682 b 164 535 247 682 174 622 m 326 43 b 560 257 442 43 560 131 l 560 392 l 365 358 b 143 189 193 329 143 275 b 326 43 143 92 218 43 m 442 869 b 289 917 364 869 351 917 b 182 869 254 917 222 901 l 182 939 b 290 981 221 967 250 981 b 444 933 369 981 383 933 b 550 981 479 933 510 949 l 550 913 b 442 869 511 883 483 869 "},"ä":{"ha":735,"x_min":0,"x_max":0,"o":"m 86 535 b 367 743 97 658 207 743 b 635 506 528 743 635 653 l 635 0 l 574 0 l 563 119 b 307 -21 518 44 436 -21 b 65 183 167 -21 65 56 b 343 415 65 307 140 382 l 560 451 l 560 514 b 363 682 560 618 486 682 b 164 535 247 682 174 622 m 326 43 b 560 257 442 43 560 131 l 560 392 l 365 358 b 143 189 193 329 143 275 b 326 43 143 92 218 43 m 179 903 l 179 1000 l 267 1000 l 267 903 m 464 903 l 464 1000 l 551 1000 l 551 903 "},"å":{"ha":735,"x_min":0,"x_max":0,"o":"m 86 535 b 367 743 97 658 207 743 b 635 506 528 743 635 653 l 635 0 l 574 0 l 563 119 b 307 -21 518 44 436 -21 b 65 183 167 -21 65 56 b 343 415 65 307 140 382 l 560 451 l 560 514 b 363 682 560 618 486 682 b 164 535 247 682 174 622 m 326 43 b 560 257 442 43 560 131 l 560 392 l 365 358 b 143 189 193 329 143 275 b 326 43 143 92 218 43 m 257 972 b 364 860 257 901 301 860 b 471 972 425 860 471 901 b 364 1083 471 1043 425 1083 b 257 972 301 1083 257 1043 m 531 972 b 364 810 531 879 464 810 b 197 972 264 810 197 879 b 364 1133 197 1065 264 1133 b 531 972 464 1133 531 1065 "},"æ":{"ha":1288,"x_min":0,"x_max":0,"o":"m 1201 201 b 900 -21 1165 64 1046 -21 b 597 172 782 -21 657 38 b 311 -21 564 72 472 -21 b 65 181 172 -21 65 50 b 358 400 65 285 119 372 l 560 424 l 560 508 b 363 682 560 611 488 682 b 163 531 256 682 172 622 l 85 531 b 365 743 99 656 208 743 b 614 582 492 743 583 682 b 886 743 678 693 788 743 b 1213 367 1057 743 1208 632 l 633 367 b 901 42 647 133 761 42 b 1121 201 1000 42 1092 100 m 326 42 b 560 246 436 42 553 124 l 560 364 l 376 343 b 143 185 200 322 143 268 b 326 42 143 96 213 42 m 886 682 b 638 428 764 682 660 593 l 1135 428 b 886 682 1119 585 1024 682 "},"ç":{"ha":750,"x_min":0,"x_max":0,"o":"m 556 -197 b 399 -335 556 -275 489 -335 b 231 -214 310 -335 243 -293 l 294 -214 b 397 -282 300 -256 342 -282 b 493 -199 456 -282 493 -247 b 342 -112 493 -146 451 -112 l 350 -18 b 65 356 188 -1 65 125 b 388 743 65 611 208 743 b 681 522 542 743 657 657 l 599 522 b 390 681 581 618 500 681 b 143 353 251 681 143 575 b 389 43 143 140 256 43 b 606 213 501 43 588 111 l 685 213 b 408 -19 663 83 557 -11 l 408 -68 b 556 -197 506 -81 556 -128 "},"è":{"ha":793,"x_min":0,"x_max":0,"o":"m 708 197 b 408 -21 674 65 563 -21 b 65 361 213 -21 65 114 b 394 743 65 608 208 743 b 721 343 579 743 721 618 l 142 343 b 410 43 149 138 265 43 b 629 197 518 43 601 101 m 394 682 b 143 406 263 682 157 586 l 643 406 b 394 682 633 590 529 682 m 453 831 l 383 831 l 207 1021 l 310 1021 "},"é":{"ha":793,"x_min":0,"x_max":0,"o":"m 708 197 b 408 -21 674 65 563 -21 b 65 361 213 -21 65 114 b 394 743 65 608 208 743 b 721 343 579 743 721 618 l 142 343 b 410 43 149 138 265 43 b 629 197 518 43 601 101 m 394 682 b 143 406 263 682 157 586 l 643 406 b 394 682 633 590 529 682 m 483 1021 l 586 1021 l 410 831 l 340 831 "},"ê":{"ha":793,"x_min":0,"x_max":0,"o":"m 708 197 b 408 -21 674 65 563 -21 b 65 361 213 -21 65 114 b 394 743 65 608 208 743 b 721 343 579 743 721 618 l 142 343 b 410 43 149 138 265 43 b 629 197 518 43 601 101 m 394 682 b 143 406 263 682 157 586 l 643 406 b 394 682 633 590 529 682 m 585 831 l 511 831 l 390 975 l 272 831 l 197 831 l 349 1021 l 435 1021 "},"ë":{"ha":793,"x_min":0,"x_max":0,"o":"m 708 197 b 408 -21 674 65 563 -21 b 65 361 213 -21 65 114 b 394 743 65 608 208 743 b 721 343 579 743 721 618 l 142 343 b 410 43 149 138 265 43 b 629 197 518 43 601 101 m 394 682 b 143 406 263 682 157 586 l 643 406 b 394 682 633 590 529 682 m 206 903 l 206 1000 l 293 1000 l 293 903 m 490 903 l 490 1000 l 578 1000 l 578 903 "},"ì":{"ha":289,"x_min":0,"x_max":0,"o":"m 224 831 l 154 831 l -22 1021 l 81 1021 m 107 0 l 107 722 l 182 722 l 182 0 "},"í":{"ha":289,"x_min":0,"x_max":0,"o":"m 215 1021 l 318 1021 l 142 831 l 72 831 m 107 0 l 107 722 l 182 722 l 182 0 "},"î":{"ha":289,"x_min":0,"x_max":0,"o":"m 107 0 l 107 722 l 182 722 l 182 0 m 342 831 l 268 831 l 147 975 l 29 831 l -46 831 l 106 1021 l 192 1021 "},"ï":{"ha":289,"x_min":0,"x_max":0,"o":"m -39 903 l -39 1000 l 49 1000 l 49 903 m 246 903 l 246 1000 l 333 1000 l 333 903 m 107 0 l 107 722 l 182 722 l 182 0 "},"ð":{"ha":763,"x_min":0,"x_max":0,"o":"m 203 1018 b 446 928 283 1001 369 975 l 514 1000 l 599 1000 l 497 893 b 696 438 614 803 696 661 b 371 -21 696 168 604 -21 b 65 329 185 -21 65 121 b 360 665 65 519 176 665 b 621 489 499 665 592 581 b 453 847 611 667 544 776 l 382 772 l 297 772 l 400 881 b 193 951 336 918 263 939 m 369 601 b 142 325 243 601 142 518 b 371 44 142 153 235 44 b 617 331 532 44 617 168 b 369 601 617 468 531 601 "},"ñ":{"ha":768,"x_min":0,"x_max":0,"o":"m 107 0 l 107 722 l 169 722 l 178 599 b 418 743 228 693 319 743 b 668 492 571 743 668 649 l 668 0 l 593 0 l 593 489 b 401 679 593 610 522 679 b 182 449 293 679 182 590 l 182 0 m 474 869 b 321 917 396 869 383 917 b 214 869 286 917 254 901 l 214 939 b 322 981 253 967 282 981 b 476 933 401 981 415 933 b 582 981 511 933 542 949 l 582 913 b 474 869 543 883 515 869 "},"ò":{"ha":796,"x_min":0,"x_max":0,"o":"m 65 361 b 399 743 65 615 211 743 b 731 361 590 743 731 614 b 400 -21 731 110 590 -21 b 65 361 211 -21 65 113 m 143 361 b 399 40 143 149 254 40 b 653 361 547 40 653 149 b 399 682 653 575 546 682 b 143 361 251 682 143 574 m 460 831 l 390 831 l 214 1021 l 317 1021 "},"ó":{"ha":796,"x_min":0,"x_max":0,"o":"m 65 361 b 399 743 65 615 211 743 b 731 361 590 743 731 614 b 400 -21 731 110 590 -21 b 65 361 211 -21 65 113 m 143 361 b 399 40 143 149 254 40 b 653 361 547 40 653 149 b 399 682 653 575 546 682 b 143 361 251 682 143 574 m 479 1021 l 582 1021 l 406 831 l 336 831 "},"ô":{"ha":796,"x_min":0,"x_max":0,"o":"m 65 361 b 399 743 65 615 211 743 b 731 361 590 743 731 614 b 400 -21 731 110 590 -21 b 65 361 211 -21 65 113 m 143 361 b 399 40 143 149 254 40 b 653 361 547 40 653 149 b 399 682 653 575 546 682 b 143 361 251 682 143 574 m 589 831 l 515 831 l 394 975 l 276 831 l 201 831 l 353 1021 l 439 1021 "},"õ":{"ha":796,"x_min":0,"x_max":0,"o":"m 65 361 b 399 743 65 615 211 743 b 731 361 590 743 731 614 b 400 -21 731 110 590 -21 b 65 361 211 -21 65 113 m 143 361 b 399 40 143 149 254 40 b 653 361 547 40 653 149 b 399 682 653 575 546 682 b 143 361 251 682 143 574 m 471 869 b 318 917 393 869 381 917 b 211 869 283 917 251 901 l 211 939 b 319 981 250 967 279 981 b 474 933 399 981 413 933 b 579 981 508 933 539 949 l 579 913 b 471 869 540 883 513 869 "},"ö":{"ha":796,"x_min":0,"x_max":0,"o":"m 65 361 b 399 743 65 615 211 743 b 731 361 590 743 731 614 b 400 -21 731 110 590 -21 b 65 361 211 -21 65 113 m 143 361 b 399 40 143 149 254 40 b 653 361 547 40 653 149 b 399 682 653 575 546 682 b 143 361 251 682 143 574 m 211 903 l 211 1000 l 299 1000 l 299 903 m 496 903 l 496 1000 l 583 1000 l 583 903 "},"÷":{"ha":833,"x_min":0,"x_max":0,"o":"m 368 89 l 368 199 l 464 199 l 464 89 m 368 694 l 368 806 l 464 806 l 464 694 m 699 413 l 135 413 l 135 481 l 699 481 "},"ø":{"ha":796,"x_min":0,"x_max":0,"o":"m 65 361 b 399 743 65 615 211 743 b 524 721 444 743 486 736 l 594 875 l 667 875 l 583 692 b 731 361 674 632 731 521 b 400 -21 731 110 590 -21 b 272 3 354 -21 311 -12 l 203 -153 l 131 -153 l 213 32 b 65 361 124 93 65 203 m 143 361 b 244 96 143 235 182 146 l 499 661 b 399 682 468 675 435 682 b 143 361 251 682 143 574 m 653 361 b 553 628 653 488 615 576 l 299 61 b 399 40 329 47 363 40 b 653 361 547 40 653 149 "},"ù":{"ha":761,"x_min":0,"x_max":0,"o":"m 175 722 l 175 233 b 364 43 175 106 249 43 b 579 279 490 43 579 146 l 579 722 l 654 722 l 654 0 l 593 0 l 583 115 b 347 -21 532 22 438 -21 b 100 233 206 -21 100 63 l 100 722 m 446 831 l 376 831 l 200 1021 l 303 1021 "},"ú":{"ha":761,"x_min":0,"x_max":0,"o":"m 175 722 l 175 233 b 364 43 175 106 249 43 b 579 279 490 43 579 146 l 579 722 l 654 722 l 654 0 l 593 0 l 583 115 b 347 -21 532 22 438 -21 b 100 233 206 -21 100 63 l 100 722 m 454 1021 l 557 1021 l 381 831 l 311 831 "},"û":{"ha":761,"x_min":0,"x_max":0,"o":"m 175 722 l 175 233 b 364 43 175 106 249 43 b 579 279 490 43 579 146 l 579 722 l 654 722 l 654 0 l 593 0 l 583 115 b 347 -21 532 22 438 -21 b 100 233 206 -21 100 63 l 100 722 m 571 831 l 497 831 l 376 975 l 258 831 l 183 831 l 335 1021 l 421 1021 "},"ü":{"ha":761,"x_min":0,"x_max":0,"o":"m 175 722 l 175 233 b 364 43 175 106 249 43 b 579 279 490 43 579 146 l 579 722 l 654 722 l 654 0 l 593 0 l 583 115 b 347 -21 532 22 438 -21 b 100 233 206 -21 100 63 l 100 722 m 190 903 l 190 1000 l 278 1000 l 278 903 m 475 903 l 475 1000 l 563 1000 l 563 903 "},"ý":{"ha":690,"x_min":0,"x_max":0,"o":"m 413 -6 b 211 -271 343 -203 315 -271 b 136 -257 186 -271 161 -265 l 136 -196 b 207 -208 160 -204 186 -208 b 340 0 269 -208 288 -157 l 311 0 l 24 722 l 104 722 l 363 58 l 592 722 l 667 722 m 419 1021 l 522 1021 l 346 831 l 276 831 "},"þ":{"ha":806,"x_min":0,"x_max":0,"o":"m 107 -250 l 107 1000 l 182 1000 l 182 588 b 436 743 228 678 315 743 b 740 369 603 743 740 631 b 431 -21 740 111 604 -21 b 182 129 313 -21 228 39 l 182 -250 m 663 371 b 421 679 663 592 553 679 b 176 361 293 679 176 586 b 419 43 176 161 269 43 b 663 371 551 43 663 140 "},"ÿ":{"ha":690,"x_min":0,"x_max":0,"o":"m 413 -6 b 211 -271 343 -203 315 -271 b 136 -257 186 -271 161 -265 l 136 -196 b 207 -208 160 -204 186 -208 b 340 0 269 -208 288 -157 l 311 0 l 24 722 l 104 722 l 363 58 l 592 722 l 667 722 m 163 903 l 163 1000 l 250 1000 l 250 903 m 447 903 l 447 1000 l 535 1000 l 535 903 "},"Ā":{"ha":918,"x_min":0,"x_max":0,"o":"m 822 0 l 710 283 l 204 283 l 92 0 l 10 0 l 411 1000 l 508 1000 l 908 0 m 231 349 l 685 349 l 460 925 m 289 1143 l 289 1208 l 625 1208 l 625 1143 "},"ā":{"ha":735,"x_min":0,"x_max":0,"o":"m 86 535 b 367 743 97 658 207 743 b 635 506 528 743 635 653 l 635 0 l 574 0 l 563 119 b 307 -21 518 44 436 -21 b 65 183 167 -21 65 56 b 343 415 65 307 140 382 l 560 451 l 560 514 b 363 682 560 618 486 682 b 164 535 247 682 174 622 m 326 43 b 560 257 442 43 560 131 l 560 392 l 365 358 b 143 189 193 329 143 275 b 326 43 143 92 218 43 m 193 907 l 193 972 l 529 972 l 529 907 "},"Ă":{"ha":918,"x_min":0,"x_max":0,"o":"m 822 0 l 710 283 l 204 283 l 92 0 l 10 0 l 411 1000 l 508 1000 l 908 0 m 231 349 l 685 349 l 460 925 m 457 1074 b 272 1257 347 1075 282 1144 l 339 1257 b 457 1129 343 1188 376 1129 b 575 1257 538 1129 571 1188 l 642 1257 b 457 1074 632 1144 567 1075 "},"ă":{"ha":735,"x_min":0,"x_max":0,"o":"m 86 535 b 367 743 97 658 207 743 b 635 506 528 743 635 653 l 635 0 l 574 0 l 563 119 b 307 -21 518 44 436 -21 b 65 183 167 -21 65 56 b 343 415 65 307 140 382 l 560 451 l 560 514 b 363 682 560 618 486 682 b 164 535 247 682 174 622 m 326 43 b 560 257 442 43 560 131 l 560 392 l 365 358 b 143 189 193 329 143 275 b 326 43 143 92 218 43 m 360 838 b 175 1021 250 839 185 908 l 242 1021 b 360 893 246 951 279 893 b 478 1021 440 893 474 951 l 544 1021 b 360 838 535 908 469 839 "},"Ą":{"ha":918,"x_min":0,"x_max":0,"o":"m 897 0 b 735 -176 808 -46 735 -103 b 842 -271 735 -232 772 -271 b 935 -212 896 -271 919 -250 l 1003 -212 b 838 -329 978 -290 918 -329 b 668 -182 739 -329 668 -269 b 821 1 668 -106 731 -40 l 710 283 l 204 283 l 92 0 l 10 0 l 411 1000 l 508 1000 l 908 0 m 231 349 l 685 349 l 460 925 "},"ą":{"ha":735,"x_min":0,"x_max":0,"o":"m 85 535 b 365 743 97 658 207 743 b 635 506 528 743 635 651 l 635 0 b 472 -176 544 -44 472 -101 b 578 -269 472 -232 515 -269 b 672 -212 632 -269 657 -250 l 739 -212 b 574 -329 714 -289 656 -329 b 404 -182 475 -329 404 -269 b 572 8 404 -103 475 -32 l 563 119 b 307 -21 518 44 435 -21 b 65 182 167 -21 65 54 b 342 415 65 306 140 382 l 560 451 l 560 514 b 363 682 560 617 486 682 b 163 535 247 682 172 622 m 326 43 b 560 249 436 43 560 132 l 560 390 l 365 358 b 143 189 193 329 143 272 b 326 43 143 92 218 43 "},"Ć":{"ha":999,"x_min":0,"x_max":0,"o":"m 525 47 b 854 332 704 47 833 156 l 932 332 b 524 -21 911 138 757 -21 b 72 492 254 -21 72 178 b 524 1021 72 835 268 1021 b 933 699 740 1021 904 899 l 856 699 b 524 953 824 865 697 953 b 153 492 313 953 153 792 b 525 47 153 214 311 47 m 594 1257 l 697 1257 l 521 1067 l 451 1067 "},"ć":{"ha":750,"x_min":0,"x_max":0,"o":"m 685 213 b 386 -21 663 78 547 -21 b 65 356 207 -21 65 110 b 388 743 65 611 208 743 b 681 522 542 743 657 657 l 599 522 b 390 681 581 618 500 681 b 143 353 251 681 143 575 b 389 43 143 140 256 43 b 606 213 501 43 588 111 m 486 1021 l 589 1021 l 413 831 l 343 831 "},"Ĉ":{"ha":999,"x_min":0,"x_max":0,"o":"m 525 47 b 854 332 704 47 833 156 l 932 332 b 524 -21 911 138 757 -21 b 72 492 254 -21 72 178 b 524 1021 72 835 268 1021 b 933 699 740 1021 904 899 l 856 699 b 524 953 824 865 697 953 b 153 492 313 953 153 792 b 525 47 153 214 311 47 m 693 1067 l 619 1067 l 499 1211 l 381 1067 l 306 1067 l 457 1257 l 543 1257 "},"ĉ":{"ha":750,"x_min":0,"x_max":0,"o":"m 685 213 b 386 -21 663 78 547 -21 b 65 356 207 -21 65 110 b 388 743 65 611 208 743 b 681 522 542 743 657 657 l 599 522 b 390 681 581 618 500 681 b 143 353 251 681 143 575 b 389 43 143 140 256 43 b 606 213 501 43 588 111 m 569 831 l 496 831 l 375 975 l 257 831 l 182 831 l 333 1021 l 419 1021 "},"Ċ":{"ha":999,"x_min":0,"x_max":0,"o":"m 525 47 b 854 332 704 47 833 156 l 932 332 b 524 -21 911 138 757 -21 b 72 492 254 -21 72 178 b 524 1021 72 835 268 1021 b 933 699 740 1021 904 899 l 856 699 b 524 953 824 865 697 953 b 153 492 313 953 153 792 b 525 47 153 214 311 47 m 469 1133 l 469 1236 l 560 1236 l 560 1133 "},"ċ":{"ha":750,"x_min":0,"x_max":0,"o":"m 685 213 b 386 -21 663 78 547 -21 b 65 356 207 -21 65 110 b 388 743 65 611 208 743 b 681 522 542 743 657 657 l 599 522 b 390 681 581 618 500 681 b 143 353 251 681 143 575 b 389 43 143 140 256 43 b 606 213 501 43 588 111 m 336 897 l 336 1000 l 426 1000 l 426 897 "},"Č":{"ha":999,"x_min":0,"x_max":0,"o":"m 525 47 b 854 332 704 47 833 156 l 932 332 b 524 -21 911 138 757 -21 b 72 492 254 -21 72 178 b 524 1021 72 835 268 1021 b 933 699 740 1021 904 899 l 856 699 b 524 953 824 865 697 953 b 153 492 313 953 153 792 b 525 47 153 214 311 47 m 306 1257 l 379 1257 l 499 1113 l 618 1257 l 692 1257 l 542 1067 l 454 1067 "},"č":{"ha":750,"x_min":0,"x_max":0,"o":"m 685 213 b 386 -21 663 78 547 -21 b 65 356 207 -21 65 110 b 388 743 65 611 208 743 b 681 522 542 743 657 657 l 599 522 b 390 681 581 618 500 681 b 143 353 251 681 143 575 b 389 43 143 140 256 43 b 606 213 501 43 588 111 m 185 1021 l 258 1021 l 378 876 l 497 1021 l 571 1021 l 421 831 l 333 831 "},"Ď":{"ha":950,"x_min":0,"x_max":0,"o":"m 396 1000 b 878 500 679 1000 878 825 b 392 0 878 182 671 0 l 114 0 l 114 1000 m 192 935 l 192 67 l 401 67 b 799 500 635 67 799 218 b 399 935 799 786 631 935 m 219 1257 l 293 1257 l 413 1113 l 532 1257 l 606 1257 l 456 1067 l 368 1067 "},"ď":{"ha":886,"x_min":0,"x_max":0,"o":"m 638 0 l 625 138 b 371 -21 579 44 492 -21 b 65 354 204 -21 65 104 b 375 743 65 615 203 743 b 624 594 492 743 579 682 l 624 1000 l 699 1000 l 699 0 m 143 354 b 386 43 143 143 250 43 b 631 361 511 43 631 136 b 386 679 631 572 526 679 b 143 354 251 679 143 576 m 879 908 b 750 742 879 813 826 763 l 750 786 b 817 897 797 804 817 835 l 789 897 l 789 1000 l 879 1000 "},"Đ":{"ha":950,"x_min":0,"x_max":0,"o":"m 114 490 l 35 490 l 35 558 l 114 558 l 114 1000 l 396 1000 b 878 500 679 1000 878 825 b 392 0 878 182 669 0 l 114 0 m 508 490 l 192 490 l 192 67 l 400 67 b 797 500 633 67 797 218 b 397 933 797 785 631 933 l 192 933 l 192 558 l 508 558 "},"đ":{"ha":806,"x_min":0,"x_max":0,"o":"m 638 0 l 625 138 b 371 -21 579 44 492 -21 b 65 354 204 -21 65 104 b 375 743 65 615 203 743 b 624 594 492 743 579 682 l 624 851 l 383 851 l 383 913 l 624 913 l 624 1000 l 699 1000 l 699 913 l 771 913 l 771 851 l 699 851 l 699 0 m 143 354 b 386 43 143 143 250 43 b 631 361 511 43 631 136 b 386 679 631 572 526 679 b 143 354 251 679 143 576 "},"Ē":{"ha":785,"x_min":0,"x_max":0,"o":"m 665 475 l 192 475 l 192 68 l 706 68 l 706 0 l 114 0 l 114 1000 l 706 1000 l 706 932 l 192 932 l 192 542 l 665 542 m 239 1143 l 239 1208 l 575 1208 l 575 1143 "},"ē":{"ha":793,"x_min":0,"x_max":0,"o":"m 708 197 b 408 -21 674 65 563 -21 b 65 361 213 -21 65 114 b 394 743 65 608 208 743 b 721 343 579 743 721 618 l 142 343 b 410 43 149 138 265 43 b 629 197 518 43 601 101 m 394 682 b 143 406 263 682 157 586 l 643 406 b 394 682 633 590 529 682 m 221 907 l 221 972 l 557 972 l 557 907 "},"Ė":{"ha":785,"x_min":0,"x_max":0,"o":"m 665 475 l 192 475 l 192 68 l 706 68 l 706 0 l 114 0 l 114 1000 l 706 1000 l 706 932 l 192 932 l 192 542 l 665 542 m 360 1133 l 360 1236 l 450 1236 l 450 1133 "},"ė":{"ha":793,"x_min":0,"x_max":0,"o":"m 708 197 b 408 -21 674 65 563 -21 b 65 361 213 -21 65 114 b 394 743 65 608 208 743 b 721 343 579 743 721 618 l 142 343 b 410 43 149 138 265 43 b 629 197 518 43 601 101 m 394 682 b 143 406 263 682 157 586 l 643 406 b 394 682 633 590 529 682 m 344 897 l 344 1000 l 435 1000 l 435 897 "},"Ę":{"ha":785,"x_min":0,"x_max":0,"o":"m 665 475 l 192 475 l 192 68 l 706 68 l 706 0 l 557 0 b 392 -181 467 -47 392 -104 b 490 -275 392 -244 431 -275 b 592 -207 544 -275 578 -247 l 657 -207 b 488 -332 633 -286 565 -332 b 328 -190 393 -332 328 -278 b 479 0 328 -115 390 -44 l 114 0 l 114 1000 l 706 1000 l 706 932 l 192 932 l 192 542 l 665 542 "},"ę":{"ha":793,"x_min":0,"x_max":0,"o":"m 628 -207 b 458 -331 604 -286 536 -331 b 299 -189 364 -331 299 -276 b 414 -19 299 -125 344 -64 b 65 361 217 -19 65 108 b 393 743 65 608 208 743 b 721 343 579 743 721 617 l 142 343 b 410 43 149 136 264 43 b 628 196 517 43 601 100 l 708 196 b 536 3 682 100 622 35 b 363 -181 432 -36 363 -112 b 461 -275 363 -243 401 -275 b 563 -207 515 -275 549 -247 m 394 681 b 143 404 263 681 156 586 l 643 404 b 394 681 633 589 529 681 "},"Ě":{"ha":785,"x_min":0,"x_max":0,"o":"m 665 475 l 192 475 l 192 68 l 706 68 l 706 0 l 114 0 l 114 1000 l 706 1000 l 706 932 l 192 932 l 192 542 l 665 542 m 218 1257 l 292 1257 l 411 1113 l 531 1257 l 604 1257 l 454 1067 l 367 1067 "},"ě":{"ha":793,"x_min":0,"x_max":0,"o":"m 708 197 b 408 -21 674 65 563 -21 b 65 361 213 -21 65 114 b 394 743 65 608 208 743 b 721 343 579 743 721 618 l 142 343 b 410 43 149 138 265 43 b 629 197 518 43 601 101 m 394 682 b 143 406 263 682 157 586 l 643 406 b 394 682 633 590 529 682 m 201 1021 l 275 1021 l 394 876 l 514 1021 l 588 1021 l 438 831 l 350 831 "},"Ĝ":{"ha":1015,"x_min":0,"x_max":0,"o":"m 913 0 l 856 0 l 844 164 b 518 -21 785 47 664 -21 b 72 499 272 -21 72 158 b 518 1021 72 840 269 1021 b 915 726 729 1021 878 908 l 838 726 b 518 953 800 875 683 953 b 151 499 325 953 151 807 b 524 46 151 200 328 46 b 843 332 699 46 843 167 l 843 458 l 519 458 l 519 524 l 913 524 m 700 1067 l 626 1067 l 506 1211 l 388 1067 l 313 1067 l 464 1257 l 550 1257 "},"ĝ":{"ha":806,"x_min":0,"x_max":0,"o":"m 176 -67 b 393 -210 194 -165 281 -210 b 624 7 539 -210 624 -125 l 624 164 b 372 25 578 82 492 25 b 65 379 210 25 65 149 b 375 743 65 613 201 743 b 626 596 492 743 581 685 l 638 722 l 699 722 l 699 4 b 396 -271 699 -153 586 -271 b 97 -67 231 -271 122 -197 m 143 379 b 386 89 143 190 251 89 b 631 381 515 89 631 168 b 386 679 631 583 525 679 b 143 379 251 679 143 585 m 589 831 l 515 831 l 394 975 l 276 831 l 201 831 l 353 1021 l 439 1021 "},"Ğ":{"ha":1015,"x_min":0,"x_max":0,"o":"m 913 0 l 856 0 l 844 164 b 518 -21 785 47 664 -21 b 72 499 272 -21 72 158 b 518 1021 72 840 269 1021 b 915 726 729 1021 878 908 l 838 726 b 518 953 800 875 683 953 b 151 499 325 953 151 807 b 524 46 151 200 328 46 b 843 332 699 46 843 167 l 843 458 l 519 458 l 519 524 l 913 524 m 507 1074 b 322 1257 397 1075 332 1144 l 389 1257 b 507 1129 393 1188 426 1129 b 625 1257 588 1129 621 1188 l 692 1257 b 507 1074 682 1144 617 1075 "},"ğ":{"ha":806,"x_min":0,"x_max":0,"o":"m 176 -67 b 393 -210 194 -165 281 -210 b 624 7 539 -210 624 -125 l 624 164 b 372 25 578 82 492 25 b 65 379 210 25 65 149 b 375 743 65 613 201 743 b 626 596 492 743 581 685 l 638 722 l 699 722 l 699 4 b 396 -271 699 -153 586 -271 b 97 -67 231 -271 122 -197 m 143 379 b 386 89 143 190 251 89 b 631 381 515 89 631 168 b 386 679 631 583 525 679 b 143 379 251 679 143 585 m 389 838 b 204 1021 279 839 214 908 l 271 1021 b 389 893 275 951 308 893 b 507 1021 469 893 503 951 l 574 1021 b 389 838 564 908 499 839 "},"Ġ":{"ha":1015,"x_min":0,"x_max":0,"o":"m 913 0 l 856 0 l 844 164 b 518 -21 785 47 664 -21 b 72 499 272 -21 72 158 b 518 1021 72 840 269 1021 b 915 726 729 1021 878 908 l 838 726 b 518 953 800 875 683 953 b 151 499 325 953 151 807 b 524 46 151 200 328 46 b 843 332 699 46 843 167 l 843 458 l 519 458 l 519 524 l 913 524 m 463 1133 l 463 1236 l 553 1236 l 553 1133 "},"ġ":{"ha":806,"x_min":0,"x_max":0,"o":"m 176 -67 b 393 -210 194 -165 281 -210 b 624 7 539 -210 624 -125 l 624 164 b 372 25 578 82 492 25 b 65 379 210 25 65 149 b 375 743 65 613 201 743 b 626 596 492 743 581 685 l 638 722 l 699 722 l 699 4 b 396 -271 699 -153 586 -271 b 97 -67 231 -271 122 -197 m 143 379 b 386 89 143 190 251 89 b 631 381 515 89 631 168 b 386 679 631 583 525 679 b 143 379 251 679 143 585 m 342 897 l 342 1000 l 432 1000 l 432 897 "},"Ģ":{"ha":1015,"x_min":0,"x_max":0,"o":"m 913 0 l 856 0 l 844 164 b 518 -21 785 47 664 -21 b 72 499 272 -21 72 158 b 518 1021 72 840 269 1021 b 915 726 729 1021 878 908 l 838 726 b 518 953 800 875 683 953 b 151 499 325 953 151 807 b 524 46 151 200 328 46 b 843 332 699 46 843 167 l 843 458 l 519 458 l 519 524 l 913 524 m 554 -204 b 429 -378 554 -303 507 -357 l 429 -337 b 499 -215 476 -319 499 -278 l 472 -215 l 472 -112 l 554 -112 "},"ģ":{"ha":806,"x_min":0,"x_max":0,"o":"m 176 -67 b 393 -210 194 -165 281 -210 b 624 7 539 -210 624 -125 l 624 164 b 372 25 578 82 492 25 b 65 379 210 25 65 149 b 375 743 65 613 201 743 b 626 596 492 743 581 685 l 638 722 l 699 722 l 699 4 b 396 -271 699 -153 586 -271 b 97 -67 231 -271 122 -197 m 143 379 b 386 89 143 190 251 89 b 631 381 515 89 631 168 b 386 679 631 583 525 679 b 143 379 251 679 143 585 m 329 926 b 458 1103 329 1026 382 1082 l 458 1058 b 392 938 411 1040 392 1000 l 419 938 l 419 835 l 329 835 "},"Ĥ":{"ha":951,"x_min":0,"x_max":0,"o":"m 838 1000 l 838 0 l 758 0 l 758 475 l 192 475 l 192 0 l 114 0 l 114 1000 l 192 1000 l 192 544 l 758 544 l 758 1000 m 669 1067 l 596 1067 l 475 1211 l 357 1067 l 282 1067 l 433 1257 l 519 1257 "},"ĥ":{"ha":768,"x_min":0,"x_max":0,"o":"m 107 0 l 107 1000 l 182 1000 l 182 603 b 418 743 229 693 321 743 b 668 492 571 743 668 649 l 668 0 l 593 0 l 593 489 b 401 679 593 610 522 679 b 182 446 293 679 182 590 l 182 0 m 508 1067 l 435 1067 l 314 1211 l 196 1067 l 121 1067 l 272 1257 l 358 1257 "},"Ħ":{"ha":960,"x_min":0,"x_max":0,"o":"m 196 1000 l 196 849 l 763 849 l 763 1000 l 842 1000 l 842 849 l 931 849 l 931 786 l 842 786 l 842 0 l 763 0 l 763 475 l 196 475 l 196 0 l 118 0 l 118 786 l 28 786 l 28 849 l 118 849 l 118 1000 m 763 543 l 763 786 l 196 786 l 196 543 "},"ħ":{"ha":768,"x_min":0,"x_max":0,"o":"m 107 0 l 107 851 l 32 851 l 32 913 l 107 913 l 107 1000 l 182 1000 l 182 913 l 419 913 l 419 851 l 182 851 l 182 603 b 418 743 229 693 321 743 b 668 492 571 743 668 649 l 668 0 l 593 0 l 593 489 b 401 679 593 610 522 679 b 182 449 293 679 182 590 l 182 0 "},"Ĩ":{"ha":306,"x_min":0,"x_max":0,"o":"m 192 1000 l 192 0 l 114 0 l 114 1000 m 229 1106 b 76 1153 151 1106 139 1153 b -31 1106 42 1153 10 1138 l -31 1175 b 78 1217 8 1203 38 1217 b 232 1169 157 1217 171 1169 b 338 1217 267 1169 297 1185 l 338 1149 b 229 1106 299 1119 271 1106 "},"ĩ":{"ha":289,"x_min":0,"x_max":0,"o":"m 224 869 b 71 917 146 869 133 917 b -36 869 36 917 4 901 l -36 939 b 72 981 3 967 32 981 b 226 933 151 981 165 933 b 332 981 261 933 292 949 l 332 913 b 224 869 293 883 265 869 m 107 0 l 107 722 l 182 722 l 182 0 "},"Ī":{"ha":306,"x_min":0,"x_max":0,"o":"m 192 1000 l 192 0 l 114 0 l 114 1000 m -15 1143 l -15 1208 l 321 1208 l 321 1143 "},"ī":{"ha":289,"x_min":0,"x_max":0,"o":"m -21 907 l -21 972 l 315 972 l 315 907 m 107 0 l 107 722 l 182 722 l 182 0 "},"Į":{"ha":306,"x_min":0,"x_max":0,"o":"m 283 -207 b 113 -331 260 -286 192 -331 b -44 -189 19 -331 -44 -276 b 114 3 -44 -112 21 -39 l 114 1000 l 192 1000 l 192 0 b 18 -181 99 -39 18 -104 b 117 -275 18 -243 57 -275 b 217 -207 171 -275 204 -247 "},"į":{"ha":289,"x_min":0,"x_max":0,"o":"m 182 0 b 11 -181 92 -44 11 -104 b 110 -275 11 -244 50 -275 b 211 -207 164 -275 197 -247 l 278 -207 b 107 -332 254 -286 185 -332 b -53 -190 13 -332 -53 -278 b 107 4 -53 -114 14 -40 l 107 722 l 182 722 m 100 897 l 100 1000 l 190 1000 l 190 897 "},"İ":{"ha":306,"x_min":0,"x_max":0,"o":"m 192 1000 l 192 0 l 114 0 l 114 1000 m 107 1133 l 107 1236 l 197 1236 l 197 1133 "},"ı":{"ha":289,"x_min":0,"x_max":0,"o":"m 107 0 l 107 722 l 182 722 l 182 0 "},"Ĵ":{"ha":728,"x_min":0,"x_max":0,"o":"m 122 265 b 336 47 129 121 213 47 b 542 279 464 47 542 129 l 542 1000 l 621 1000 l 621 279 b 333 -21 621 96 513 -21 b 44 265 158 -21 51 96 m 768 1067 l 694 1067 l 574 1211 l 456 1067 l 381 1067 l 532 1257 l 618 1257 "},"ĵ":{"ha":289,"x_min":0,"x_max":0,"o":"m -72 -192 b 15 -206 -43 -200 -7 -206 b 107 -93 76 -206 107 -176 l 107 722 l 182 722 l 182 -97 b 26 -271 182 -208 126 -271 b -72 -256 -4 -271 -37 -267 m 339 831 l 265 831 l 144 975 l 26 831 l -49 831 l 103 1021 l 189 1021 "},"Ķ":{"ha":828,"x_min":0,"x_max":0,"o":"m 706 0 l 192 492 l 192 0 l 114 0 l 114 1000 l 192 1000 l 192 535 l 674 1000 l 769 1000 l 271 518 l 811 0 m 451 -204 b 326 -378 451 -303 404 -357 l 326 -337 b 396 -215 374 -319 396 -278 l 369 -215 l 369 -112 l 451 -112 "},"ķ":{"ha":678,"x_min":0,"x_max":0,"o":"m 107 0 l 107 1000 l 182 1000 l 182 428 l 528 722 l 629 722 l 258 407 l 675 0 l 574 0 l 182 382 l 182 0 m 390 -204 b 265 -378 390 -303 343 -357 l 265 -337 b 335 -215 313 -319 335 -278 l 308 -215 l 308 -112 l 390 -112 "},"ĸ":{"ha":678,"x_min":0,"x_max":0,"o":"m 107 0 l 107 722 l 182 722 l 182 394 l 536 722 l 629 722 l 258 381 l 675 0 l 572 0 l 182 353 l 182 0 "},"Ĺ":{"ha":761,"x_min":0,"x_max":0,"o":"m 193 1000 l 193 72 l 703 72 l 703 0 l 114 0 l 114 1000 m 219 1257 l 322 1257 l 146 1067 l 76 1067 "},"ĺ":{"ha":289,"x_min":0,"x_max":0,"o":"m 182 0 l 107 0 l 107 1000 l 182 1000 m 204 1257 l 307 1257 l 131 1067 l 61 1067 "},"Ļ":{"ha":761,"x_min":0,"x_max":0,"o":"m 193 1000 l 193 72 l 703 72 l 703 0 l 114 0 l 114 1000 m 438 -204 b 313 -378 438 -303 390 -357 l 313 -337 b 382 -215 360 -319 382 -278 l 356 -215 l 356 -112 l 438 -112 "},"ļ":{"ha":289,"x_min":0,"x_max":0,"o":"m 182 0 l 107 0 l 107 1000 l 182 1000 m 185 -204 b 60 -378 185 -303 138 -357 l 60 -337 b 129 -215 107 -319 129 -278 l 103 -215 l 103 -112 l 185 -112 "},"Ľ":{"ha":761,"x_min":0,"x_max":0,"o":"m 193 1000 l 193 72 l 703 72 l 703 0 l 114 0 l 114 1000 m 431 908 b 301 742 431 813 378 763 l 301 786 b 368 897 349 804 368 835 l 340 897 l 340 1000 l 431 1000 "},"ľ":{"ha":372,"x_min":0,"x_max":0,"o":"m 182 0 l 107 0 l 107 1000 l 182 1000 m 365 908 b 236 742 365 813 313 763 l 236 786 b 303 897 283 804 303 835 l 275 897 l 275 1000 l 365 1000 "},"Ł":{"ha":761,"x_min":0,"x_max":0,"o":"m 193 1000 l 193 564 l 410 693 l 410 611 l 193 482 l 193 72 l 703 72 l 703 0 l 114 0 l 114 436 l 33 389 l 33 471 l 114 518 l 114 1000 "},"ł":{"ha":297,"x_min":0,"x_max":0,"o":"m 182 590 l 289 658 l 289 579 l 182 511 l 182 0 l 107 0 l 107 465 l 7 401 l 7 481 l 107 543 l 107 1000 l 182 1000 "},"Ń":{"ha":989,"x_min":0,"x_max":0,"o":"m 875 1000 l 875 0 l 783 0 l 188 900 l 188 0 l 114 0 l 114 1000 l 210 1000 l 804 106 l 804 1000 m 567 1257 l 669 1257 l 493 1067 l 424 1067 "},"ń":{"ha":768,"x_min":0,"x_max":0,"o":"m 107 0 l 107 722 l 169 722 l 178 599 b 418 743 228 693 319 743 b 668 492 571 743 668 649 l 668 0 l 593 0 l 593 489 b 401 679 593 610 522 679 b 182 449 293 679 182 590 l 182 0 m 472 1021 l 575 1021 l 399 831 l 329 831 "},"Ņ":{"ha":989,"x_min":0,"x_max":0,"o":"m 875 1000 l 875 0 l 783 0 l 188 900 l 188 0 l 114 0 l 114 1000 l 210 1000 l 804 106 l 804 1000 m 543 -204 b 418 -378 543 -303 496 -357 l 418 -337 b 488 -215 465 -319 488 -278 l 461 -215 l 461 -112 l 543 -112 "},"ņ":{"ha":768,"x_min":0,"x_max":0,"o":"m 107 0 l 107 722 l 169 722 l 178 599 b 418 743 228 693 319 743 b 668 492 571 743 668 649 l 668 0 l 593 0 l 593 489 b 401 679 593 610 522 679 b 182 449 293 679 182 590 l 182 0 m 435 -204 b 310 -378 435 -303 388 -357 l 310 -337 b 379 -215 357 -319 379 -278 l 353 -215 l 353 -112 l 435 -112 "},"Ň":{"ha":989,"x_min":0,"x_max":0,"o":"m 875 1000 l 875 0 l 783 0 l 188 900 l 188 0 l 114 0 l 114 1000 l 210 1000 l 804 106 l 804 1000 m 318 1257 l 392 1257 l 511 1113 l 631 1257 l 704 1257 l 554 1067 l 467 1067 "},"ň":{"ha":768,"x_min":0,"x_max":0,"o":"m 107 0 l 107 722 l 169 722 l 178 599 b 418 743 228 693 319 743 b 668 492 571 743 668 649 l 668 0 l 593 0 l 593 489 b 401 679 593 610 522 679 b 182 449 293 679 182 590 l 182 0 m 203 1021 l 276 1021 l 396 876 l 515 1021 l 589 1021 l 439 831 l 351 831 "},"Ŋ":{"ha":989,"x_min":0,"x_max":0,"o":"m 621 -192 b 710 -206 651 -200 688 -206 b 803 -93 769 -206 803 -178 l 803 0 l 788 0 l 188 900 l 188 0 l 114 0 l 114 1000 l 210 1000 l 803 108 l 803 1000 l 875 1000 l 875 -99 b 707 -271 875 -218 814 -271 b 621 -256 681 -271 650 -265 "},"ŋ":{"ha":768,"x_min":0,"x_max":0,"o":"m 107 0 l 107 722 l 169 722 l 178 599 b 418 743 228 693 319 743 b 668 492 571 743 668 649 l 668 -97 b 514 -271 668 -210 614 -271 b 414 -256 483 -271 449 -267 l 414 -190 b 503 -206 443 -200 481 -206 b 593 -92 561 -206 593 -178 l 593 489 b 401 679 593 610 522 679 b 182 449 293 679 182 592 l 182 0 "},"Ō":{"ha":1046,"x_min":0,"x_max":0,"o":"m 522 -21 b 72 499 268 -21 72 167 b 524 1021 72 835 274 1021 b 974 499 772 1021 974 838 b 522 -21 974 161 775 -21 m 522 46 b 893 499 725 46 893 192 b 522 954 893 794 735 954 b 153 499 311 954 153 794 b 522 46 153 196 321 46 m 350 1143 l 350 1208 l 686 1208 l 686 1143 "},"ō":{"ha":796,"x_min":0,"x_max":0,"o":"m 65 361 b 399 743 65 615 211 743 b 731 361 590 743 731 614 b 400 -21 731 110 590 -21 b 65 361 211 -21 65 113 m 143 361 b 399 40 143 149 254 40 b 653 361 547 40 653 149 b 399 682 653 575 546 682 b 143 361 251 682 143 574 m 229 907 l 229 972 l 565 972 l 565 907 "},"Ő":{"ha":1046,"x_min":0,"x_max":0,"o":"m 522 -21 b 72 499 268 -21 72 167 b 524 1021 72 835 274 1021 b 974 499 772 1021 974 838 b 522 -21 974 161 775 -21 m 522 46 b 893 499 725 46 893 192 b 522 954 893 794 735 954 b 153 499 311 954 153 794 b 522 46 153 196 321 46 m 483 1257 l 576 1257 l 432 1067 l 369 1067 m 704 1257 l 799 1257 l 653 1067 l 590 1067 "},"ő":{"ha":796,"x_min":0,"x_max":0,"o":"m 65 361 b 399 743 65 615 211 743 b 731 361 590 743 731 614 b 400 -21 731 110 590 -21 b 65 361 211 -21 65 113 m 143 361 b 399 40 143 149 254 40 b 653 361 547 40 653 149 b 399 682 653 575 546 682 b 143 361 251 682 143 574 m 367 1021 l 460 1021 l 315 831 l 253 831 m 588 1021 l 682 1021 l 536 831 l 474 831 "},"Œ":{"ha":1314,"x_min":0,"x_max":0,"o":"m 1235 0 l 671 0 b 522 -17 629 -10 579 -17 b 72 501 279 -17 72 154 b 528 1021 72 853 288 1021 b 674 1000 585 1021 631 1013 l 1235 1000 l 1235 932 l 750 932 l 750 542 l 1194 542 l 1194 475 l 750 475 l 750 68 l 1235 68 m 522 50 b 671 72 571 50 626 57 l 671 929 b 528 954 626 946 576 954 b 153 501 313 954 153 794 b 522 50 153 200 315 50 "},"œ":{"ha":1383,"x_min":0,"x_max":0,"o":"m 726 343 b 994 42 735 126 872 42 b 1213 201 1093 42 1183 99 l 1293 201 b 992 -21 1256 57 1139 -21 b 692 183 869 -21 749 50 b 400 -21 638 47 528 -21 b 65 361 221 -21 65 97 b 399 743 65 631 226 743 b 692 542 528 743 639 675 b 978 743 749 676 865 743 b 1306 343 1147 743 1301 642 m 142 361 b 399 39 142 142 258 39 b 653 361 538 39 653 146 b 399 682 653 582 538 682 b 142 361 256 682 142 579 m 979 682 b 728 404 854 682 742 592 l 1228 404 b 979 682 1217 592 1117 682 "},"Ŕ":{"ha":874,"x_min":0,"x_max":0,"o":"m 756 0 l 488 411 l 192 411 l 192 0 l 114 0 l 114 1000 l 456 1000 b 806 700 681 1000 806 889 b 568 424 806 556 703 460 l 850 0 m 192 933 l 192 478 l 456 478 b 724 700 624 478 724 569 b 458 933 724 849 633 933 m 486 1257 l 589 1257 l 413 1067 l 343 1067 "},"ŕ":{"ha":474,"x_min":0,"x_max":0,"o":"m 107 0 l 107 722 l 168 722 l 179 583 b 382 743 218 693 292 743 b 457 732 411 743 440 738 l 457 658 b 378 671 432 665 407 671 b 182 394 272 671 182 568 l 182 0 m 364 1021 l 467 1021 l 290 831 l 221 831 "},"Ŗ":{"ha":874,"x_min":0,"x_max":0,"o":"m 756 0 l 488 411 l 192 411 l 192 0 l 114 0 l 114 1000 l 456 1000 b 806 700 681 1000 806 889 b 568 424 806 556 703 460 l 850 0 m 192 933 l 192 478 l 456 478 b 724 700 624 478 724 569 b 458 933 724 849 633 933 m 463 -204 b 338 -378 463 -303 415 -357 l 338 -337 b 407 -215 385 -319 407 -278 l 381 -215 l 381 -112 l 463 -112 "},"ŗ":{"ha":474,"x_min":0,"x_max":0,"o":"m 107 0 l 107 722 l 168 722 l 179 583 b 382 743 218 693 292 743 b 457 732 411 743 440 738 l 457 658 b 378 671 432 665 407 671 b 182 394 272 671 182 568 l 182 0 m 185 -204 b 60 -378 185 -303 138 -357 l 60 -337 b 129 -215 107 -319 129 -278 l 103 -215 l 103 -112 l 185 -112 "},"Ř":{"ha":874,"x_min":0,"x_max":0,"o":"m 756 0 l 488 411 l 192 411 l 192 0 l 114 0 l 114 1000 l 456 1000 b 806 700 681 1000 806 889 b 568 424 806 556 703 460 l 850 0 m 192 933 l 192 478 l 456 478 b 724 700 624 478 724 569 b 458 933 724 849 633 933 m 206 1257 l 279 1257 l 399 1113 l 518 1257 l 592 1257 l 442 1067 l 354 1067 "},"ř":{"ha":474,"x_min":0,"x_max":0,"o":"m 107 0 l 107 722 l 168 722 l 179 583 b 382 743 218 693 292 743 b 457 732 411 743 440 738 l 457 658 b 378 671 432 665 407 671 b 182 394 272 671 182 568 l 182 0 m 75 1021 l 149 1021 l 268 876 l 388 1021 l 461 1021 l 311 831 l 224 831 "},"Ś":{"ha":897,"x_min":0,"x_max":0,"o":"m 743 256 b 410 500 743 378 681 440 b 101 775 183 550 101 635 b 446 1021 101 918 221 1021 b 822 771 643 1021 792 928 l 742 771 b 447 954 717 885 608 954 b 181 779 265 954 181 881 b 464 563 181 672 233 614 b 822 258 731 501 822 414 b 449 -21 822 103 690 -21 b 58 256 242 -21 90 79 l 140 256 b 449 47 167 118 288 47 b 743 256 639 47 743 132 m 521 1257 l 624 1257 l 447 1067 l 378 1067 "},"ś":{"ha":690,"x_min":0,"x_max":0,"o":"m 547 190 b 311 350 547 283 475 321 b 76 551 164 375 76 438 b 339 743 76 660 164 743 b 621 543 489 743 600 665 l 543 543 b 336 682 531 624 450 682 b 153 558 210 682 153 625 b 354 411 153 479 200 440 b 625 194 539 376 625 319 b 342 -21 625 79 519 -21 b 51 192 172 -21 68 67 l 129 192 b 343 40 140 100 219 40 b 547 190 476 40 547 113 m 428 1021 l 531 1021 l 354 831 l 285 831 "},"Ŝ":{"ha":897,"x_min":0,"x_max":0,"o":"m 743 256 b 410 500 743 378 681 440 b 101 775 183 550 101 635 b 446 1021 101 918 221 1021 b 822 771 643 1021 792 928 l 742 771 b 447 954 717 885 608 954 b 181 779 265 954 181 881 b 464 563 181 672 233 614 b 822 258 731 501 822 414 b 449 -21 822 103 690 -21 b 58 256 242 -21 90 79 l 140 256 b 449 47 167 118 288 47 b 743 256 639 47 743 132 m 635 1067 l 561 1067 l 440 1211 l 322 1067 l 247 1067 l 399 1257 l 485 1257 "},"ŝ":{"ha":690,"x_min":0,"x_max":0,"o":"m 547 190 b 311 350 547 283 475 321 b 76 551 164 375 76 438 b 339 743 76 660 164 743 b 621 543 489 743 600 665 l 543 543 b 336 682 531 624 450 682 b 153 558 210 682 153 625 b 354 411 153 479 200 440 b 625 194 539 376 625 319 b 342 -21 625 79 519 -21 b 51 192 172 -21 68 67 l 129 192 b 343 40 140 100 219 40 b 547 190 476 40 547 113 m 529 831 l 456 831 l 335 975 l 217 831 l 142 831 l 293 1021 l 379 1021 "},"Ş":{"ha":897,"x_min":0,"x_max":0,"o":"m 632 -197 b 475 -335 632 -275 567 -335 b 308 -214 388 -335 319 -293 l 371 -214 b 475 -282 376 -256 419 -282 b 571 -199 532 -282 571 -247 b 419 -112 571 -146 529 -112 l 426 -19 b 58 256 231 -14 89 86 l 140 256 b 449 47 167 118 288 47 b 743 256 639 47 743 132 b 410 500 743 378 681 440 b 101 775 183 550 101 635 b 446 1021 101 918 221 1021 b 822 771 643 1021 792 928 l 742 771 b 447 954 717 885 608 954 b 181 779 265 954 181 881 b 464 563 181 672 233 614 b 822 258 731 501 822 414 b 486 -19 822 110 703 -7 l 486 -68 b 632 -197 582 -81 632 -128 "},"ş":{"ha":690,"x_min":0,"x_max":0,"o":"m 521 -197 b 364 -335 521 -275 456 -335 b 197 -214 276 -335 208 -293 l 260 -214 b 364 -282 265 -256 308 -282 b 460 -199 421 -282 460 -247 b 308 -112 460 -146 418 -112 l 315 -19 b 51 192 161 -11 67 72 l 129 192 b 343 40 140 100 219 40 b 547 190 476 40 547 113 b 311 350 547 283 475 321 b 76 551 164 375 76 438 b 339 743 76 660 164 743 b 621 543 489 743 600 665 l 543 543 b 336 682 531 624 450 682 b 153 558 210 682 153 625 b 354 411 153 479 200 440 b 625 194 539 376 625 319 b 375 -19 625 86 532 -8 l 375 -68 b 521 -197 471 -81 521 -128 "},"Š":{"ha":897,"x_min":0,"x_max":0,"o":"m 743 256 b 410 500 743 378 681 440 b 101 775 183 550 101 635 b 446 1021 101 918 221 1021 b 822 771 643 1021 792 928 l 742 771 b 447 954 717 885 608 954 b 181 779 265 954 181 881 b 464 563 181 672 233 614 b 822 258 731 501 822 414 b 449 -21 822 103 690 -21 b 58 256 242 -21 90 79 l 140 256 b 449 47 167 118 288 47 b 743 256 639 47 743 132 m 243 1257 l 317 1257 l 436 1113 l 556 1257 l 629 1257 l 479 1067 l 392 1067 "},"š":{"ha":690,"x_min":0,"x_max":0,"o":"m 547 190 b 311 350 547 283 475 321 b 76 551 164 375 76 438 b 339 743 76 660 164 743 b 621 543 489 743 600 665 l 543 543 b 336 682 531 624 450 682 b 153 558 210 682 153 625 b 354 411 153 479 200 440 b 625 194 539 376 625 319 b 342 -21 625 79 519 -21 b 51 192 172 -21 68 67 l 129 192 b 343 40 140 100 219 40 b 547 190 476 40 547 113 m 146 1021 l 219 1021 l 339 876 l 458 1021 l 532 1021 l 382 831 l 294 831 "},"Ţ":{"ha":799,"x_min":0,"x_max":0,"o":"m 775 931 l 438 931 l 438 0 l 360 0 l 360 931 l 24 931 l 24 1000 l 775 1000 m 438 -204 b 313 -378 438 -303 390 -357 l 313 -337 b 382 -215 360 -319 382 -278 l 356 -215 l 356 -112 l 438 -112 "},"ţ":{"ha":419,"x_min":0,"x_max":0,"o":"m 210 657 l 210 144 b 304 43 210 75 246 43 b 392 54 331 43 354 44 l 392 -7 b 300 -21 358 -17 329 -21 b 135 146 196 -21 135 38 l 135 657 l 31 657 l 31 722 l 135 722 l 139 896 l 210 896 l 210 722 l 378 722 l 378 657 m 264 -204 b 139 -378 264 -303 217 -357 l 139 -337 b 208 -215 186 -319 208 -278 l 182 -215 l 182 -112 l 264 -112 "},"Ť":{"ha":799,"x_min":0,"x_max":0,"o":"m 775 931 l 438 931 l 438 0 l 360 0 l 360 931 l 24 931 l 24 1000 l 775 1000 m 204 1257 l 278 1257 l 397 1113 l 517 1257 l 590 1257 l 440 1067 l 353 1067 "},"ť":{"ha":464,"x_min":0,"x_max":0,"o":"m 464 917 b 342 760 464 825 418 781 l 342 804 b 401 901 388 821 401 850 l 374 901 l 374 1000 l 464 1000 m 210 657 l 210 144 b 304 43 210 75 246 43 b 392 54 331 43 354 44 l 392 -7 b 300 -21 358 -17 329 -21 b 135 146 196 -21 135 38 l 135 657 l 31 657 l 31 722 l 135 722 l 139 896 l 210 896 l 210 722 l 378 722 l 378 657 "},"Ŧ":{"ha":799,"x_min":0,"x_max":0,"o":"m 775 931 l 438 931 l 438 599 l 618 599 l 618 536 l 438 536 l 438 0 l 360 0 l 360 536 l 181 536 l 181 599 l 360 599 l 360 931 l 24 931 l 24 1000 l 775 1000 "},"ŧ":{"ha":419,"x_min":0,"x_max":0,"o":"m 210 144 b 304 43 210 75 246 43 b 392 54 331 43 354 44 l 392 -7 b 300 -21 358 -17 329 -21 b 135 182 178 -21 135 49 l 135 468 l 40 468 l 40 529 l 135 529 l 135 657 l 31 657 l 31 722 l 135 722 l 139 896 l 210 896 l 210 722 l 378 722 l 378 657 l 210 657 l 210 529 l 364 529 l 364 468 l 210 468 "},"Ũ":{"ha":975,"x_min":0,"x_max":0,"o":"m 488 -21 b 107 328 246 -21 107 133 l 107 1000 l 183 1000 l 183 324 b 488 46 183 160 310 46 b 792 324 665 46 792 161 l 792 1000 l 868 1000 l 868 328 b 488 -21 868 132 724 -21 m 567 1106 b 414 1153 489 1106 476 1153 b 307 1106 379 1153 347 1138 l 307 1175 b 415 1217 346 1203 375 1217 b 569 1169 494 1217 508 1169 b 675 1217 604 1169 635 1185 l 675 1149 b 567 1106 636 1119 608 1106 "},"ũ":{"ha":761,"x_min":0,"x_max":0,"o":"m 175 722 l 175 233 b 364 43 175 106 249 43 b 579 279 490 43 579 146 l 579 722 l 654 722 l 654 0 l 593 0 l 583 115 b 347 -21 532 22 438 -21 b 100 233 206 -21 100 63 l 100 722 m 446 869 b 293 917 368 869 356 917 b 186 869 258 917 226 901 l 186 939 b 294 981 225 967 254 981 b 449 933 374 981 388 933 b 554 981 483 933 514 949 l 554 913 b 446 869 515 883 488 869 "},"Ū":{"ha":975,"x_min":0,"x_max":0,"o":"m 488 -21 b 107 328 246 -21 107 133 l 107 1000 l 183 1000 l 183 324 b 488 46 183 160 310 46 b 792 324 665 46 792 161 l 792 1000 l 868 1000 l 868 328 b 488 -21 868 132 724 -21 m 319 1143 l 319 1208 l 656 1208 l 656 1143 "},"ū":{"ha":761,"x_min":0,"x_max":0,"o":"m 175 722 l 175 233 b 364 43 175 106 249 43 b 579 279 490 43 579 146 l 579 722 l 654 722 l 654 0 l 593 0 l 583 115 b 347 -21 532 22 438 -21 b 100 233 206 -21 100 63 l 100 722 m 203 907 l 203 972 l 539 972 l 539 907 "},"Ŭ":{"ha":975,"x_min":0,"x_max":0,"o":"m 488 -21 b 107 328 246 -21 107 133 l 107 1000 l 183 1000 l 183 324 b 488 46 183 160 310 46 b 792 324 665 46 792 161 l 792 1000 l 868 1000 l 868 328 b 488 -21 868 132 724 -21 m 486 1074 b 301 1257 376 1075 311 1144 l 368 1257 b 486 1129 372 1188 406 1129 b 604 1257 567 1129 600 1188 l 671 1257 b 486 1074 661 1144 596 1075 "},"ŭ":{"ha":761,"x_min":0,"x_max":0,"o":"m 175 722 l 175 233 b 364 43 175 106 249 43 b 579 279 490 43 579 146 l 579 722 l 654 722 l 654 0 l 593 0 l 583 115 b 347 -21 532 22 438 -21 b 100 233 206 -21 100 63 l 100 722 m 374 838 b 189 1021 264 839 199 908 l 256 1021 b 374 893 260 951 293 893 b 492 1021 454 893 488 951 l 558 1021 b 374 838 549 908 483 839 "},"Ů":{"ha":975,"x_min":0,"x_max":0,"o":"m 488 -21 b 107 328 246 -21 107 133 l 107 1000 l 183 1000 l 183 324 b 488 46 183 160 310 46 b 792 324 665 46 792 161 l 792 1000 l 868 1000 l 868 328 b 488 -21 868 132 724 -21 m 381 1208 b 488 1096 381 1138 425 1096 b 594 1208 549 1096 594 1138 b 488 1319 594 1279 549 1319 b 381 1208 425 1319 381 1279 m 654 1208 b 488 1046 654 1115 588 1046 b 321 1208 388 1046 321 1115 b 488 1369 321 1301 388 1369 b 654 1208 588 1369 654 1301 "},"ů":{"ha":761,"x_min":0,"x_max":0,"o":"m 175 722 l 175 233 b 364 43 175 106 249 43 b 579 279 490 43 579 146 l 579 722 l 654 722 l 654 0 l 593 0 l 583 115 b 347 -21 532 22 438 -21 b 100 233 206 -21 100 63 l 100 722 m 269 972 b 376 860 269 901 314 860 b 483 972 438 860 483 901 b 376 1083 483 1043 438 1083 b 269 972 314 1083 269 1043 m 543 972 b 376 810 543 879 476 810 b 210 972 276 810 210 879 b 376 1133 210 1065 276 1133 b 543 972 476 1133 543 1065 "},"Ű":{"ha":975,"x_min":0,"x_max":0,"o":"m 488 -21 b 107 328 246 -21 107 133 l 107 1000 l 183 1000 l 183 324 b 488 46 183 160 310 46 b 792 324 665 46 792 161 l 792 1000 l 868 1000 l 868 328 b 488 -21 868 132 724 -21 m 435 1257 l 528 1257 l 383 1067 l 321 1067 m 656 1257 l 750 1257 l 604 1067 l 542 1067 "},"ű":{"ha":761,"x_min":0,"x_max":0,"o":"m 175 722 l 175 233 b 364 43 175 106 249 43 b 579 279 490 43 579 146 l 579 722 l 654 722 l 654 0 l 593 0 l 583 115 b 347 -21 532 22 438 -21 b 100 233 206 -21 100 63 l 100 722 m 349 1021 l 442 1021 l 297 831 l 235 831 m 569 1021 l 664 1021 l 518 831 l 456 831 "},"Ų":{"ha":975,"x_min":0,"x_max":0,"o":"m 721 -207 b 550 -331 697 -286 628 -331 b 390 -189 456 -331 390 -276 b 506 -19 390 -125 436 -64 b 490 -21 501 -21 496 -21 b 107 328 247 -21 107 133 l 107 1000 l 183 1000 l 183 324 b 488 46 183 160 310 46 b 792 353 683 46 792 175 l 792 1000 l 868 1000 l 868 328 b 628 0 868 169 779 53 b 454 -181 535 -32 454 -107 b 553 -275 454 -243 493 -275 b 654 -207 607 -275 640 -247 "},"ų":{"ha":761,"x_min":0,"x_max":0,"o":"m 175 722 l 175 233 b 364 42 175 106 247 42 b 579 276 489 42 579 144 l 579 722 l 654 722 l 654 0 b 482 -181 556 -37 482 -110 b 581 -275 482 -243 521 -275 b 681 -207 633 -275 667 -247 l 747 -207 b 576 -329 724 -285 656 -329 b 418 -189 483 -329 418 -276 b 590 10 418 -108 493 -32 l 582 115 b 346 -21 532 21 436 -21 b 100 232 204 -21 100 63 l 100 722 "},"Ŵ":{"ha":1325,"x_min":0,"x_max":0,"o":"m 1308 1000 l 1032 0 l 929 0 l 665 925 l 399 0 l 293 0 l 17 1000 l 97 1000 l 349 79 l 614 1000 l 721 1000 l 981 82 l 1233 1000 m 854 1067 l 781 1067 l 660 1211 l 542 1067 l 467 1067 l 618 1257 l 704 1257 "},"ŵ":{"ha":1068,"x_min":0,"x_max":0,"o":"m 1038 722 l 829 0 l 739 0 l 536 646 l 344 0 l 251 0 l 31 722 l 107 722 l 300 76 l 492 722 l 586 722 l 785 79 l 964 722 m 729 831 l 656 831 l 535 975 l 417 831 l 342 831 l 493 1021 l 579 1021 "},"Ÿ":{"ha":865,"x_min":0,"x_max":0,"o":"m 94 1000 l 431 464 b 774 1000 546 642 660 821 l 854 1000 l 471 392 l 471 0 l 392 0 l 392 393 l 10 1000 m 244 1139 l 244 1236 l 332 1236 l 332 1139 m 529 1139 l 529 1236 l 617 1236 l 617 1139 "},"Ź":{"ha":888,"x_min":0,"x_max":0,"o":"m 158 68 l 808 68 l 808 0 l 65 0 l 65 69 l 731 931 l 97 931 l 97 1000 l 822 1000 l 822 933 m 518 1257 l 621 1257 l 444 1067 l 375 1067 "},"ź":{"ha":665,"x_min":0,"x_max":0,"o":"m 138 64 l 614 64 l 614 0 l 51 0 l 51 72 l 531 658 l 72 658 l 72 722 l 614 722 l 614 647 m 422 1021 l 525 1021 l 349 831 l 279 831 "},"Ż":{"ha":888,"x_min":0,"x_max":0,"o":"m 158 68 l 808 68 l 808 0 l 65 0 l 65 69 l 731 931 l 97 931 l 97 1000 l 822 1000 l 822 933 m 400 1133 l 400 1236 l 490 1236 l 490 1133 "},"ż":{"ha":665,"x_min":0,"x_max":0,"o":"m 138 64 l 614 64 l 614 0 l 51 0 l 51 72 l 531 658 l 72 658 l 72 722 l 614 722 l 614 647 m 296 897 l 296 1000 l 386 1000 l 386 897 "},"Ž":{"ha":888,"x_min":0,"x_max":0,"o":"m 158 68 l 808 68 l 808 0 l 65 0 l 65 69 l 731 931 l 97 931 l 97 1000 l 822 1000 l 822 933 m 253 1257 l 326 1257 l 446 1113 l 565 1257 l 639 1257 l 489 1067 l 401 1067 "},"ž":{"ha":665,"x_min":0,"x_max":0,"o":"m 138 64 l 614 64 l 614 0 l 51 0 l 51 72 l 531 658 l 72 658 l 72 722 l 614 722 l 614 647 m 147 1021 l 221 1021 l 340 876 l 460 1021 l 533 1021 l 383 831 l 296 831 "},"ƒ":{"ha":417,"x_min":0,"x_max":0,"o":"m 424 932 b 317 949 388 942 347 949 b 219 839 258 949 219 914 l 219 715 l 389 715 l 389 651 l 219 651 l 219 -250 l 144 -250 l 144 651 l 38 651 l 38 715 l 144 715 l 144 836 b 315 1013 144 944 211 1013 b 424 996 353 1013 389 1007 "},"Ș":{"ha":897,"x_min":0,"x_max":0,"o":"m 743 256 b 410 500 743 378 681 440 b 101 775 183 550 101 635 b 446 1021 101 918 221 1021 b 822 771 643 1021 792 928 l 742 771 b 447 954 717 885 608 954 b 181 779 265 954 181 881 b 464 563 181 672 233 614 b 822 258 731 501 822 414 b 449 -21 822 103 690 -21 b 58 256 242 -21 90 79 l 140 256 b 449 47 167 118 288 47 b 743 256 639 47 743 132 m 497 -204 b 372 -378 497 -303 450 -357 l 372 -337 b 442 -215 419 -319 442 -278 l 415 -215 l 415 -112 l 497 -112 "},"ș":{"ha":690,"x_min":0,"x_max":0,"o":"m 547 190 b 311 350 547 283 475 321 b 76 551 164 375 76 438 b 339 743 76 660 164 743 b 621 543 489 743 600 665 l 543 543 b 336 682 531 624 450 682 b 153 558 210 682 153 625 b 354 411 153 479 200 440 b 625 194 539 376 625 319 b 342 -21 625 79 519 -21 b 51 192 172 -21 68 67 l 129 192 b 343 40 140 100 219 40 b 547 190 476 40 547 113 m 390 -204 b 265 -378 390 -303 343 -357 l 265 -337 b 335 -215 313 -319 335 -278 l 308 -215 l 308 -112 l 390 -112 "},"Ț":{"ha":799,"x_min":0,"x_max":0,"o":"m 775 931 l 438 931 l 438 0 l 360 0 l 360 931 l 24 931 l 24 1000 l 775 1000 m 438 -204 b 313 -378 438 -303 390 -357 l 313 -337 b 382 -215 360 -319 382 -278 l 356 -215 l 356 -112 l 438 -112 "},"ț":{"ha":419,"x_min":0,"x_max":0,"o":"m 210 657 l 210 144 b 304 43 210 75 246 43 b 392 54 331 43 354 44 l 392 -7 b 300 -21 358 -17 329 -21 b 135 146 196 -21 135 38 l 135 657 l 31 657 l 31 722 l 135 722 l 139 896 l 210 896 l 210 722 l 378 722 l 378 657 m 264 -204 b 139 -378 264 -303 217 -357 l 139 -337 b 208 -215 186 -319 208 -278 l 182 -215 l 182 -112 l 264 -112 "},"ȷ":{"ha":289,"x_min":0,"x_max":0,"o":"m -72 -192 b 15 -206 -43 -200 -7 -206 b 107 -93 76 -206 107 -176 l 107 722 l 182 722 l 182 -97 b 26 -271 182 -208 126 -271 b -72 -256 -4 -271 -37 -267 "},"ˆ":{"ha":468,"x_min":0,"x_max":0,"o":"m 428 831 l 354 831 l 233 975 l 115 831 l 40 831 l 192 1021 l 278 1021 "},"ˇ":{"ha":468,"x_min":0,"x_max":0,"o":"m 40 1021 l 114 1021 l 233 876 l 353 1021 l 426 1021 l 276 831 l 189 831 "},"ˉ":{"ha":419,"x_min":0,"x_max":0,"o":"m 42 907 l 42 971 l 378 971 l 378 907 "},"˘":{"ha":444,"x_min":0,"x_max":0,"o":"m 222 838 b 38 1021 113 839 47 908 l 104 1021 b 222 893 108 951 142 893 b 340 1021 303 893 336 951 l 407 1021 b 222 838 397 908 332 839 "},"˙":{"ha":174,"x_min":0,"x_max":0,"o":"m 42 897 l 42 1000 l 132 1000 l 132 897 "},"˚":{"ha":417,"x_min":0,"x_max":0,"o":"m 101 972 b 208 860 101 901 146 860 b 315 972 269 860 315 901 b 208 1083 315 1043 269 1083 b 101 972 146 1083 101 1043 m 375 972 b 208 810 375 879 308 810 b 42 972 108 810 42 879 b 208 1133 42 1065 108 1133 b 375 972 308 1133 375 1065 "},"˛":{"ha":413,"x_min":0,"x_max":0,"o":"m 200 -332 b 40 -190 106 -332 40 -278 b 257 26 40 -99 135 -12 l 325 26 b 104 -181 214 -22 104 -90 b 203 -275 104 -244 143 -275 b 304 -207 257 -275 290 -247 l 371 -207 b 200 -332 347 -286 278 -332 "},"˜":{"ha":451,"x_min":0,"x_max":0,"o":"m 301 869 b 149 917 224 869 211 917 b 42 869 114 917 82 901 l 42 939 b 150 981 81 967 110 981 b 304 933 229 981 243 933 b 410 981 339 933 369 949 l 410 913 b 301 869 371 883 343 869 "},"˝":{"ha":513,"x_min":0,"x_max":0,"o":"m 156 1021 l 249 1021 l 104 831 l 42 831 m 376 1021 l 471 1021 l 325 831 l 263 831 "},"̒":{"ha":185,"x_min":0,"x_max":0,"o":"m 46 926 b 175 1103 46 1026 99 1082 l 175 1058 b 108 938 128 1040 108 1000 l 136 938 l 136 835 l 46 835 "},"̣":{"ha":174,"x_min":0,"x_max":0,"o":"m 43 -250 l 43 -147 l 133 -147 l 133 -250 "},";":{"ha":396,"x_min":0,"x_max":0,"o":"m 147 611 l 147 722 l 249 722 l 249 611 m 249 8 b 103 -193 249 -114 186 -174 l 103 -144 b 182 0 157 -125 182 -85 l 147 0 l 147 110 l 249 110 "},"΄":{"ha":218,"x_min":0,"x_max":0,"o":"m 81 1000 l 176 1000 l 101 796 l 42 796 "},"΅":{"ha":474,"x_min":0,"x_max":0,"o":"m 344 890 l 344 988 l 432 988 l 432 890 m 42 890 l 42 988 l 129 988 l 129 890 m 244 1219 l 340 1219 l 265 1015 l 206 1015 "},"Ά":{"ha":918,"x_min":0,"x_max":0,"o":"m 822 0 l 710 283 l 204 283 l 92 0 l 10 0 l 411 1000 l 508 1000 l 908 0 m 231 349 l 685 349 l 460 925 m 233 1000 l 329 1000 l 254 796 l 194 796 "},"·":{"ha":396,"x_min":0,"x_max":0,"o":"m 147 389 l 147 500 l 249 500 l 249 389 "},"Έ":{"ha":846,"x_min":0,"x_max":0,"o":"m 726 475 l 253 475 l 253 68 l 767 68 l 767 0 l 175 0 l 175 1000 l 767 1000 l 767 932 l 253 932 l 253 542 l 726 542 m 17 1000 l 113 1000 l 38 796 l -22 796 "},"Ή":{"ha":1008,"x_min":0,"x_max":0,"o":"m 894 1000 l 894 0 l 815 0 l 815 475 l 249 475 l 249 0 l 171 0 l 171 1000 l 249 1000 l 249 544 l 815 544 l 815 1000 m 17 1000 l 113 1000 l 38 796 l -22 796 "},"Ί":{"ha":363,"x_min":0,"x_max":0,"o":"m 249 1000 l 249 0 l 171 0 l 171 1000 m 17 1000 l 113 1000 l 38 796 l -22 796 "},"Ό":{"ha":1058,"x_min":0,"x_max":0,"o":"m 54 1000 l 150 1000 l 75 796 l 15 796 m 533 46 b 904 499 736 46 904 181 b 533 954 904 794 746 954 b 164 499 310 954 164 794 b 533 46 164 196 332 46 m 533 -21 b 83 499 279 -21 83 167 b 535 1021 83 850 285 1021 b 985 499 783 1021 985 838 b 533 -21 985 151 786 -21 "},"Ύ":{"ha":985,"x_min":0,"x_max":0,"o":"m 214 1000 l 550 464 b 893 1000 665 642 779 821 l 974 1000 l 590 392 l 590 0 l 511 0 l 511 393 l 129 1000 m -11 1000 l 85 1000 l 10 796 l -50 796 "},"Ώ":{"ha":1058,"x_min":0,"x_max":0,"o":"m 618 71 b 906 501 774 88 906 207 b 535 954 906 794 746 954 b 164 501 311 954 164 794 b 451 71 164 218 299 92 l 451 0 l 136 0 l 136 71 l 297 71 b 85 501 175 142 85 289 b 535 1021 85 863 299 1021 b 986 501 772 1021 986 850 b 776 71 986 282 897 132 l 933 71 l 933 0 l 618 0 m 54 1000 l 150 1000 l 75 796 l 15 796 "},"ΐ":{"ha":289,"x_min":0,"x_max":0,"o":"m 107 0 l 107 722 l 182 722 l 182 0 m 256 890 l 256 988 l 343 988 l 343 890 m -47 890 l -47 988 l 40 988 l 40 890 m 156 1219 l 251 1219 l 176 1015 l 117 1015 "},"Α":{"ha":918,"x_min":0,"x_max":0,"o":"m 822 0 l 710 283 l 204 283 l 92 0 l 10 0 l 411 1000 l 508 1000 l 908 0 m 231 349 l 685 349 l 460 925 "},"Β":{"ha":886,"x_min":0,"x_max":0,"o":"m 457 1000 b 775 753 664 1000 775 904 b 594 531 775 650 706 557 b 815 278 717 513 815 413 b 463 0 815 107 696 0 l 114 0 l 114 1000 m 192 494 l 192 67 l 474 67 b 733 278 642 67 733 143 b 481 494 733 408 639 494 m 192 936 l 192 558 l 476 558 b 697 751 621 558 697 643 b 467 936 697 867 613 936 "},"Γ":{"ha":678,"x_min":0,"x_max":0,"o":"m 654 1000 l 654 932 l 192 932 l 192 0 l 114 0 l 114 1000 "},"Δ":{"ha":918,"x_min":0,"x_max":0,"o":"m 10 0 l 411 1000 l 508 1000 l 908 0 m 118 67 l 794 67 l 460 925 "},"Ε":{"ha":785,"x_min":0,"x_max":0,"o":"m 665 475 l 192 475 l 192 68 l 706 68 l 706 0 l 114 0 l 114 1000 l 706 1000 l 706 932 l 192 932 l 192 542 l 665 542 "},"Ζ":{"ha":888,"x_min":0,"x_max":0,"o":"m 158 68 l 808 68 l 808 0 l 65 0 l 65 69 l 731 931 l 97 931 l 97 1000 l 822 1000 l 822 933 "},"Η":{"ha":951,"x_min":0,"x_max":0,"o":"m 838 1000 l 838 0 l 758 0 l 758 475 l 192 475 l 192 0 l 114 0 l 114 1000 l 192 1000 l 192 544 l 758 544 l 758 1000 "},"Θ":{"ha":1046,"x_min":0,"x_max":0,"o":"m 775 475 l 272 475 l 272 542 l 775 542 m 522 -21 b 72 499 268 -21 72 167 b 524 1021 72 835 274 1021 b 974 499 772 1021 974 838 b 522 -21 974 161 775 -21 m 522 46 b 893 499 725 46 893 192 b 522 954 893 794 735 954 b 153 499 311 954 153 794 b 522 46 153 196 321 46 "},"Ι":{"ha":306,"x_min":0,"x_max":0,"o":"m 192 1000 l 192 0 l 114 0 l 114 1000 "},"Κ":{"ha":828,"x_min":0,"x_max":0,"o":"m 706 0 l 192 492 l 192 0 l 114 0 l 114 1000 l 192 1000 l 192 535 l 674 1000 l 769 1000 l 271 518 l 811 0 "},"Λ":{"ha":904,"x_min":0,"x_max":0,"o":"m 808 0 l 453 925 l 92 0 l 10 0 l 404 1000 l 501 1000 l 894 0 "},"Μ":{"ha":1169,"x_min":0,"x_max":0,"o":"m 554 0 l 190 899 l 190 0 l 114 0 l 114 1000 l 229 1000 l 597 83 l 944 1000 l 1056 1000 l 1056 0 l 981 0 l 981 892 l 638 0 "},"Ν":{"ha":989,"x_min":0,"x_max":0,"o":"m 875 1000 l 875 0 l 783 0 l 188 900 l 188 0 l 114 0 l 114 1000 l 210 1000 l 804 106 l 804 1000 "},"Ξ":{"ha":814,"x_min":0,"x_max":0,"o":"m 79 72 l 735 72 l 735 0 l 79 0 m 735 928 l 79 928 l 79 1000 l 735 1000 m 178 464 l 178 535 l 636 535 l 636 464 "},"Ο":{"ha":1046,"x_min":0,"x_max":0,"o":"m 522 46 b 893 499 725 46 893 181 b 522 954 893 794 735 954 b 153 499 299 954 153 794 b 522 46 153 196 321 46 m 522 -21 b 72 499 268 -21 72 167 b 524 1021 72 850 274 1021 b 974 499 772 1021 974 838 b 522 -21 974 151 775 -21 "},"Π":{"ha":951,"x_min":0,"x_max":0,"o":"m 838 1000 l 838 0 l 758 0 l 758 931 l 192 931 l 192 0 l 114 0 l 114 1000 "},"Ρ":{"ha":869,"x_min":0,"x_max":0,"o":"m 450 1000 b 804 686 675 1000 804 885 b 446 383 804 497 661 383 l 192 383 l 192 0 l 114 0 l 114 1000 m 192 933 l 192 451 l 447 451 b 722 686 622 451 722 539 b 453 933 722 840 624 933 "},"Σ":{"ha":781,"x_min":0,"x_max":0,"o":"m 510 533 l 510 474 l 143 67 l 726 67 l 726 0 l 53 0 l 53 68 l 440 504 l 53 931 l 53 1000 l 726 1000 l 726 932 l 143 932 "},"Τ":{"ha":799,"x_min":0,"x_max":0,"o":"m 775 931 l 438 931 l 438 0 l 360 0 l 360 931 l 24 931 l 24 1000 l 775 1000 "},"Υ":{"ha":865,"x_min":0,"x_max":0,"o":"m 94 1000 l 431 464 b 774 1000 546 642 660 821 l 854 1000 l 471 392 l 471 0 l 392 0 l 392 393 l 10 1000 "},"Φ":{"ha":1106,"x_min":0,"x_max":0,"o":"m 592 1021 l 592 971 b 1033 499 836 967 1033 806 b 592 31 1033 210 842 35 l 592 -21 l 514 -21 l 514 31 b 72 499 264 35 72 210 b 514 971 72 806 268 967 l 514 1021 m 153 499 b 514 97 153 235 317 100 l 514 904 b 153 499 294 900 153 754 m 954 499 b 592 904 954 754 811 900 l 592 97 b 954 499 789 100 954 236 "},"Χ":{"ha":851,"x_min":0,"x_max":0,"o":"m 474 518 l 828 0 l 733 0 l 426 457 l 114 0 l 24 0 l 381 518 l 50 1000 l 143 1000 l 431 578 l 728 1000 l 815 1000 "},"Ψ":{"ha":1025,"x_min":0,"x_max":0,"o":"m 171 1000 l 171 560 b 476 322 171 413 301 332 l 476 1000 l 554 1000 l 554 322 b 856 560 721 333 856 414 l 856 1000 l 932 1000 l 932 568 b 554 254 932 375 778 267 l 554 0 l 476 0 l 476 254 b 93 568 251 265 93 376 l 93 1000 "},"Ω":{"ha":1046,"x_min":0,"x_max":0,"o":"m 606 71 b 893 501 761 88 893 207 b 522 954 893 794 733 954 b 151 501 299 954 151 794 b 439 71 151 218 286 92 l 439 0 l 124 0 l 124 71 l 285 71 b 72 501 163 142 72 289 b 522 1021 72 863 286 1021 b 974 501 760 1021 974 850 b 764 71 974 282 885 132 l 921 71 l 921 0 l 606 0 "},"Ϊ":{"ha":307,"x_min":0,"x_max":0,"o":"m 192 1000 l 192 0 l 114 0 l 114 1000 m -32 1139 l -32 1236 l 56 1236 l 56 1139 m 253 1139 l 253 1236 l 340 1236 l 340 1139 "},"Ϋ":{"ha":865,"x_min":0,"x_max":0,"o":"m 94 1000 l 431 464 b 774 1000 546 642 660 821 l 854 1000 l 471 392 l 471 0 l 392 0 l 392 393 l 10 1000 m 246 1139 l 246 1236 l 333 1236 l 333 1139 m 531 1139 l 531 1236 l 618 1236 l 618 1139 "},"ά":{"ha":799,"x_min":0,"x_max":0,"o":"m 631 0 l 618 138 b 365 -21 572 44 485 -21 b 65 354 201 -21 65 104 b 369 743 65 615 201 743 b 618 590 486 743 572 681 l 631 722 l 692 722 l 692 0 m 143 354 b 381 43 143 143 249 43 b 624 361 504 43 624 136 b 382 679 624 572 518 679 b 143 354 250 679 143 576 m 396 1000 l 492 1000 l 417 796 l 357 796 "},"έ":{"ha":676,"x_min":0,"x_max":0,"o":"m 335 1000 l 431 1000 l 356 796 l 296 796 m 333 43 b 546 207 447 43 528 100 l 624 207 b 331 -21 601 72 500 -21 b 56 192 154 -21 56 61 b 228 379 56 279 115 354 b 81 553 131 407 81 471 b 325 743 81 663 168 743 b 619 528 489 743 596 653 l 540 528 b 326 682 519 624 442 682 b 156 546 213 682 156 626 b 326 410 156 467 232 410 l 390 410 l 390 343 l 324 343 b 132 192 204 343 132 276 b 333 43 132 96 206 43 "},"ή":{"ha":768,"x_min":0,"x_max":0,"o":"m 107 0 l 107 722 l 169 722 l 178 599 b 418 743 228 693 319 743 b 668 492 571 743 668 649 l 668 -250 l 593 -250 l 593 489 b 401 679 593 610 522 679 b 182 449 293 679 182 590 l 182 0 m 383 1000 l 479 1000 l 404 796 l 344 796 "},"ί":{"ha":289,"x_min":0,"x_max":0,"o":"m 156 1000 l 251 1000 l 176 796 l 117 796 m 107 0 l 107 722 l 182 722 l 182 0 "},"ΰ":{"ha":760,"x_min":0,"x_max":0,"o":"m 381 -21 b 101 233 201 -21 101 71 l 101 722 l 176 722 l 176 236 b 381 43 176 117 243 43 b 583 236 517 43 583 117 l 583 722 l 658 722 l 658 233 b 381 -21 658 71 560 -21 m 486 890 l 486 988 l 574 988 l 574 890 m 183 890 l 183 988 l 271 988 l 271 890 m 386 1219 l 482 1219 l 407 1015 l 347 1015 "},"α":{"ha":799,"x_min":0,"x_max":0,"o":"m 631 0 l 618 138 b 365 -21 572 44 485 -21 b 65 354 201 -21 65 104 b 369 743 65 615 201 743 b 618 590 486 743 572 681 l 631 722 l 692 722 l 692 0 m 143 354 b 381 43 143 143 249 43 b 624 361 504 43 624 136 b 382 679 624 572 518 679 b 143 354 250 679 143 576 "},"β":{"ha":767,"x_min":0,"x_max":0,"o":"m 635 779 b 461 546 635 669 567 576 b 669 286 561 526 669 439 b 403 -21 669 89 556 -21 b 182 107 304 -21 228 25 l 182 -250 l 107 -250 l 107 706 b 368 1021 107 904 193 1021 b 635 779 538 1021 635 919 m 182 256 b 390 43 182 161 268 43 b 593 282 513 43 593 129 b 382 508 593 436 485 508 l 325 508 l 325 575 l 379 575 b 558 772 465 575 558 653 b 367 958 558 882 496 958 b 182 704 246 958 182 879 "},"γ":{"ha":690,"x_min":0,"x_max":0,"o":"m 307 -250 l 307 0 l 24 722 l 104 722 l 346 74 l 589 722 l 667 722 l 382 0 l 382 -250 "},"δ":{"ha":757,"x_min":0,"x_max":0,"o":"m 200 1000 l 644 1000 l 644 935 l 371 935 b 692 433 546 888 692 717 b 369 -21 692 168 603 -21 b 65 329 183 -21 65 121 b 358 665 65 518 175 665 b 621 489 499 665 590 581 b 200 946 604 799 378 914 m 617 317 b 371 601 617 444 539 601 b 142 324 242 601 142 517 b 369 44 142 160 226 44 b 617 317 515 44 601 138 "},"ε":{"ha":676,"x_min":0,"x_max":0,"o":"m 333 43 b 546 207 447 43 528 100 l 624 207 b 331 -21 601 72 500 -21 b 56 192 154 -21 56 61 b 228 379 56 279 115 354 b 81 553 131 407 81 471 b 325 743 81 663 168 743 b 619 528 489 743 596 653 l 540 528 b 326 682 519 624 442 682 b 156 546 213 682 156 626 b 326 410 156 467 232 410 l 390 410 l 390 343 l 324 343 b 132 192 204 343 132 276 b 333 43 132 96 206 43 "},"ζ":{"ha":628,"x_min":0,"x_max":0,"o":"m 117 371 b 378 57 117 186 204 97 b 583 -100 543 19 583 -22 b 489 -271 583 -168 529 -232 l 444 -235 b 510 -108 479 -200 510 -156 b 360 -8 510 -61 478 -33 b 40 358 149 36 40 160 b 440 936 40 635 194 850 l 57 936 l 57 1000 l 579 1000 l 579 947 b 117 371 311 876 117 661 "},"η":{"ha":768,"x_min":0,"x_max":0,"o":"m 107 0 l 107 722 l 169 722 l 178 599 b 418 743 228 693 319 743 b 668 492 571 743 668 649 l 668 -250 l 593 -250 l 593 489 b 401 679 593 610 522 679 b 182 449 293 679 182 590 l 182 0 "},"θ":{"ha":800,"x_min":0,"x_max":0,"o":"m 400 -21 b 65 500 211 -21 65 143 b 400 1021 65 860 211 1021 b 735 500 589 1021 735 860 b 400 -21 735 142 589 -21 m 400 43 b 656 472 554 43 651 185 l 143 472 b 400 43 149 185 244 43 m 400 957 b 143 538 246 957 150 817 l 656 538 b 400 957 649 817 553 957 "},"ι":{"ha":289,"x_min":0,"x_max":0,"o":"m 107 0 l 107 722 l 182 722 l 182 0 "},"κ":{"ha":678,"x_min":0,"x_max":0,"o":"m 107 0 l 107 722 l 182 722 l 182 404 l 529 722 l 629 722 l 258 386 l 675 0 l 572 0 l 182 357 l 182 0 "},"λ":{"ha":706,"x_min":0,"x_max":0,"o":"m 681 0 l 601 0 l 367 664 l 101 0 l 25 0 l 317 722 l 346 722 b 199 958 272 940 250 958 b 115 943 175 958 143 951 l 115 1004 b 203 1021 146 1014 176 1021 b 421 728 293 1021 326 992 "},"μ":{"ha":768,"x_min":0,"x_max":0,"o":"m 182 722 l 182 233 b 371 42 182 97 265 42 b 586 276 496 42 586 144 l 586 722 l 661 722 l 661 0 l 599 0 l 590 113 b 357 -21 539 19 443 -21 b 182 49 286 -21 222 1 l 182 -250 l 107 -250 l 107 722 "},"ν":{"ha":690,"x_min":0,"x_max":0,"o":"m 667 722 l 396 0 l 294 0 l 24 722 l 106 722 l 346 64 l 589 722 "},"ξ":{"ha":636,"x_min":0,"x_max":0,"o":"m 361 -17 b 38 263 140 26 38 121 b 246 501 38 394 106 472 b 68 704 135 524 68 592 b 294 936 68 813 149 904 l 58 936 l 58 1000 l 569 1000 l 569 946 l 547 946 b 139 703 263 946 139 836 b 365 532 139 579 244 532 l 438 532 l 438 465 l 347 465 b 114 264 196 465 114 382 b 379 46 114 153 188 89 b 594 -106 557 6 594 -32 b 494 -271 594 -165 547 -222 l 450 -235 b 521 -119 482 -204 521 -157 b 361 -17 521 -69 494 -43 "},"ο":{"ha":796,"x_min":0,"x_max":0,"o":"m 65 361 b 399 743 65 615 211 743 b 731 361 590 743 731 614 b 400 -21 731 110 590 -21 b 65 361 211 -21 65 113 m 143 361 b 399 40 143 149 254 40 b 653 361 547 40 653 149 b 399 682 653 575 546 682 b 143 361 251 682 143 574 "},"π":{"ha":828,"x_min":0,"x_max":0,"o":"m 151 0 l 151 657 l 46 657 l 46 722 l 782 722 l 782 657 l 676 657 l 676 0 l 601 0 l 601 657 l 226 657 l 226 0 "},"ρ":{"ha":804,"x_min":0,"x_max":0,"o":"m 104 392 b 417 743 106 617 217 743 b 739 369 601 743 739 618 b 426 -21 739 114 601 -21 b 179 129 308 -21 224 40 l 179 -250 l 104 -250 l 104 392 m 174 361 b 415 43 174 150 276 43 b 661 371 554 43 661 149 b 414 679 661 583 553 679 b 174 361 261 679 174 575 "},"ς":{"ha":736,"x_min":0,"x_max":0,"o":"m 143 374 b 428 57 143 200 226 99 b 660 -100 608 18 660 -14 b 563 -271 660 -168 606 -231 l 519 -236 b 585 -115 551 -204 585 -157 b 407 -8 585 -57 550 -35 b 65 375 185 32 65 156 b 385 743 65 610 206 743 b 681 522 543 743 654 660 l 599 522 b 388 681 581 619 503 681 b 143 374 249 681 143 572 "},"σ":{"ha":796,"x_min":0,"x_max":0,"o":"m 65 361 b 393 743 65 613 206 743 b 533 722 439 743 492 735 l 801 722 l 801 657 l 618 663 b 731 361 686 600 731 490 b 400 -21 731 108 589 -21 b 65 361 210 -21 65 111 m 142 361 b 399 40 142 149 254 40 b 653 361 547 40 653 149 b 522 665 653 493 608 606 b 396 681 489 674 436 681 b 142 361 253 681 142 574 "},"τ":{"ha":658,"x_min":0,"x_max":0,"o":"m 292 0 l 292 657 l 21 657 l 21 722 l 639 722 l 639 657 l 367 657 l 367 0 "},"υ":{"ha":760,"x_min":0,"x_max":0,"o":"m 381 -21 b 101 233 201 -21 101 71 l 101 722 l 176 722 l 176 236 b 381 43 176 117 243 43 b 583 236 517 43 583 117 l 583 722 l 658 722 l 658 233 b 381 -21 658 71 560 -21 "},"φ":{"ha":1043,"x_min":0,"x_max":0,"o":"m 469 410 b 710 743 469 622 547 743 b 963 376 867 743 963 629 b 544 -19 963 126 828 -10 l 544 -250 l 469 -250 l 469 -19 b 79 308 215 -11 79 85 b 171 722 79 444 118 579 l 246 722 b 154 314 190 572 154 457 b 469 43 154 138 249 50 l 469 410 m 544 42 b 886 378 785 50 886 154 b 707 679 886 592 818 679 b 544 379 603 679 544 603 "},"χ":{"ha":710,"x_min":0,"x_max":0,"o":"m 394 261 l 686 -250 l 594 -250 l 349 201 l 113 -250 l 24 -250 l 304 258 l 38 722 l 131 722 l 351 317 l 557 722 l 644 722 "},"ψ":{"ha":997,"x_min":0,"x_max":0,"o":"m 178 722 l 178 288 b 464 47 178 140 296 57 l 464 722 l 539 722 l 539 47 b 821 288 707 58 821 140 l 821 722 l 896 722 l 896 294 b 539 -18 896 103 753 -7 l 539 -250 l 464 -250 l 464 -19 b 101 294 246 -8 101 103 l 101 722 "},"ω":{"ha":1064,"x_min":0,"x_max":0,"o":"m 749 -21 b 532 149 636 -21 557 35 b 313 -21 506 36 425 -21 b 79 301 174 -21 79 81 b 171 722 79 443 118 579 l 246 722 b 154 307 192 572 154 456 b 325 43 154 118 224 43 b 494 251 426 43 494 118 l 494 528 l 568 528 l 568 251 b 736 43 568 118 635 43 b 908 307 838 43 908 118 b 817 722 908 456 872 572 l 892 722 b 983 301 946 579 983 443 b 749 -21 983 78 886 -21 "},"ϊ":{"ha":289,"x_min":0,"x_max":0,"o":"m -39 903 l -39 1000 l 49 1000 l 49 903 m 246 903 l 246 1000 l 333 1000 l 333 903 m 107 0 l 107 722 l 182 722 l 182 0 "},"ϋ":{"ha":760,"x_min":0,"x_max":0,"o":"m 381 -21 b 101 233 201 -21 101 71 l 101 722 l 176 722 l 176 236 b 381 43 176 117 243 43 b 583 236 517 43 583 117 l 583 722 l 658 722 l 658 233 b 381 -21 658 71 560 -21 m 192 903 l 192 1000 l 279 1000 l 279 903 m 476 903 l 476 1000 l 564 1000 l 564 903 "},"ό":{"ha":796,"x_min":0,"x_max":0,"o":"m 65 361 b 399 743 65 615 211 743 b 731 361 590 743 731 614 b 400 -21 731 110 590 -21 b 65 361 211 -21 65 113 m 143 361 b 399 40 143 149 254 40 b 653 361 547 40 653 149 b 399 682 653 575 546 682 b 143 361 251 682 143 574 m 410 1000 l 506 1000 l 431 796 l 371 796 "},"ύ":{"ha":760,"x_min":0,"x_max":0,"o":"m 371 1000 l 467 1000 l 392 796 l 332 796 m 381 -21 b 101 233 201 -21 101 71 l 101 722 l 176 722 l 176 236 b 381 43 176 117 243 43 b 583 236 517 43 583 117 l 583 722 l 658 722 l 658 233 b 381 -21 658 71 560 -21 "},"ώ":{"ha":1064,"x_min":0,"x_max":0,"o":"m 749 -21 b 532 149 636 -21 557 35 b 313 -21 506 36 425 -21 b 79 301 174 -21 79 81 b 171 722 79 443 118 579 l 246 722 b 154 307 192 572 154 456 b 325 43 154 118 224 43 b 494 251 426 43 494 118 l 494 528 l 568 528 l 568 251 b 736 43 568 118 635 43 b 908 307 838 43 908 118 b 817 722 908 456 872 572 l 892 722 b 983 301 946 579 983 443 b 749 -21 983 78 886 -21 m 540 1000 l 636 1000 l 561 796 l 501 796 "},"Ё":{"ha":785,"x_min":0,"x_max":0,"o":"m 665 475 l 192 475 l 192 68 l 706 68 l 706 0 l 114 0 l 114 1000 l 706 1000 l 706 932 l 192 932 l 192 542 l 665 542 m 221 1139 l 221 1236 l 308 1236 l 308 1139 m 506 1139 l 506 1236 l 593 1236 l 593 1139 "},"Ђ":{"ha":1090,"x_min":0,"x_max":0,"o":"m 676 656 b 1001 332 869 656 1001 544 l 1001 150 b 846 -21 1001 40 943 -21 b 746 -6 815 -21 781 -17 l 746 58 b 835 44 776 50 813 44 b 922 157 893 44 922 72 l 922 338 b 661 588 922 506 824 588 b 406 343 507 588 406 489 l 406 0 l 328 0 l 328 931 l 24 931 l 24 1000 l 711 1000 l 711 931 l 406 931 l 406 518 b 676 656 457 606 554 656 "},"Ѓ":{"ha":678,"x_min":0,"x_max":0,"o":"m 654 1000 l 654 932 l 192 932 l 192 0 l 114 0 l 114 1000 m 417 1257 l 519 1257 l 343 1067 l 274 1067 "},"Є":{"ha":999,"x_min":0,"x_max":0,"o":"m 524 -21 b 72 492 254 -21 72 176 b 522 1021 72 833 267 1021 b 932 699 739 1021 904 897 l 854 699 b 522 953 824 864 696 953 b 154 542 324 953 171 807 l 638 542 l 638 475 l 153 475 b 524 46 158 207 314 46 b 853 332 703 46 832 156 l 932 332 b 524 -21 911 136 757 -21 "},"Ѕ":{"ha":897,"x_min":0,"x_max":0,"o":"m 743 256 b 410 500 743 378 681 440 b 101 775 183 550 101 635 b 446 1021 101 918 221 1021 b 822 771 643 1021 792 928 l 742 771 b 447 954 717 885 608 954 b 181 779 265 954 181 881 b 464 563 181 672 233 614 b 822 258 731 501 822 414 b 449 -21 822 103 690 -21 b 58 256 242 -21 90 79 l 140 256 b 449 47 167 118 288 47 b 743 256 639 47 743 132 "},"І":{"ha":306,"x_min":0,"x_max":0,"o":"m 192 1000 l 192 0 l 114 0 l 114 1000 "},"Ї":{"ha":306,"x_min":0,"x_max":0,"o":"m 192 1000 l 192 0 l 114 0 l 114 1000 m -32 1139 l -32 1236 l 56 1236 l 56 1139 m 253 1139 l 253 1236 l 340 1236 l 340 1139 "},"Ј":{"ha":724,"x_min":0,"x_max":0,"o":"m 118 265 b 332 47 125 121 208 47 b 538 279 460 47 538 129 l 538 1000 l 617 1000 l 617 279 b 329 -21 617 96 508 -21 b 40 265 154 -21 47 96 "},"Љ":{"ha":1440,"x_min":0,"x_max":0,"o":"m 763 1000 l 763 617 l 1021 617 b 1375 303 1246 617 1375 500 b 1017 0 1375 114 1232 0 l 685 0 l 685 931 l 268 931 b 200 200 250 717 221 414 b 25 0 186 54 139 0 l 25 72 b 124 185 86 72 115 92 l 197 1000 m 763 550 l 763 67 l 1018 67 b 1293 303 1193 67 1293 154 b 1024 550 1293 457 1194 550 "},"Њ":{"ha":1479,"x_min":0,"x_max":0,"o":"m 722 0 l 722 517 l 192 517 l 192 0 l 114 0 l 114 1000 l 192 1000 l 192 585 l 722 585 l 722 1000 l 801 1000 l 801 585 l 992 585 b 1413 288 1258 585 1413 503 b 1054 0 1413 113 1271 0 m 801 518 l 801 67 l 1056 67 b 1331 288 1231 67 1331 153 b 1063 518 1331 428 1233 518 "},"Ћ":{"ha":1090,"x_min":0,"x_max":0,"o":"m 328 0 l 328 931 l 24 931 l 24 1000 l 711 1000 l 711 931 l 406 931 l 406 518 b 676 656 457 606 554 656 b 1001 332 869 656 1001 544 l 1001 0 l 922 0 l 922 338 b 661 588 922 506 824 588 b 406 339 506 588 406 488 l 406 0 "},"Ќ":{"ha":828,"x_min":0,"x_max":0,"o":"m 442 1257 l 544 1257 l 368 1067 l 299 1067 m 708 0 l 292 478 l 192 478 l 192 0 l 114 0 l 114 1000 l 192 1000 l 192 544 l 296 544 l 679 1000 l 767 1000 l 357 514 l 808 0 "},"Ў":{"ha":775,"x_min":0,"x_max":0,"o":"m 383 1063 b 193 1218 279 1063 203 1106 l 261 1218 b 383 1118 265 1151 307 1118 b 504 1218 458 1118 500 1151 l 572 1218 b 383 1063 563 1106 486 1063 m 408 143 b 239 -21 354 14 317 -21 b 174 -11 219 -21 196 -17 l 174 53 b 236 43 199 47 219 43 b 369 236 296 43 318 90 l 340 236 l 10 1000 l 92 1000 l 393 296 l 688 1000 l 765 1000 "},"Џ":{"ha":951,"x_min":0,"x_max":0,"o":"m 511 0 l 511 -194 l 439 -194 l 439 0 l 114 0 l 114 1000 l 192 1000 l 192 69 l 758 69 l 758 1000 l 838 1000 l 838 0 "},"А":{"ha":918,"x_min":0,"x_max":0,"o":"m 822 0 l 710 283 l 204 283 l 92 0 l 10 0 l 411 1000 l 508 1000 l 908 0 m 231 349 l 685 349 l 460 925 "},"Б":{"ha":869,"x_min":0,"x_max":0,"o":"m 668 1000 l 668 932 l 192 932 l 192 617 l 449 617 b 804 303 675 617 804 500 b 446 0 804 114 661 0 l 114 0 l 114 1000 m 192 550 l 192 67 l 446 67 b 722 303 622 67 722 154 b 453 550 722 457 624 550 "},"В":{"ha":886,"x_min":0,"x_max":0,"o":"m 457 1000 b 775 753 664 1000 775 904 b 594 531 775 650 706 557 b 815 278 717 513 815 413 b 463 0 815 107 696 0 l 114 0 l 114 1000 m 192 494 l 192 67 l 474 67 b 733 278 642 67 733 143 b 481 494 733 408 639 494 m 192 936 l 192 558 l 476 558 b 697 751 621 558 697 643 b 467 936 697 867 613 936 "},"Г":{"ha":678,"x_min":0,"x_max":0,"o":"m 654 1000 l 654 932 l 192 932 l 192 0 l 114 0 l 114 1000 "},"Д":{"ha":871,"x_min":0,"x_max":0,"o":"m 756 1000 l 756 69 l 832 69 l 832 -194 l 760 -194 l 760 0 l 94 0 l 94 -194 l 22 -194 l 22 69 l 78 69 b 163 275 129 99 158 182 l 193 1000 m 240 283 b 156 69 236 179 207 108 l 678 69 l 678 931 l 267 931 l 240 283 "},"Е":{"ha":785,"x_min":0,"x_max":0,"o":"m 665 475 l 192 475 l 192 68 l 706 68 l 706 0 l 114 0 l 114 1000 l 706 1000 l 706 932 l 192 932 l 192 542 l 665 542 "},"Ж":{"ha":1171,"x_min":0,"x_max":0,"o":"m 142 1000 l 399 546 l 547 546 l 547 1000 l 624 1000 l 624 546 l 771 546 l 1029 1000 l 1114 1000 l 835 517 l 1154 0 l 1065 0 l 775 476 l 624 476 l 624 0 l 547 0 l 547 476 l 396 476 l 106 0 l 17 0 l 336 517 l 58 1000 "},"З":{"ha":826,"x_min":0,"x_max":0,"o":"m 754 278 b 411 -21 754 94 619 -21 b 63 221 219 -21 90 69 l 144 221 b 411 43 168 106 264 43 b 674 276 574 43 674 133 b 440 494 674 414 579 494 l 335 494 l 335 561 l 435 561 b 646 764 563 561 646 646 b 410 957 646 882 557 957 b 154 782 265 957 178 893 l 74 782 b 414 1021 100 926 221 1021 b 725 771 601 1021 725 922 b 542 531 725 646 660 561 b 754 278 665 514 754 418 "},"И":{"ha":954,"x_min":0,"x_max":0,"o":"m 763 1000 l 839 1000 l 839 0 l 763 0 l 763 840 l 188 51 l 188 0 l 114 0 l 114 1000 l 188 1000 l 188 158 l 763 949 "},"Й":{"ha":954,"x_min":0,"x_max":0,"o":"m 475 1063 b 285 1218 371 1063 294 1106 l 353 1218 b 475 1118 357 1151 399 1118 b 596 1218 550 1118 592 1151 l 664 1218 b 475 1063 654 1106 578 1063 m 763 1000 l 839 1000 l 839 0 l 763 0 l 763 840 l 188 51 l 188 0 l 114 0 l 114 1000 l 188 1000 l 188 158 l 763 949 "},"К":{"ha":828,"x_min":0,"x_max":0,"o":"m 708 0 l 292 478 l 192 478 l 192 0 l 114 0 l 114 1000 l 192 1000 l 192 544 l 296 544 l 679 1000 l 767 1000 l 357 514 l 808 0 "},"Л":{"ha":888,"x_min":0,"x_max":0,"o":"m 772 0 l 694 0 l 694 931 l 269 931 l 215 304 b 25 0 196 81 168 0 l 25 75 b 124 185 86 75 115 92 l 197 1000 l 772 1000 "},"М":{"ha":1169,"x_min":0,"x_max":0,"o":"m 554 0 l 190 899 l 190 0 l 114 0 l 114 1000 l 229 1000 l 597 83 l 944 1000 l 1056 1000 l 1056 0 l 981 0 l 981 892 l 638 0 "},"Н":{"ha":951,"x_min":0,"x_max":0,"o":"m 838 1000 l 838 0 l 758 0 l 758 475 l 192 475 l 192 0 l 114 0 l 114 1000 l 192 1000 l 192 544 l 758 544 l 758 1000 "},"О":{"ha":1046,"x_min":0,"x_max":0,"o":"m 522 -21 b 72 499 268 -21 72 167 b 524 1021 72 835 274 1021 b 974 499 772 1021 974 838 b 522 -21 974 161 775 -21 m 522 46 b 893 499 725 46 893 192 b 522 954 893 794 735 954 b 153 499 311 954 153 794 b 522 46 153 196 321 46 "},"П":{"ha":951,"x_min":0,"x_max":0,"o":"m 838 1000 l 838 0 l 758 0 l 758 931 l 192 931 l 192 0 l 114 0 l 114 1000 "},"Р":{"ha":869,"x_min":0,"x_max":0,"o":"m 450 1000 b 804 686 675 1000 804 885 b 446 383 804 497 661 383 l 192 383 l 192 0 l 114 0 l 114 1000 m 192 933 l 192 451 l 447 451 b 722 686 622 451 722 539 b 453 933 722 840 624 933 "},"С":{"ha":999,"x_min":0,"x_max":0,"o":"m 525 47 b 854 332 704 47 833 156 l 932 332 b 524 -21 911 138 757 -21 b 72 492 254 -21 72 178 b 524 1021 72 835 268 1021 b 933 699 740 1021 904 899 l 856 699 b 524 953 824 865 697 953 b 153 492 313 953 153 792 b 525 47 153 214 311 47 "},"Т":{"ha":799,"x_min":0,"x_max":0,"o":"m 775 931 l 438 931 l 438 0 l 360 0 l 360 931 l 24 931 l 24 1000 l 775 1000 "},"У":{"ha":775,"x_min":0,"x_max":0,"o":"m 408 143 b 239 -21 354 14 317 -21 b 174 -11 219 -21 196 -17 l 174 53 b 236 43 199 47 219 43 b 369 236 296 43 318 90 l 340 236 l 10 1000 l 92 1000 l 393 296 l 688 1000 l 765 1000 "},"Ф":{"ha":1106,"x_min":0,"x_max":0,"o":"m 592 1021 l 592 971 b 1033 499 836 967 1033 806 b 592 31 1033 210 842 35 l 592 -21 l 514 -21 l 514 31 b 72 499 264 35 72 210 b 514 971 72 806 268 967 l 514 1021 m 153 499 b 514 97 153 235 317 100 l 514 904 b 153 499 294 900 153 754 m 954 499 b 592 904 954 754 811 900 l 592 97 b 954 499 789 100 954 236 "},"Х":{"ha":851,"x_min":0,"x_max":0,"o":"m 474 518 l 828 0 l 733 0 l 426 457 l 114 0 l 24 0 l 381 518 l 50 1000 l 143 1000 l 431 578 l 728 1000 l 815 1000 "},"Ц":{"ha":951,"x_min":0,"x_max":0,"o":"m 114 1000 l 192 1000 l 192 68 l 758 68 l 758 1000 l 838 1000 l 838 68 l 913 68 l 913 -194 l 840 -194 l 840 0 l 114 0 "},"Ч":{"ha":881,"x_min":0,"x_max":0,"o":"m 767 1000 l 767 0 l 688 0 l 688 492 b 413 344 636 396 539 344 b 93 668 215 344 93 453 l 93 1000 l 171 1000 l 171 663 b 433 413 171 493 264 413 b 688 664 590 413 688 513 l 688 1000 "},"Ш":{"ha":1363,"x_min":0,"x_max":0,"o":"m 1249 1000 l 1249 0 l 114 0 l 114 1000 l 192 1000 l 192 69 l 643 69 l 643 1000 l 719 1000 l 719 69 l 1169 69 l 1169 1000 "},"Щ":{"ha":1363,"x_min":0,"x_max":0,"o":"m 1249 1000 l 1249 68 l 1324 68 l 1324 -194 l 1251 -194 l 1251 0 l 114 0 l 114 1000 l 192 1000 l 192 69 l 643 69 l 643 1000 l 719 1000 l 719 69 l 1169 69 l 1169 1000 "},"Ъ":{"ha":1115,"x_min":0,"x_max":0,"o":"m 14 1000 l 438 1000 l 438 617 l 694 617 b 1049 303 921 617 1049 500 b 690 0 1049 114 907 0 l 358 0 l 358 932 l 14 932 m 438 550 l 438 67 l 692 67 b 967 303 867 67 967 154 b 699 550 967 457 868 550 "},"Ы":{"ha":1076,"x_min":0,"x_max":0,"o":"m 961 1000 l 961 0 l 883 0 l 883 1000 m 192 1000 l 192 617 l 449 617 b 804 303 675 617 804 500 b 446 0 804 114 661 0 l 114 0 l 114 1000 m 192 550 l 192 67 l 446 67 b 722 303 622 67 722 154 b 453 550 722 457 624 550 "},"Ь":{"ha":869,"x_min":0,"x_max":0,"o":"m 192 1000 l 192 617 l 449 617 b 804 303 675 617 804 500 b 446 0 804 114 661 0 l 114 0 l 114 1000 m 192 550 l 192 67 l 446 67 b 722 303 622 67 722 154 b 453 550 722 457 624 550 "},"Э":{"ha":999,"x_min":0,"x_max":0,"o":"m 489 -21 b 65 332 242 -21 88 132 l 146 332 b 489 46 167 156 299 46 b 846 475 703 46 838 210 l 361 475 l 361 542 l 844 542 b 481 953 831 813 682 953 b 144 699 306 953 175 864 l 65 699 b 481 1021 93 899 263 1021 b 926 501 738 1021 926 842 b 489 -21 926 190 765 -21 "},"Ю":{"ha":1407,"x_min":0,"x_max":0,"o":"m 897 -21 b 461 475 663 -21 471 157 l 193 475 l 193 0 l 114 0 l 114 1000 l 193 1000 l 193 544 l 461 544 b 899 1021 479 864 672 1021 b 1335 499 1133 1021 1335 838 b 897 -21 1335 151 1136 -21 m 897 46 b 1254 499 1085 46 1254 181 b 897 954 1254 794 1094 954 b 542 499 688 954 542 794 b 897 46 542 196 710 46 "},"Я":{"ha":889,"x_min":0,"x_max":0,"o":"m 24 0 l 299 421 b 86 693 193 450 86 525 b 403 1000 86 894 214 1000 l 775 1000 l 775 0 l 697 0 l 697 410 l 381 410 l 117 0 m 167 693 b 393 478 167 556 263 478 l 697 478 l 697 933 l 397 933 b 167 693 240 933 167 828 "},"а":{"ha":735,"x_min":0,"x_max":0,"o":"m 86 535 b 367 743 97 658 207 743 b 635 506 528 743 635 653 l 635 0 l 574 0 l 563 119 b 307 -21 518 44 436 -21 b 65 183 167 -21 65 56 b 343 415 65 307 140 382 l 560 451 l 560 514 b 363 682 560 618 486 682 b 164 535 247 682 174 622 m 326 43 b 560 257 442 43 560 131 l 560 392 l 365 358 b 143 189 193 329 143 275 b 326 43 143 92 218 43 "},"б":{"ha":793,"x_min":0,"x_max":0,"o":"m 65 404 b 343 907 65 713 157 864 b 536 1000 450 932 536 956 l 622 1000 b 369 856 622 917 492 885 b 136 507 211 817 168 726 b 411 676 185 611 292 676 b 728 329 592 676 728 540 b 399 -21 728 119 581 -21 b 65 404 201 -21 65 100 m 143 328 b 399 40 143 150 256 40 b 650 329 542 40 650 156 b 404 614 650 501 549 614 b 143 328 263 614 143 511 "},"в":{"ha":699,"x_min":0,"x_max":0,"o":"m 107 0 l 107 722 l 381 722 b 619 549 528 722 619 665 b 475 379 619 464 565 404 b 644 201 571 358 644 299 b 381 0 644 64 538 0 m 378 64 b 569 200 482 64 569 92 b 386 343 569 292 482 343 l 182 343 l 182 64 l 378 64 m 544 543 b 378 657 544 622 490 657 l 182 657 l 182 408 l 376 408 b 544 543 464 408 544 460 "},"г":{"ha":533,"x_min":0,"x_max":0,"o":"m 107 0 l 107 722 l 507 722 l 507 657 l 182 657 l 182 0 "},"д":{"ha":747,"x_min":0,"x_max":0,"o":"m 89 65 b 136 185 115 89 132 110 l 164 722 l 639 722 l 639 65 l 699 65 l 699 -194 l 629 -194 l 629 0 l 96 0 l 96 -194 l 25 -194 l 25 65 m 210 194 b 157 65 207 128 183 92 l 564 65 l 564 657 l 233 657 l 210 194 "},"е":{"ha":793,"x_min":0,"x_max":0,"o":"m 708 197 b 408 -21 674 65 563 -21 b 65 361 213 -21 65 114 b 394 743 65 608 208 743 b 721 343 579 743 721 618 l 142 343 b 410 43 149 138 265 43 b 629 197 518 43 601 101 m 394 682 b 143 406 263 682 157 586 l 643 406 b 394 682 633 590 529 682 "},"ж":{"ha":986,"x_min":0,"x_max":0,"o":"m 135 722 l 343 421 l 456 421 l 456 722 l 526 722 l 526 421 l 642 421 l 851 722 l 936 722 l 703 390 l 983 0 l 894 0 l 640 356 l 526 356 l 526 0 l 456 0 l 456 356 l 346 356 l 92 0 l 3 0 l 283 390 l 49 722 "},"з":{"ha":675,"x_min":0,"x_max":0,"o":"m 346 682 b 136 522 229 682 154 618 l 56 522 b 347 743 79 657 189 743 b 597 551 500 743 597 667 b 450 379 597 465 542 404 b 622 199 544 360 622 299 b 344 -21 622 67 514 -21 b 51 213 174 -21 74 76 l 131 213 b 343 43 147 111 219 43 b 546 197 454 43 546 89 b 350 343 546 289 456 343 l 282 343 l 282 410 l 347 410 b 522 546 439 410 522 461 b 346 682 522 626 463 682 "},"и":{"ha":768,"x_min":0,"x_max":0,"o":"m 107 0 l 107 722 l 181 722 l 181 139 l 588 689 l 588 722 l 661 722 l 661 0 l 588 0 l 588 583 l 181 33 l 181 0 "},"й":{"ha":768,"x_min":0,"x_max":0,"o":"m 107 0 l 107 722 l 181 722 l 181 139 l 588 689 l 588 722 l 661 722 l 661 0 l 588 0 l 588 583 l 181 33 l 181 0 m 392 826 b 201 982 288 826 211 869 l 269 982 b 392 882 274 915 315 882 b 513 982 467 882 508 915 l 581 982 b 392 826 571 869 494 826 "},"к":{"ha":678,"x_min":0,"x_max":0,"o":"m 107 0 l 107 722 l 182 722 l 182 421 l 253 421 l 536 722 l 629 722 l 315 390 l 675 0 l 579 0 l 249 356 l 182 356 l 182 0 "},"л":{"ha":726,"x_min":0,"x_max":0,"o":"m 544 0 l 544 657 l 215 657 l 172 171 b 24 0 161 54 125 0 l 24 65 b 104 169 67 65 97 79 l 149 722 l 619 722 l 619 0 "},"м":{"ha":910,"x_min":0,"x_max":0,"o":"m 417 0 l 179 625 l 179 0 l 107 0 l 107 722 l 219 722 l 458 92 l 690 722 l 803 722 l 803 0 l 729 0 l 729 617 l 497 0 "},"н":{"ha":775,"x_min":0,"x_max":0,"o":"m 107 0 l 107 722 l 182 722 l 182 410 l 593 410 l 593 722 l 668 722 l 668 0 l 593 0 l 593 344 l 182 344 l 182 0 "},"о":{"ha":796,"x_min":0,"x_max":0,"o":"m 65 361 b 399 743 65 615 211 743 b 731 361 590 743 731 614 b 400 -21 731 110 590 -21 b 65 361 211 -21 65 113 m 143 361 b 399 40 143 149 254 40 b 653 361 547 40 653 149 b 399 682 653 575 546 682 b 143 361 251 682 143 574 "},"п":{"ha":775,"x_min":0,"x_max":0,"o":"m 107 0 l 107 722 l 668 722 l 668 0 l 593 0 l 593 657 l 182 657 l 182 0 "},"р":{"ha":806,"x_min":0,"x_max":0,"o":"m 168 722 l 181 588 b 436 743 225 678 314 743 b 740 369 614 743 740 618 b 428 -21 740 114 604 -21 b 182 129 311 -21 226 40 l 182 -250 l 107 -250 l 107 722 m 663 371 b 421 679 663 583 560 679 b 176 361 299 679 176 592 b 417 43 176 150 278 43 b 663 371 556 43 663 149 "},"с":{"ha":750,"x_min":0,"x_max":0,"o":"m 685 213 b 386 -21 663 78 547 -21 b 65 356 207 -21 65 110 b 388 743 65 611 208 743 b 681 522 542 743 657 657 l 599 522 b 390 681 581 618 500 681 b 143 353 251 681 143 575 b 389 43 143 140 256 43 b 606 213 501 43 588 111 "},"т":{"ha":658,"x_min":0,"x_max":0,"o":"m 292 0 l 292 657 l 21 657 l 21 722 l 639 722 l 639 657 l 367 657 l 367 0 "},"у":{"ha":690,"x_min":0,"x_max":0,"o":"m 413 -6 b 211 -271 343 -203 315 -271 b 136 -257 186 -271 161 -265 l 136 -196 b 207 -208 160 -204 186 -208 b 340 0 269 -208 288 -157 l 311 0 l 24 722 l 104 722 l 363 58 l 592 722 l 667 722 "},"ф":{"ha":1163,"x_min":0,"x_max":0,"o":"m 618 1000 l 618 594 b 833 743 657 681 731 743 b 1096 369 983 743 1096 618 b 826 -21 1096 113 974 -21 b 618 124 728 -21 656 36 l 618 -250 l 543 -250 l 543 124 b 335 -21 504 36 432 -21 b 65 369 188 -21 65 113 b 328 743 65 618 178 743 b 543 594 429 743 503 681 l 543 1000 m 1018 371 b 818 679 1018 582 929 679 b 615 361 719 679 615 592 b 815 42 615 149 699 42 b 1018 371 925 42 1018 147 m 142 371 b 346 42 142 147 236 42 b 546 361 463 42 546 149 b 343 679 546 592 442 679 b 142 371 232 679 142 582 "},"х":{"ha":710,"x_min":0,"x_max":0,"o":"m 394 382 l 686 0 l 594 0 l 349 325 l 113 0 l 24 0 l 304 379 l 38 722 l 131 722 l 351 435 l 557 722 l 644 722 "},"ц":{"ha":775,"x_min":0,"x_max":0,"o":"m 668 722 l 668 65 l 728 65 l 728 -194 l 657 -194 l 657 0 l 107 0 l 107 722 l 182 722 l 182 65 l 593 65 l 593 722 "},"ч":{"ha":757,"x_min":0,"x_max":0,"o":"m 169 722 l 169 451 b 358 260 169 322 243 260 b 575 489 482 260 575 361 l 575 722 l 650 722 l 650 0 l 575 0 l 575 326 b 342 196 524 236 431 196 b 94 450 200 196 94 279 l 94 722 "},"ш":{"ha":1121,"x_min":0,"x_max":0,"o":"m 1014 722 l 1014 0 l 107 0 l 107 722 l 182 722 l 182 65 l 524 65 l 524 722 l 599 722 l 599 65 l 939 65 l 939 722 "},"щ":{"ha":1121,"x_min":0,"x_max":0,"o":"m 1014 722 l 1014 65 l 1074 65 l 1074 -194 l 1003 -194 l 1003 0 l 107 0 l 107 722 l 182 722 l 182 65 l 524 65 l 524 722 l 599 722 l 599 65 l 939 65 l 939 722 "},"ъ":{"ha":871,"x_min":0,"x_max":0,"o":"m 349 722 l 349 475 l 514 475 b 808 246 711 475 808 374 b 500 0 808 89 703 0 l 274 0 l 274 657 l 14 657 l 14 722 m 349 413 l 349 63 l 501 63 b 731 244 663 63 731 126 b 508 413 731 342 667 413 "},"ы":{"ha":889,"x_min":0,"x_max":0,"o":"m 704 0 l 704 722 l 779 722 l 779 0 m 182 722 l 182 475 l 347 475 b 642 246 544 475 642 374 b 333 0 642 89 536 0 l 107 0 l 107 722 m 182 413 l 182 63 l 335 63 b 564 244 496 63 564 126 b 342 413 564 342 500 413 "},"ь":{"ha":707,"x_min":0,"x_max":0,"o":"m 182 722 l 182 475 l 347 475 b 642 246 544 475 642 374 b 333 0 642 89 536 0 l 107 0 l 107 722 m 182 413 l 182 63 l 335 63 b 564 244 496 63 564 126 b 342 413 564 342 500 413 "},"э":{"ha":750,"x_min":0,"x_max":0,"o":"m 144 213 b 372 43 161 111 256 43 b 607 342 507 43 603 136 l 293 342 l 293 404 l 606 404 b 375 681 592 592 503 681 b 151 522 254 681 169 618 l 69 522 b 378 743 93 657 213 743 b 685 356 558 743 685 611 b 372 -21 685 110 556 -21 b 65 213 210 -21 88 78 "},"ю":{"ha":1079,"x_min":0,"x_max":0,"o":"m 107 0 l 107 722 l 182 722 l 182 410 l 376 410 b 694 743 394 631 526 743 b 1014 361 879 743 1014 614 b 696 -21 1014 110 881 -21 b 375 344 517 -21 381 106 l 182 344 l 182 0 m 453 361 b 696 40 453 149 558 40 b 936 361 836 40 936 149 b 694 682 936 575 836 682 b 453 361 556 682 453 574 "},"я":{"ha":732,"x_min":0,"x_max":0,"o":"m 24 0 l 249 288 b 89 492 160 308 89 385 b 369 722 89 642 188 722 l 625 722 l 625 0 l 550 0 l 550 281 l 332 281 l 110 0 m 167 494 b 321 346 167 403 228 346 l 550 346 l 550 661 l 369 661 b 167 494 222 661 167 599 "},"ё":{"ha":793,"x_min":0,"x_max":0,"o":"m 708 197 b 408 -21 674 65 563 -21 b 65 361 213 -21 65 114 b 394 743 65 608 208 743 b 721 343 579 743 721 618 l 142 343 b 410 43 149 138 265 43 b 629 197 518 43 601 101 m 394 682 b 143 406 263 682 157 586 l 643 406 b 394 682 633 590 529 682 m 207 903 l 207 1000 l 294 1000 l 294 903 m 492 903 l 492 1000 l 579 1000 l 579 903 "},"ђ":{"ha":778,"x_min":0,"x_max":0,"o":"m 115 0 l 115 844 l 31 844 l 31 910 l 115 910 l 115 1000 l 190 1000 l 190 910 l 413 910 l 413 844 l 190 844 l 190 601 b 426 743 239 693 329 743 b 676 490 579 743 676 647 l 676 -96 b 513 -269 676 -215 617 -269 b 422 -254 485 -269 453 -264 l 422 -190 b 511 -206 453 -200 489 -206 b 601 -92 571 -206 601 -176 l 601 489 b 410 679 601 611 528 679 b 190 449 301 679 190 590 l 190 0 "},"ѓ":{"ha":533,"x_min":0,"x_max":0,"o":"m 346 1021 l 449 1021 l 272 831 l 203 831 m 107 0 l 107 722 l 507 722 l 507 657 l 182 657 l 182 0 "},"є":{"ha":750,"x_min":0,"x_max":0,"o":"m 685 213 b 386 -21 663 78 547 -21 b 65 356 207 -21 65 110 b 388 743 65 611 208 743 b 681 522 542 743 657 657 l 599 522 b 390 681 581 618 500 681 b 144 404 261 681 160 592 l 457 404 l 457 342 l 143 342 b 389 43 146 136 257 43 b 606 213 501 43 588 111 "},"ѕ":{"ha":690,"x_min":0,"x_max":0,"o":"m 547 190 b 311 350 547 283 475 321 b 76 551 164 375 76 438 b 339 743 76 660 164 743 b 621 543 489 743 600 665 l 543 543 b 336 682 531 624 450 682 b 153 558 210 682 153 625 b 354 411 153 479 200 440 b 625 194 539 376 625 319 b 342 -21 625 79 519 -21 b 51 192 172 -21 68 67 l 129 192 b 343 40 140 100 219 40 b 547 190 476 40 547 113 "},"і":{"ha":289,"x_min":0,"x_max":0,"o":"m 100 897 l 100 1000 l 190 1000 l 190 897 m 107 0 l 107 722 l 182 722 l 182 0 "},"ї":{"ha":289,"x_min":0,"x_max":0,"o":"m -39 903 l -39 1000 l 49 1000 l 49 903 m 246 903 l 246 1000 l 333 1000 l 333 903 m 107 0 l 107 722 l 182 722 l 182 0 "},"ј":{"ha":289,"x_min":0,"x_max":0,"o":"m -72 -192 b 15 -206 -43 -200 -7 -206 b 107 -93 76 -206 107 -176 l 107 722 l 182 722 l 182 -97 b 26 -271 182 -208 126 -271 b -72 -256 -4 -271 -37 -267 m 99 897 l 99 1000 l 189 1000 l 189 897 "},"љ":{"ha":1111,"x_min":0,"x_max":0,"o":"m 586 722 l 586 475 l 751 475 b 1046 246 949 475 1046 374 b 738 0 1046 89 940 0 l 511 0 l 511 657 l 218 657 l 179 181 b 24 0 169 64 136 0 l 24 67 b 104 171 65 67 96 69 l 149 722 m 586 413 l 586 63 l 739 63 b 968 244 900 63 968 126 b 746 413 968 342 904 413 "},"њ":{"ha":1156,"x_min":0,"x_max":0,"o":"m 107 0 l 107 722 l 182 722 l 182 410 l 556 410 l 556 722 l 631 722 l 631 475 l 796 475 b 1090 246 993 475 1090 374 b 782 0 1090 89 985 0 l 556 0 l 556 344 l 182 344 l 182 0 m 631 413 l 631 63 l 783 63 b 1013 244 944 63 1013 126 b 790 413 1013 342 949 413 "},"ћ":{"ha":778,"x_min":0,"x_max":0,"o":"m 117 0 l 117 846 l 32 846 l 32 910 l 117 910 l 117 1000 l 192 1000 l 192 910 l 414 910 l 414 846 l 192 846 l 192 603 b 428 743 239 693 331 743 b 678 492 579 743 678 649 l 678 0 l 603 0 l 603 489 b 410 679 603 610 532 679 b 192 449 303 679 192 590 l 192 0 "},"ќ":{"ha":678,"x_min":0,"x_max":0,"o":"m 404 1021 l 507 1021 l 331 831 l 261 831 m 107 0 l 107 722 l 182 722 l 182 421 l 253 421 l 536 722 l 629 722 l 315 390 l 675 0 l 579 0 l 249 356 l 182 356 l 182 0 "},"ў":{"ha":690,"x_min":0,"x_max":0,"o":"m 413 -6 b 211 -271 343 -203 315 -271 b 136 -257 186 -271 161 -265 l 136 -196 b 207 -208 160 -204 186 -208 b 340 0 269 -208 288 -157 l 311 0 l 24 722 l 104 722 l 363 58 l 592 722 l 667 722 m 351 826 b 161 982 247 826 171 869 l 229 982 b 351 882 233 915 275 882 b 472 982 426 882 468 915 l 540 982 b 351 826 531 869 454 826 "},"џ":{"ha":775,"x_min":0,"x_max":0,"o":"m 668 722 l 668 0 l 422 0 l 422 -194 l 353 -194 l 353 0 l 107 0 l 107 722 l 182 722 l 182 67 l 593 67 l 593 722 "},"Ѣ":{"ha":1083,"x_min":0,"x_max":0,"o":"m 326 0 l 326 929 l 24 929 l 24 1000 l 711 1000 l 711 929 l 406 929 l 406 617 l 596 617 b 1017 303 863 617 1017 533 b 658 0 1017 114 875 0 m 406 550 l 406 67 l 660 67 b 935 303 835 67 935 154 b 667 550 935 457 838 550 "},"ѣ":{"ha":707,"x_min":0,"x_max":0,"o":"m 182 683 l 182 475 l 347 475 b 642 246 544 475 642 374 b 333 0 642 89 536 0 l 107 0 l 107 683 l 1 683 l 1 749 l 107 749 l 107 904 l 182 904 l 182 749 l 349 749 l 349 683 m 182 413 l 182 63 l 335 63 b 564 244 496 63 564 126 b 342 413 564 342 500 413 "},"Ѳ":{"ha":1046,"x_min":0,"x_max":0,"o":"m 522 -21 b 72 499 268 -21 72 167 b 524 1021 72 835 274 1021 b 974 499 772 1021 974 838 b 522 -21 974 161 775 -21 m 522 46 b 893 476 719 46 885 183 l 153 476 b 522 46 160 188 326 46 m 522 954 b 153 544 322 954 168 811 l 892 544 b 522 954 876 811 722 954 "},"ѳ":{"ha":796,"x_min":0,"x_max":0,"o":"m 65 361 b 399 743 65 615 211 743 b 731 361 590 743 731 614 b 400 -21 731 110 590 -21 b 65 361 211 -21 65 113 m 399 40 b 653 338 542 40 644 140 l 143 338 b 399 40 151 140 261 40 m 399 682 b 143 399 261 682 156 586 l 651 399 b 399 682 639 588 536 682 "},"Ѵ":{"ha":871,"x_min":0,"x_max":0,"o":"m 92 1000 l 435 68 l 783 1000 l 860 1000 l 488 0 l 382 0 l 10 1000 "},"ѵ":{"ha":690,"x_min":0,"x_max":0,"o":"m 667 722 l 396 0 l 294 0 l 24 722 l 106 722 l 346 64 l 589 722 "},"Ґ":{"ha":678,"x_min":0,"x_max":0,"o":"m 582 1000 l 582 1194 l 654 1194 l 654 932 l 192 932 l 192 0 l 114 0 l 114 1000 "},"ґ":{"ha":533,"x_min":0,"x_max":0,"o":"m 107 0 l 107 722 l 438 722 l 438 910 l 507 910 l 507 657 l 182 657 l 182 0 "},"Ғ":{"ha":678,"x_min":0,"x_max":0,"o":"m 654 932 l 192 932 l 192 542 l 488 542 l 488 475 l 192 475 l 192 0 l 114 0 l 114 475 l -11 475 l -11 542 l 114 542 l 114 1000 l 654 1000 "},"ғ":{"ha":533,"x_min":0,"x_max":0,"o":"m 182 657 l 182 410 l 394 410 l 394 344 l 182 344 l 182 0 l 107 0 l 107 344 l 38 344 l 38 410 l 107 410 l 107 722 l 507 722 l 507 657 "},"Җ":{"ha":1168,"x_min":0,"x_max":0,"o":"m 142 1000 l 399 546 l 547 546 l 547 1000 l 624 1000 l 624 546 l 771 546 l 1029 1000 l 1114 1000 l 835 517 l 1113 69 l 1186 69 l 1186 -194 l 1114 -194 l 1114 0 l 1065 0 l 775 476 l 624 476 l 624 0 l 547 0 l 547 476 l 396 476 l 106 0 l 17 0 l 336 517 l 58 1000 "},"җ":{"ha":989,"x_min":0,"x_max":0,"o":"m 135 722 l 343 421 l 456 421 l 456 722 l 526 722 l 526 421 l 642 421 l 851 722 l 936 722 l 703 390 l 938 65 l 1004 65 l 1004 -194 l 935 -194 l 935 0 l 894 0 l 640 356 l 526 356 l 526 0 l 456 0 l 456 356 l 346 356 l 92 0 l 3 0 l 283 390 l 49 722 "},"Ҙ":{"ha":822,"x_min":0,"x_max":0,"o":"m 599 -197 b 442 -335 599 -275 533 -335 b 275 -214 354 -335 286 -293 l 338 -214 b 442 -282 343 -256 386 -282 b 538 -199 499 -282 538 -247 b 386 -112 538 -146 496 -112 l 393 -21 b 63 221 213 -15 89 74 l 142 221 b 410 43 165 106 264 43 b 674 276 574 43 674 133 b 440 494 674 414 578 494 l 333 494 l 333 561 l 435 561 b 646 764 561 561 646 646 b 410 957 646 882 557 957 b 151 782 265 957 174 893 l 74 782 b 413 1021 100 926 221 1021 b 725 771 600 1021 725 922 b 542 531 725 646 660 561 b 753 278 664 514 753 418 b 453 -18 753 107 636 -4 l 453 -68 b 599 -197 549 -81 599 -128 "},"ҙ":{"ha":675,"x_min":0,"x_max":0,"o":"m 522 -197 b 365 -335 522 -275 456 -335 b 197 -214 276 -335 210 -293 l 261 -214 b 364 -282 267 -256 308 -282 b 460 -199 422 -282 460 -247 b 308 -112 460 -146 418 -112 l 317 -19 b 51 213 163 -10 72 85 l 131 213 b 343 43 147 111 219 43 b 546 197 454 43 546 89 b 350 343 546 289 456 343 l 282 343 l 282 410 l 347 410 b 522 546 439 410 522 461 b 346 682 522 626 463 682 b 136 522 229 682 154 618 l 56 522 b 347 743 79 657 189 743 b 597 551 500 743 597 667 b 450 379 597 465 542 404 b 622 199 544 360 622 299 b 375 -19 622 72 525 -11 l 375 -68 b 522 -197 472 -81 522 -128 "},"Қ":{"ha":828,"x_min":0,"x_max":0,"o":"m 767 1000 l 357 514 l 751 69 l 825 69 l 825 -194 l 753 -194 l 753 0 l 708 0 l 292 478 l 192 478 l 192 0 l 114 0 l 114 1000 l 192 1000 l 192 544 l 296 544 l 679 1000 "},"қ":{"ha":681,"x_min":0,"x_max":0,"o":"m 107 0 l 107 722 l 182 722 l 182 419 l 253 419 l 535 722 l 628 722 l 315 389 l 614 65 l 689 65 l 689 -194 l 619 -194 l 619 0 l 578 0 l 249 354 l 182 354 l 182 0 "},"Ҝ":{"ha":863,"x_min":0,"x_max":0,"o":"m 264 100 l 264 476 l 192 476 l 192 0 l 114 0 l 114 1000 l 192 1000 l 192 544 l 264 544 l 264 821 l 325 821 l 325 544 l 381 599 l 713 1000 l 801 1000 l 394 515 b 846 0 544 343 694 171 l 747 0 l 385 419 l 325 476 l 325 100 "},"ҝ":{"ha":714,"x_min":0,"x_max":0,"o":"m 286 557 l 286 422 l 290 422 b 571 722 383 522 478 621 l 665 722 l 353 389 l 711 0 l 614 0 l 290 347 l 286 347 l 286 74 l 226 74 l 226 354 l 182 354 l 182 0 l 107 0 l 107 722 l 182 722 l 182 419 l 226 419 l 226 557 "},"Ҡ":{"ha":1069,"x_min":0,"x_max":0,"o":"m 950 0 l 533 478 l 433 478 l 433 0 l 356 0 l 356 932 l 10 932 l 10 1000 l 433 1000 l 433 544 l 538 544 l 921 1000 l 1008 1000 l 599 514 l 1050 0 "},"ҡ":{"ha":844,"x_min":0,"x_max":0,"o":"m 274 0 l 274 657 l 14 657 l 14 722 l 349 722 l 349 421 l 419 421 l 703 722 l 796 722 l 482 390 l 842 0 l 746 0 l 415 356 l 349 356 l 349 0 "},"Ң":{"ha":951,"x_min":0,"x_max":0,"o":"m 838 1000 l 838 69 l 914 69 l 914 -194 l 840 -194 l 840 0 l 758 0 l 758 475 l 192 475 l 192 0 l 114 0 l 114 1000 l 192 1000 l 192 544 l 758 544 l 758 1000 "},"ң":{"ha":775,"x_min":0,"x_max":0,"o":"m 107 0 l 107 722 l 182 722 l 182 410 l 593 410 l 593 722 l 668 722 l 668 65 l 728 65 l 728 -194 l 657 -194 l 657 0 l 593 0 l 593 344 l 182 344 l 182 0 "},"Ҫ":{"ha":999,"x_min":0,"x_max":0,"o":"m 775 -207 b 604 -331 751 -286 683 -331 b 446 -189 511 -331 446 -276 b 564 -17 446 -125 492 -62 b 526 -19 551 -18 539 -19 b 72 492 256 -19 72 175 b 522 1021 72 833 267 1021 b 932 699 739 1021 904 897 l 854 699 b 522 953 824 864 696 953 b 151 492 311 953 151 790 b 524 46 151 214 310 46 b 853 332 703 46 832 156 l 933 332 b 725 26 919 200 838 81 b 510 -181 615 -26 510 -90 b 608 -275 510 -243 549 -275 b 708 -207 661 -275 696 -247 "},"ҫ":{"ha":750,"x_min":0,"x_max":0,"o":"m 604 -207 b 435 -331 581 -286 513 -331 b 275 -189 340 -331 275 -276 b 390 -19 275 -125 321 -64 b 65 356 207 -19 65 104 b 388 743 65 610 207 743 b 679 521 542 743 656 656 l 599 521 b 389 679 581 618 499 679 b 142 351 251 679 142 575 b 389 43 142 140 254 43 b 604 213 501 43 588 111 l 685 213 b 507 0 668 115 607 42 b 339 -181 404 -43 339 -112 b 438 -275 339 -243 378 -275 b 539 -207 492 -275 525 -247 "},"Ү":{"ha":865,"x_min":0,"x_max":0,"o":"m 94 1000 l 431 464 b 774 1000 546 642 660 821 l 854 1000 l 471 392 l 471 0 l 392 0 l 392 393 l 10 1000 "},"ү":{"ha":690,"x_min":0,"x_max":0,"o":"m 307 -250 l 307 0 l 24 722 l 104 722 l 346 74 l 589 722 l 667 722 l 382 0 l 382 -250 "},"Ұ":{"ha":865,"x_min":0,"x_max":0,"o":"m 94 1000 l 431 464 l 774 1000 l 854 1000 l 504 446 l 674 446 l 674 379 l 471 379 l 471 0 l 392 0 l 392 379 l 189 379 l 189 446 l 360 446 l 10 1000 "},"ұ":{"ha":690,"x_min":0,"x_max":0,"o":"m 667 722 l 407 65 l 536 65 l 536 0 l 382 0 l 382 -250 l 307 -250 l 307 0 l 151 0 l 151 65 l 282 65 l 24 722 l 104 722 l 346 74 l 589 722 "},"Ҳ":{"ha":850,"x_min":0,"x_max":0,"o":"m 474 518 l 781 69 l 853 69 l 853 -194 l 781 -194 l 781 0 l 733 0 l 426 457 l 114 0 l 24 0 l 381 518 l 50 1000 l 143 1000 l 431 578 l 728 1000 l 815 1000 "},"ҳ":{"ha":710,"x_min":0,"x_max":0,"o":"m 394 382 l 638 65 l 707 65 l 707 -194 l 638 -194 l 638 0 l 594 0 l 349 325 l 113 0 l 24 0 l 304 379 l 38 722 l 131 722 l 351 435 l 557 722 l 644 722 "},"Ҹ":{"ha":881,"x_min":0,"x_max":0,"o":"m 406 100 l 406 344 b 93 667 213 346 93 454 l 93 1000 l 171 1000 l 171 688 b 406 413 171 510 246 424 l 406 821 l 467 821 l 467 414 b 688 661 604 426 688 522 l 688 1000 l 767 1000 l 767 0 l 688 0 l 688 490 b 467 349 644 408 567 360 l 467 100 "},"ҹ":{"ha":756,"x_min":0,"x_max":0,"o":"m 399 557 l 399 263 b 574 496 501 282 574 376 l 574 722 l 649 722 l 649 0 l 574 0 l 574 326 b 399 201 535 254 467 215 l 399 74 l 339 74 l 339 196 b 94 450 199 197 94 281 l 94 722 l 169 722 l 169 451 b 339 260 169 329 233 267 l 339 557 "},"Һ":{"ha":876,"x_min":0,"x_max":0,"o":"m 114 0 l 114 1000 l 193 1000 l 193 515 b 468 656 244 604 344 656 b 788 332 658 656 788 547 l 788 0 l 710 0 l 710 338 b 453 588 710 510 611 588 b 193 335 296 588 193 489 l 193 0 "},"һ":{"ha":768,"x_min":0,"x_max":0,"o":"m 107 0 l 107 1000 l 182 1000 l 182 483 b 418 625 229 575 321 625 b 668 372 571 625 668 529 l 668 0 l 593 0 l 593 371 b 401 561 593 492 522 561 b 182 329 293 561 182 474 l 182 0 "},"Ӏ":{"ha":306,"x_min":0,"x_max":0,"o":"m 192 1000 l 192 0 l 114 0 l 114 1000 "},"Ӌ":{"ha":881,"x_min":0,"x_max":0,"o":"m 767 1000 l 767 69 l 842 69 l 842 -194 l 769 -194 l 769 0 l 688 0 l 688 492 b 413 344 636 396 539 344 b 93 668 215 344 93 453 l 93 1000 l 171 1000 l 171 663 b 433 413 171 493 264 413 b 688 669 593 413 688 514 l 688 1000 "},"ӌ":{"ha":756,"x_min":0,"x_max":0,"o":"m 169 722 l 169 451 b 358 260 169 322 243 260 b 574 492 482 260 574 363 l 574 722 l 649 722 l 649 65 l 708 65 l 708 -194 l 639 -194 l 639 0 l 574 0 l 574 326 b 342 196 524 236 431 196 b 94 450 200 196 94 279 l 94 722 "},"ӏ":{"ha":289,"x_min":0,"x_max":0,"o":"m 182 0 l 107 0 l 107 1000 l 182 1000 "},"Ә":{"ha":1114,"x_min":0,"x_max":0,"o":"m 489 953 b 149 721 301 953 190 872 l 69 721 b 489 1021 110 914 269 1021 b 926 501 744 1021 926 842 b 486 -21 926 190 754 -21 b 56 499 217 -21 71 157 l 846 499 b 489 953 844 801 699 953 m 485 47 b 842 432 681 47 819 193 l 143 432 b 485 47 157 174 292 47 "},"ә":{"ha":793,"x_min":0,"x_max":0,"o":"m 82 525 b 396 743 118 657 242 743 b 726 361 589 743 726 607 b 401 -21 726 114 586 -21 b 69 379 215 -21 69 104 l 649 379 b 393 679 643 585 538 679 b 163 525 286 679 189 621 m 400 40 b 647 317 532 40 635 136 l 146 317 b 400 40 157 132 265 40 "},"Ӣ":{"ha":954,"x_min":0,"x_max":0,"o":"m 310 1143 l 310 1208 l 646 1208 l 646 1143 m 763 1000 l 839 1000 l 839 0 l 763 0 l 763 840 l 188 51 l 188 0 l 114 0 l 114 1000 l 188 1000 l 188 158 l 763 949 "},"ӣ":{"ha":768,"x_min":0,"x_max":0,"o":"m 215 907 l 215 972 l 551 972 l 551 907 m 107 0 l 107 722 l 181 722 l 181 139 l 588 689 l 588 722 l 661 722 l 661 0 l 588 0 l 588 583 l 181 33 l 181 0 "},"Ө":{"ha":1046,"x_min":0,"x_max":0,"o":"m 522 -21 b 72 499 268 -21 72 167 b 524 1021 72 835 274 1021 b 974 499 772 1021 974 838 b 522 -21 974 161 775 -21 m 522 46 b 893 476 719 46 885 183 l 153 476 b 522 46 160 188 326 46 m 522 954 b 153 544 322 954 168 811 l 892 544 b 522 954 876 811 722 954 "},"ө":{"ha":796,"x_min":0,"x_max":0,"o":"m 65 361 b 399 743 65 615 211 743 b 731 361 590 743 731 614 b 400 -21 731 110 590 -21 b 65 361 211 -21 65 113 m 399 40 b 653 338 542 40 644 140 l 143 338 b 399 40 151 140 261 40 m 399 682 b 143 399 261 682 156 586 l 651 399 b 399 682 639 588 536 682 "},"Ӯ":{"ha":775,"x_min":0,"x_max":0,"o":"m 221 1143 l 221 1208 l 557 1208 l 557 1143 m 408 143 b 239 -21 354 14 317 -21 b 174 -11 219 -21 196 -17 l 174 53 b 236 43 199 47 219 43 b 369 236 296 43 318 90 l 340 236 l 10 1000 l 92 1000 l 393 296 l 688 1000 l 765 1000 "},"ӯ":{"ha":690,"x_min":0,"x_max":0,"o":"m 413 -6 b 211 -271 343 -203 315 -271 b 136 -257 186 -271 161 -265 l 136 -196 b 207 -208 160 -204 186 -208 b 340 0 269 -208 288 -157 l 311 0 l 24 722 l 104 722 l 363 58 l 592 722 l 667 722 m 176 907 l 176 972 l 513 972 l 513 907 "},"‒":{"ha":775,"x_min":0,"x_max":0,"o":"m 669 413 l 106 413 l 106 481 l 669 481 "},"–":{"ha":581,"x_min":0,"x_max":0,"o":"m 568 413 l 13 413 l 13 481 l 568 481 "},"—":{"ha":858,"x_min":0,"x_max":0,"o":"m 846 413 l 13 413 l 13 481 l 846 481 "},"―":{"ha":581,"x_min":0,"x_max":0,"o":"m 568 413 l 13 413 l 13 481 l 568 481 "},"‘":{"ha":383,"x_min":0,"x_max":0,"o":"m 136 796 b 282 1000 136 919 199 979 l 282 950 b 203 806 228 932 203 892 l 239 806 l 239 694 l 136 694 "},"’":{"ha":383,"x_min":0,"x_max":0,"o":"m 246 899 b 100 694 246 775 183 715 l 100 744 b 179 889 154 763 179 803 l 143 889 l 143 1000 l 246 1000 "},"‚":{"ha":383,"x_min":0,"x_max":0,"o":"m 246 8 b 100 -193 246 -114 183 -174 l 100 -144 b 179 0 154 -125 179 -85 l 143 0 l 143 110 l 246 110 "},"“":{"ha":579,"x_min":0,"x_max":0,"o":"m 140 796 b 285 1000 140 919 201 979 l 285 950 b 206 806 232 932 206 892 l 243 806 l 243 694 l 140 694 m 332 796 b 478 1000 332 919 394 979 l 478 950 b 399 806 424 932 399 892 l 435 806 l 435 694 l 332 694 "},"”":{"ha":576,"x_min":0,"x_max":0,"o":"m 246 899 b 100 694 246 775 183 715 l 100 744 b 179 889 154 763 179 803 l 143 889 l 143 1000 l 246 1000 m 438 899 b 293 694 438 775 376 715 l 293 744 b 372 889 346 763 372 803 l 335 889 l 335 1000 l 438 1000 "},"„":{"ha":576,"x_min":0,"x_max":0,"o":"m 246 8 b 100 -193 246 -114 183 -174 l 100 -144 b 179 0 154 -125 179 -85 l 143 0 l 143 110 l 246 110 m 438 8 b 293 -193 438 -112 376 -172 l 293 -144 b 372 0 346 -125 372 -85 l 335 0 l 335 110 l 438 110 "},"†":{"ha":833,"x_min":0,"x_max":0,"o":"m 453 1000 l 453 715 l 726 715 l 726 644 l 453 644 l 453 0 l 378 0 l 378 644 l 106 644 l 106 715 l 378 715 l 378 1000 "},"‡":{"ha":833,"x_min":0,"x_max":0,"o":"m 453 1000 l 453 735 l 726 735 l 726 664 l 453 664 l 453 329 l 726 329 l 726 258 l 453 258 l 453 0 l 378 0 l 378 258 l 106 258 l 106 329 l 378 329 l 378 664 l 106 664 l 106 735 l 378 735 l 378 1000 "},"•":{"ha":411,"x_min":0,"x_max":0,"o":"m 114 351 l 114 532 l 299 532 l 299 351 "},"…":{"ha":944,"x_min":0,"x_max":0,"o":"m 147 0 l 147 111 l 240 111 l 240 0 m 426 0 l 426 111 l 519 111 l 519 0 m 704 0 l 704 111 l 797 111 l 797 0 "},"‰":{"ha":1668,"x_min":0,"x_max":0,"o":"m 526 758 b 299 524 526 601 419 524 b 72 758 178 524 72 601 b 299 993 72 915 178 993 b 526 758 419 993 526 915 m 139 758 b 299 581 139 633 214 581 b 460 758 382 581 460 633 b 299 936 460 883 383 936 b 139 758 214 936 139 883 m 379 0 l 304 0 l 768 972 l 842 972 m 1079 214 b 851 -21 1079 57 972 -21 b 625 214 731 -21 625 57 b 851 449 625 371 732 449 b 1079 214 972 449 1079 371 m 692 214 b 851 36 692 89 767 36 b 1013 214 935 36 1013 89 b 851 392 1013 339 936 392 b 692 214 767 392 692 339 m 1611 214 b 1383 -21 1611 57 1504 -21 b 1157 214 1263 -21 1157 57 b 1383 449 1157 371 1264 449 b 1611 214 1504 449 1611 371 m 1224 214 b 1383 36 1224 89 1299 36 b 1544 214 1467 36 1544 89 b 1383 392 1544 339 1468 392 b 1224 214 1299 392 1224 339 "},"‹":{"ha":401,"x_min":0,"x_max":0,"o":"m 88 438 l 256 722 l 313 722 l 176 435 l 299 125 l 242 125 "},"›":{"ha":401,"x_min":0,"x_max":0,"o":"m 160 125 l 101 125 l 224 435 l 88 722 l 146 722 l 313 438 "},"⁄":{"ha":375,"x_min":0,"x_max":0,"o":"m -108 -125 l -185 -125 l 475 1097 l 553 1097 "},"⁴":{"ha":472,"x_min":0,"x_max":0,"o":"m 326 917 l 326 756 l 413 756 l 413 700 l 326 700 l 326 583 l 264 583 l 264 700 l 58 700 l 58 758 l 175 1111 l 240 1111 l 122 756 l 264 756 l 264 785 l 274 917 "},"€":{"ha":833,"x_min":0,"x_max":0,"o":"m 493 46 b 732 218 624 46 710 107 l 810 218 b 486 -21 783 69 658 -21 b 131 353 310 -21 165 89 l 24 353 l 40 417 l 124 417 b 122 486 122 438 122 461 b 124 557 122 510 122 535 l 24 557 l 40 621 l 131 621 b 488 993 164 893 315 993 b 810 754 663 993 783 903 l 732 754 b 486 926 710 865 617 926 b 211 621 357 926 240 849 l 631 621 l 614 557 l 204 557 b 201 486 201 535 201 510 b 204 417 201 461 201 438 l 575 417 l 558 353 l 213 353 b 493 46 240 128 356 46 "},"№":{"ha":1571,"x_min":0,"x_max":0,"o":"m 875 1000 l 875 0 l 783 0 l 188 900 l 188 0 l 114 0 l 114 1000 l 210 1000 l 803 106 l 803 1000 m 1115 713 b 1281 467 1115 532 1193 467 b 1443 713 1368 467 1443 531 b 1281 961 1443 896 1368 961 b 1115 713 1193 961 1115 893 m 1046 713 b 1281 1017 1046 928 1149 1017 b 1513 713 1413 1017 1513 931 b 1282 411 1513 494 1410 411 b 1046 713 1153 411 1046 497 m 1494 0 l 1050 0 l 1050 68 l 1494 68 "},"™":{"ha":1147,"x_min":0,"x_max":0,"o":"m 742 450 l 565 933 l 565 450 l 507 450 l 507 944 l 307 944 l 307 450 l 244 450 l 244 944 l 44 944 l 44 1000 l 603 1000 l 774 526 l 939 1000 l 1033 1000 l 1033 450 l 972 450 l 972 933 l 803 450 "},"Ω":{"ha":1046,"x_min":0,"x_max":0,"o":"m 606 71 b 893 501 761 88 893 207 b 522 954 893 794 733 954 b 151 501 299 954 151 794 b 439 71 151 218 286 92 l 439 0 l 124 0 l 124 71 l 285 71 b 72 501 163 142 72 289 b 522 1021 72 863 286 1021 b 974 501 760 1021 974 850 b 764 71 974 282 885 132 l 921 71 l 921 0 l 606 0 "},"℮":{"ha":1313,"x_min":0,"x_max":0,"o":"m 303 471 l 303 168 b 657 33 361 81 526 33 b 1018 169 788 33 940 79 l 1099 169 b 656 -21 997 51 849 -21 b 97 482 338 -21 97 190 b 656 993 97 774 349 993 b 1215 471 953 993 1215 781 m 1010 797 b 657 939 932 882 819 939 b 303 799 494 939 374 885 l 303 526 l 1010 526 "},"⅓":{"ha":1222,"x_min":0,"x_max":0,"o":"m 318 -125 l 242 -125 l 901 1097 l 979 1097 m 118 444 l 118 501 l 244 501 l 244 908 l 99 824 l 99 889 l 239 972 l 308 972 l 308 501 l 413 501 l 413 444 m 774 404 b 947 529 790 486 864 529 b 1101 388 1035 529 1101 474 b 1007 269 1101 332 1068 288 b 1122 133 1060 258 1122 224 b 944 -21 1122 46 1049 -21 b 771 107 856 -21 782 38 l 839 107 b 943 32 850 63 899 32 b 1056 136 1017 32 1056 79 b 939 240 1056 208 1000 240 l 907 240 l 907 290 l 943 290 b 1038 386 993 290 1038 332 b 944 476 1038 442 1001 476 b 839 404 889 476 851 450 "},"⅔":{"ha":1222,"x_min":0,"x_max":0,"o":"m 335 -125 l 258 -125 l 918 1097 l 996 1097 m 76 853 b 253 993 90 932 158 993 b 419 838 351 993 419 926 b 314 649 419 763 374 708 l 174 508 l 413 508 l 413 451 l 94 451 l 94 508 l 276 693 b 354 839 313 729 354 774 b 251 940 354 882 331 940 b 142 853 192 940 154 904 m 797 404 b 971 529 814 486 888 529 b 1125 388 1058 529 1125 474 b 1031 269 1125 332 1092 288 b 1146 133 1083 258 1146 224 b 968 -21 1146 46 1072 -21 b 794 107 879 -21 806 38 l 863 107 b 967 32 874 63 922 32 b 1079 136 1040 32 1079 79 b 963 240 1079 208 1024 240 l 931 240 l 931 290 l 967 290 b 1061 386 1017 290 1061 332 b 968 476 1061 442 1025 476 b 863 404 913 476 875 450 "},"←":{"ha":833,"x_min":0,"x_max":0,"o":"m 143 543 l 806 543 l 806 475 l 143 475 l 390 158 l 300 158 l 28 510 l 300 861 l 390 861 "},"↑":{"ha":833,"x_min":0,"x_max":0,"o":"m 453 785 l 453 121 l 381 121 l 381 785 l 65 542 l 65 626 l 417 899 l 768 626 l 768 542 "},"→":{"ha":833,"x_min":0,"x_max":0,"o":"m 689 475 l 28 475 l 28 543 l 689 543 l 443 861 l 533 861 l 806 510 l 533 158 l 443 158 "},"↓":{"ha":833,"x_min":0,"x_max":0,"o":"m 381 232 l 381 899 l 453 899 l 453 232 l 768 478 l 768 393 l 417 121 l 65 393 l 65 478 "},"↔":{"ha":1250,"x_min":0,"x_max":0,"o":"m 1106 475 l 143 475 l 390 158 l 300 158 l 28 510 l 300 861 l 390 861 l 143 543 l 1106 543 l 860 861 l 950 861 l 1222 510 l 950 158 l 860 158 "},"↕":{"ha":833,"x_min":0,"x_max":0,"o":"m 381 24 l 381 993 l 65 750 l 65 835 l 417 1107 l 768 835 l 768 750 l 453 993 l 453 24 l 768 269 l 768 185 l 417 -87 l 65 185 l 65 269 "},"↖":{"ha":833,"x_min":0,"x_max":0,"o":"m 243 733 l 717 261 l 665 210 l 197 678 l 147 283 l 86 343 l 142 785 l 583 840 l 642 783 "},"↗":{"ha":833,"x_min":0,"x_max":0,"o":"m 604 678 l 138 210 l 86 261 l 560 733 l 160 783 l 219 840 l 661 785 l 717 343 l 656 283 "},"↘":{"ha":833,"x_min":0,"x_max":0,"o":"m 560 317 l 86 789 l 138 840 l 604 371 l 656 765 l 717 707 l 661 265 l 219 210 l 160 265 "},"↙":{"ha":833,"x_min":0,"x_max":0,"o":"m 197 371 l 665 840 l 717 789 l 243 317 l 642 265 l 583 210 l 142 265 l 86 707 l 147 765 "},"∂":{"ha":763,"x_min":0,"x_max":0,"o":"m 201 1017 b 694 438 444 971 694 828 b 371 -21 694 167 603 -21 b 65 329 185 -21 65 121 b 358 665 65 518 175 665 b 621 489 497 665 590 581 b 193 951 603 811 396 915 m 617 317 b 369 601 617 446 538 601 b 142 324 242 601 142 518 b 371 44 142 153 235 44 b 617 317 518 44 601 138 "},"∆":{"ha":918,"x_min":0,"x_max":0,"o":"m 10 0 l 411 1000 l 508 1000 l 908 0 m 118 67 l 794 67 l 460 925 "},"∏":{"ha":833,"x_min":0,"x_max":0,"o":"m 132 0 l 132 906 l 47 906 l 47 972 l 785 972 l 785 906 l 699 906 l 699 0 l 621 0 l 621 906 l 210 906 l 210 0 "},"∑":{"ha":874,"x_min":0,"x_max":0,"o":"m 436 379 l 93 933 l 93 1000 l 806 1000 l 806 933 l 182 933 l 522 379 l 182 -174 l 806 -174 l 806 -240 l 93 -240 l 93 -174 "},"−":{"ha":833,"x_min":0,"x_max":0,"o":"m 699 413 l 135 413 l 135 481 l 699 481 "},"∕":{"ha":375,"x_min":0,"x_max":0,"o":"m -108 -125 l -185 -125 l 475 1097 l 553 1097 "},"∙":{"ha":388,"x_min":0,"x_max":0,"o":"m 147 389 l 147 500 l 249 500 l 249 389 "},"√":{"ha":829,"x_min":0,"x_max":0,"o":"m 292 0 l 35 639 l 114 639 l 338 76 l 667 1114 l 903 1114 l 903 1049 l 724 1049 l 385 0 "},"∞":{"ha":1029,"x_min":0,"x_max":0,"o":"m 296 728 b 517 581 381 728 468 679 b 738 728 561 682 640 728 b 976 486 904 728 976 604 b 733 243 976 375 904 243 b 513 390 647 243 560 293 b 292 243 468 290 389 243 b 51 486 125 243 51 368 b 296 728 51 597 125 728 m 731 307 b 903 486 847 307 903 389 b 733 665 903 583 842 665 b 542 476 611 665 550 558 b 731 307 546 444 599 307 m 299 665 b 126 486 182 665 126 583 b 294 307 126 389 188 307 b 488 496 418 307 479 414 b 299 665 483 528 431 665 "},"∫":{"ha":833,"x_min":0,"x_max":0,"o":"m 164 -189 b 274 -196 211 -194 242 -196 b 379 -86 329 -196 379 -165 l 379 1110 b 554 1286 379 1217 449 1286 b 669 1278 596 1286 628 1283 l 669 1215 b 560 1222 622 1221 592 1222 b 454 1113 504 1222 454 1193 l 454 -82 b 281 -258 454 -189 386 -258 b 164 -251 238 -258 206 -256 "},"≈":{"ha":833,"x_min":0,"x_max":0,"o":"m 283 604 b 135 538 224 604 179 576 l 135 615 b 286 671 171 644 221 671 b 550 590 400 671 456 590 b 699 657 610 590 653 617 l 699 579 b 546 524 663 550 611 524 b 283 604 432 524 376 604 m 283 321 b 135 254 224 321 179 293 l 135 332 b 286 388 171 361 221 388 b 550 307 400 388 456 307 b 699 374 610 307 653 333 l 699 296 b 546 240 663 267 611 240 b 283 321 432 240 376 321 "},"≠":{"ha":833,"x_min":0,"x_max":0,"o":"m 699 268 l 343 268 l 208 56 l 133 56 l 267 268 l 135 268 l 135 336 l 310 336 l 450 557 l 135 557 l 135 625 l 492 625 l 624 833 l 700 833 l 568 625 l 699 625 l 699 557 l 525 557 l 385 336 l 699 336 "},"≤":{"ha":833,"x_min":0,"x_max":0,"o":"m 214 460 l 699 261 l 699 183 l 135 428 l 135 494 l 699 758 l 699 679 l 214 463 m 699 0 l 135 0 l 135 68 l 699 68 "},"≥":{"ha":833,"x_min":0,"x_max":0,"o":"m 618 460 l 618 463 l 135 679 l 135 758 l 699 494 l 699 428 l 135 183 l 135 261 m 135 68 l 699 68 l 699 0 l 135 0 "},"⋆":{"ha":833,"x_min":0,"x_max":0,"o":"m 417 1014 l 454 876 l 518 1004 l 529 861 l 618 974 l 600 832 l 708 925 l 663 789 l 788 860 l 717 735 l 853 781 l 760 672 l 901 690 l 789 601 l 932 590 l 804 526 l 942 489 l 804 450 l 932 386 l 789 376 l 901 288 l 760 306 l 853 197 l 717 242 l 788 117 l 663 188 l 708 51 l 600 146 l 618 3 l 529 117 l 518 -26 l 454 101 l 417 -37 l 378 101 l 314 -26 l 304 117 l 215 3 l 233 146 l 125 51 l 169 188 l 44 117 l 115 242 l -21 197 l 74 306 l -69 288 l 44 376 l -99 386 l 29 450 l -110 489 l 29 526 l -99 590 l 44 601 l -69 690 l 74 672 l -21 781 l 115 735 l 44 860 l 169 789 l 125 925 l 233 832 l 215 974 l 304 861 l 314 1004 l 378 876 "},"▯":{"ha":768,"x_min":0,"x_max":0,"o":"m 107 1000 l 661 1000 l 661 0 l 107 0 m 593 68 l 593 932 l 175 932 l 175 68 "},"◊":{"ha":833,"x_min":0,"x_max":0,"o":"m 458 0 l 369 0 l 97 486 l 369 972 l 458 972 l 736 486 m 414 915 l 179 486 l 415 56 l 656 486 "},"ﬀ":{"ha":847,"x_min":0,"x_max":0,"o":"m 857 940 b 750 957 819 950 778 957 b 651 847 688 957 651 922 l 651 722 l 817 722 l 817 658 l 651 658 l 651 0 l 576 0 l 576 658 l 219 658 l 219 0 l 144 0 l 144 658 l 38 658 l 38 722 l 144 722 l 144 786 b 378 1011 144 917 200 1011 b 613 964 456 1011 539 990 b 743 1021 640 1000 685 1021 b 857 1004 782 1021 821 1015 m 576 844 b 586 911 576 868 581 890 b 383 949 533 931 457 949 b 219 790 258 949 219 894 l 219 722 l 576 722 l 576 844 "},"ﬁ":{"ha":751,"x_min":0,"x_max":0,"o":"m 569 0 l 569 657 l 219 657 l 219 0 l 144 0 l 144 657 l 38 657 l 38 722 l 144 722 l 144 828 b 358 1018 144 946 215 1018 b 531 993 428 1018 494 1003 l 531 929 b 365 954 493 939 426 954 b 219 831 267 954 219 918 l 219 722 l 644 722 l 644 0 "},"ﬂ":{"ha":758,"x_min":0,"x_max":0,"o":"m 576 0 l 576 926 b 385 956 526 942 442 956 b 219 803 261 956 219 906 l 219 722 l 381 722 l 381 658 l 219 658 l 219 0 l 144 0 l 144 658 l 38 658 l 38 722 l 144 722 l 144 799 b 379 1018 144 929 203 1018 b 578 992 443 1018 526 1006 l 651 1000 l 651 0 "},"ﬃ":{"ha":1181,"x_min":0,"x_max":0,"o":"m 1001 0 l 1001 657 l 650 657 l 650 0 l 575 0 l 575 657 l 219 657 l 219 0 l 144 0 l 144 657 l 38 657 l 38 722 l 144 722 l 144 786 b 378 1010 144 915 199 1010 b 619 960 458 1010 544 989 b 790 1021 656 999 713 1021 b 961 994 860 1021 926 1006 l 961 931 b 797 957 925 942 858 957 b 650 833 699 957 650 913 l 650 722 l 1076 722 l 1076 0 m 575 829 b 589 907 575 858 579 885 b 383 949 536 929 458 949 b 219 790 257 949 219 894 l 219 722 l 575 722 l 575 829 "},"ﬄ":{"ha":1190,"x_min":0,"x_max":0,"o":"m 1008 0 l 1008 928 b 818 957 958 943 875 957 b 651 804 693 957 651 908 l 651 722 l 813 722 l 813 658 l 651 658 l 651 0 l 576 0 l 576 658 l 219 658 l 219 0 l 144 0 l 144 658 l 38 658 l 38 722 l 144 722 l 144 786 b 378 1011 144 917 200 1011 b 626 957 458 1011 550 989 b 811 1021 663 997 721 1021 b 1010 993 875 1021 960 1007 l 1083 1001 l 1083 0 m 576 801 b 596 906 576 840 582 876 b 383 949 539 931 457 949 b 219 790 258 949 219 894 l 219 722 l 576 722 l 576 801 "}}}
